<svg xmlns="http://www.w3.org/2000/svg" version="1.1" xmlns:xlink="http://www.w3.org/1999/xlink" preserveAspectRatio="none" x="0px" y="0px" width="1000px" height="856px" viewBox="0 0 1000 856">
<defs/>

<g id="heartpaw">
<g transform="matrix( 1.71673583984375, 0, 0, 1.715728759765625, -247.15,-331) ">
<g>
<g>
<path fill="#FF797D" stroke="none" d="
M 709.6 284.55
Q 709.45 284.3 709.35 284.05 666.45 204.8 577.1 194.95
L 576.8 194.95
Q 576.55 194.9 576.3 194.9
L 576 194.85
Q 489.45 189.2 435.3 255.8 381.3 187.75 293.75 193.35
L 293.45 193.4
Q 293.35 193.35 293.3 193.4
L 292.75 193.45
Q 292.1 193.5 291.5 193.6 192.05 209.1 155.25 296.75 154.95 297.4 154.75 298.15 129 371.8 164.75 453.5
L 164.85 453.8
Q 164.85 453.85 164.9 453.9
L 165.05 454.2
Q 198.6 529.1 274.25 587.15
L 274.5 587.35 274.5 587.4 274.75 587.6
Q 341.55 638.95 402.95 679.4 434.45 704.15 467.4 679.65 548 625.5 626.95 559.9 627.2 559.65 627.5 559.45 681.85 514 710.2 443.95 710.4 443.5 710.55 443.05 742.5 358.6 710.2 285.8
L 710.1 285.55
Q 710.05 285.45 710.05 285.4
L 709.85 284.95
Q 709.7 284.75 709.6 284.55
M 325.8 382.5
Q 335.55 382.5 342.45 392.85 349.35 403.2 349.35 417.85 349.35 432.5 342.45 442.85 335.55 453.2 325.8 453.2 316.05 453.2 309.15 442.85 302.25 432.5 302.25 417.85 302.25 403.2 309.15 392.85 316.05 382.5 325.8 382.5
M 391.55 384.8
Q 378.4 384.8 369.05 370.85 359.75 356.9 359.75 337.15 359.75 317.45 369.05 303.45 378.4 289.5 391.55 289.5 404.7 289.5 414 303.45 423.3 317.45 423.3 337.15 423.3 356.9 414 370.85 404.7 384.8 391.55 384.8
M 457.05 338.4
Q 457.05 318.7 466.35 304.7 475.7 290.75 488.85 290.75 502 290.75 511.3 304.7 520.6 318.7 520.6 338.4 520.6 358.15 511.3 372.1 502 386.05 488.85 386.05 475.7 386.05 466.35 372.1 457.05 358.15 457.05 338.4
M 536.65 392.75
Q 543.55 382.4 553.3 382.4 563.05 382.4 569.95 392.75 576.85 403.1 576.85 417.75 576.85 432.4 569.95 442.75 563.05 453.1 553.3 453.1 543.55 453.1 536.65 442.75 529.75 432.4 529.75 417.75 529.75 403.1 536.65 392.75
M 492.65 433
Q 501.45 450.35 521.4 461.55 530.65 465.5 538.35 473.2 554.25 489.15 554.25 511.65 554.25 534.2 538.35 550.15 522.4 566.05 499.85 566.05 497.5 566.05 495.2 565.9 494 566.05 492.7 566.05
L 375.2 566.05
Q 372.7 566.05 370.5 565.4 353 563.05 339.9 550 324 534.05 324 511.5 324 489 339.9 473.05 346.8 466.15 354.95 462.25 379.65 448.4 389.65 429.25 393.6 419 402.05 410.6 417.95 394.65 440.5 394.65 463.05 394.65 478.95 410.6 488.9 420.5 492.65 433 Z"/>
</g>
</g>
</g>
</g>
</svg>