<svg xmlns="http://www.w3.org/2000/svg" version="1.1" xmlns:xlink="http://www.w3.org/1999/xlink" preserveAspectRatio="none" x="0px" y="0px" width="1000px" height="984px" viewBox="0 0 1000 984">
<defs/>

<g id="home">
<g transform="matrix( 1.744232177734375, 0, 0, 1.7530975341796875, -158.5,-122.45) ">
<g>
<g>
<path fill="#FF797D" stroke="none" d="
M 586.6 327.4
Q 586.430078125 327.2958984375 586.25 327.15
L 409.15 208.8
Q 378.312109375 186.6916015625 347.4 209.55
L 173.8 325.65
Q 148.308203125 339.8318359375 149.25 382.9
L 149.25 589.35
Q 149.25 589.5666015625 149.25 589.75 149.2046875 590.4978515625 149.25 591.25 151.35 628.1 189.7 631 190.508203125 631.0591796875 191.25 631
L 268.05 631.15
Q 268.9068359375 631.15 269.7 631 270.24765625 631.0404296875 270.8 631 309.15 628.1 311.25 591.25 311.2916015625 590.5599609375 311.25 589.9
L 311.25 523.2
Q 314.223828125 479.419140625 355.95 462.65 383.2529296875 453.9603515625 404.5 461.9 442.8498046875 482.0318359375 446.2 519.6
L 446.2 586.75
Q 446.199609375 587.5283203125 446.3 588.25 446.128515625 589.3638671875 446.2 590.55 448.3 627.4 486.65 630.3 487.4951171875 630.3619140625 488.3 630.3
L 568.5 630.4
Q 568.880078125 630.4 569.25 630.35 569.341015625 630.3689453125 569.4 630.35
L 569.65 630.3
Q 579.5111328125 629.5439453125 586.95 626.45 607.945703125 617.8580078125 609.65 591.1 609.661328125 590.8654296875 609.65 590.6
L 609.7 374
Q 609.7 373.874609375 609.7 373.75
L 609.65 373.25
Q 608.741015625 343.5904296875 586.95 327.65 586.875390625 327.6296875 586.8 327.55
L 586.6 327.4
M 657.45 285.95
Q 666.1865234375 273.5630859375 663.55 258.7 660.969140625 243.88203125 648.6 235.1
L 457.65 101.3
Q 453.1884765625 97.844921875 448.7 94.75 377.4876953125 45.3595703125 311.85 93.9
L 106.8 233.7
Q 101.434375 237.41796875 97.85 242.3 93.1400390625 248.69765625 91.55 257.1 88.746875 271.9021484375 97.3 284.4 97.571875 284.797265625 97.85 285.15 106.3216796875 296.9849609375 120.65 299.7 135.4564453125 302.5 147.95 294
L 353.3 154
Q 353.6806640625 153.7546875 354 153.5 382.0521484375 135.2388671875 412.85 158.95
L 413.5 159.45
Q 414.29140625 160.0759765625 415.1 160.65
L 606.7 294.9
Q 619.0923828125 303.54375 633.9 300.9 648.760546875 298.324609375 657.45 285.95 Z"/>
</g>
</g>
</g>
</g>
</svg>