<svg xmlns="http://www.w3.org/2000/svg" version="1.1" xmlns:xlink="http://www.w3.org/1999/xlink" preserveAspectRatio="none" x="0px" y="0px" width="1000px" height="1000px" viewBox="0 0 1000 1000">
<defs/>

<g id="pawplus">
<g transform="matrix( 1.8575439453125, 0, 0, 1.8446502685546875, -188.35,-174.05) ">
<g>
<g>
<path fill="#FF797D" stroke="none" d="
M 147.6 276.65
Q 128.45 276.65 114.95 296.95 101.4 317.2 101.4 345.9 101.4 374.6 114.95 394.9 128.45 415.15 147.6 415.15 166.7 415.15 180.25 394.9 193.75 374.6 193.75 345.9 193.75 317.2 180.25 296.95 166.7 276.65 147.6 276.65
M 232.4 121.7
Q 214.15 149.05 214.15 187.75 214.15 226.45 232.4 253.75 250.65 281.15 276.4 281.15 302.2 281.15 320.45 253.75 338.7 226.45 338.7 187.75 338.7 149.05 320.45 121.7 302.2 94.35 276.4 94.35 250.65 94.35 232.4 121.7
M 626.25 296.65
Q 612.7 276.35 593.6 276.35 574.45 276.35 560.95 296.65 547.4 316.9 547.4 345.6 547.4 374.3 560.95 394.6 574.45 414.85 593.6 414.85 612.7 414.85 626.25 394.6 639.75 374.3 639.75 345.6 639.75 316.9 626.25 296.65
M 474.65 375.65
Q 467.35 351.15 447.9 331.7 416.65 300.45 372.5 300.45 328.35 300.45 297.1 331.7 280.6 348.2 272.85 368.3 253.25 405.8 204.85 432.95 188.9 440.6 175.35 454.15 144.1 485.4 144.1 529.55 144.1 573.7 175.35 604.95 200.95 630.55 235.3 635.15 239.6 636.45 244.45 636.45
L 474.85 636.45
Q 477.35 636.45 479.7 636.1 484.2 636.45 488.85 636.45 533 636.45 564.25 605.25 595.5 574 595.5 529.85 595.5 485.7 564.25 454.45 549.15 439.4 531.1 431.6 492 409.65 474.65 375.65
M 325.45 382.1
Q 331.55 376.05 340 376.05
L 401.35 376.05
Q 409.85 376.05 415.85 382.1 415.9 382.1 415.95 382.15 421.95 388.2 421.95 396.7
L 421.95 425.1
Q 422 425.5 422 426
L 422 436.25 435.85 436.25
Q 436.3 436.25 436.7 436.3
L 463.1 436.3
Q 471.65 436.3 477.65 442.35 477.7 442.35 477.7 442.4 483.7 448.4 483.7 456.9
L 483.7 518.25
Q 483.7 526.7 477.7 532.75
L 477.65 532.8
Q 471.65 538.8 463.1 538.8
L 435.4 538.8
Q 434.95 538.85 434.5 538.85
L 422 538.85 422 554.1
Q 422 554.55 421.95 555
L 421.95 581.4
Q 421.95 589.9 415.9 595.95
L 415.85 595.95
Q 409.85 601.95 401.35 601.95
L 340 601.95
Q 331.55 601.95 325.5 595.95
L 325.45 595.95
Q 319.45 589.9 319.45 581.4
L 319.45 553.65
Q 319.4 553.25 319.4 552.8
L 319.4 538.85 306.4 538.85
Q 305.9 538.85 305.5 538.8
L 278.4 538.8
Q 269.85 538.8 263.85 532.8 257.75 526.7 257.8 518.25
L 257.8 456.9
Q 257.8 448.4 263.8 442.4 263.85 442.35 263.9 442.3 269.9 436.3 278.4 436.3
L 306.85 436.3
Q 307.25 436.25 307.7 436.25
L 319.4 436.25 319.4 424.65
Q 319.4 424.2 319.45 423.75
L 319.45 396.7
Q 319.45 388.15 325.45 382.1
M 529.5 190.2
Q 529.5 151.5 511.25 124.15 493 96.8 467.2 96.8 441.45 96.8 423.2 124.15 404.95 151.5 404.95 190.2 404.95 228.9 423.2 256.2 441.45 283.6 467.2 283.6 493 283.6 511.25 256.2 529.5 228.9 529.5 190.2 Z"/>
</g>
</g>
</g>
</g>
</svg>