<svg xmlns="http://www.w3.org/2000/svg" version="1.1" xmlns:xlink="http://www.w3.org/1999/xlink" preserveAspectRatio="none" x="0px" y="0px" width="1000px" height="1000px" viewBox="0 0 1000 1000">
<defs/>

<g id="plus">
<g transform="matrix( 3.098846435546875, 0, 0, 3.098846435546875, -874.2,-980.15) ">
<g>
<g>
<path fill="#FF797D" stroke="none" d="
M 399.55 316.3
Q 387.45 316.25 378.75 324.95 370.15 333.55 370.15 345.75
L 370.15 384.45
Q 370.1 385.05 370.1 385.7
L 370.1 402.3 353.4 402.3
Q 352.75 402.3 352.15 402.35
L 311.55 402.35
Q 299.4 402.35 290.8 410.95 290.75 411 290.7 411.05 282.1 419.65 282.1 431.75
L 282.1 519.4
Q 282.05 531.5 290.75 540.2 299.35 548.8 311.55 548.8
L 350.25 548.8
Q 350.85 548.85 351.5 548.85
L 370.1 548.85 370.1 568.75
Q 370.1 569.4 370.15 570
L 370.15 609.6
Q 370.15 621.8 378.75 630.4
L 378.8 630.45
Q 387.45 639 399.55 639
L 487.2 639
Q 499.3 639 507.9 630.45 507.95 630.45 507.95 630.4 516.6 621.8 516.6 609.6
L 516.6 571.9
Q 516.65 571.3 516.65 570.65
L 516.65 548.85 534.55 548.85
Q 535.2 548.85 535.8 548.8
L 575.4 548.8
Q 587.6 548.8 596.2 540.2
L 596.25 540.15
Q 604.8 531.5 604.8 519.4
L 604.8 431.75
Q 604.8 419.65 596.25 411.05 596.25 411 596.2 411 587.6 402.35 575.4 402.35
L 537.7 402.35
Q 537.1 402.3 536.45 402.3
L 516.65 402.3 516.65 387.6
Q 516.65 386.95 516.6 386.35
L 516.6 345.75
Q 516.6 333.6 508 325 507.95 324.95 507.9 324.9 499.3 316.3 487.2 316.3
L 399.55 316.3 Z"/>
</g>
</g>
</g>
</g>
</svg>