<svg xmlns="http://www.w3.org/2000/svg" version="1.1" xmlns:xlink="http://www.w3.org/1999/xlink" preserveAspectRatio="none" x="0px" y="0px" width="881px" height="1000px" viewBox="0 0 881 1000">
<defs/>

<g id="bell">
<g transform="matrix( 1.03271484375, 0, 0, 1.0337982177734375, -87.35,-13.9) ">
<g>
<g>
<path fill="#FF797D" stroke="none" d="
M 925.95 758.4
Q 914.2 746.65 897.65 746.65
L 124.6 746.65
Q 108.05 746.65 96.35 758.4 84.6 770.1 84.6 786.65 84.6 803.2 96.35 814.95 108.05 826.65 124.6 826.65
L 400.2 826.65
Q 394.25 844.3388671875 394.25 864.5 394.25 912.65 428.3 946.7 462.3 980.75 510.5 980.75 558.65 980.75 592.65 946.7 626.7 912.65 626.7 864.5 626.7 844.3388671875 620.7 826.65
L 897.65 826.65
Q 914.2 826.65 925.95 814.95 937.65 803.2 937.65 786.65 937.65 770.1 925.95 758.4
M 739.95 197.3
Q 739.6904296875 196.9404296875 739.35 196.6 667.634375 123.826953125 587.95 104.25 589.1 97.58046875 589.1 90.45 589.1 58.55 566.55 36 544 13.45 512.1 13.45 480.2 13.45 457.65 36 435.1 58.55 435.1 90.45 435.1 97.455078125 436.15 104 356.26484375 123.381640625 284.3 196.25 284.00625 196.5451171875 283.7 196.85 215.93203125 277.2615234375 206.35 355.8
L 206.3 355.95 206.3 355.95 206.3 356.1
Q 200.0447265625 410.317578125 201.95 477.05 201.9478515625 477.1255859375 201.95 477.2
L 201.95 545.6
Q 199.9953125 597.3609375 178.55 642.65 178.249609375 643.3455078125 178.15 644.05 175.1330078125 656.7818359375 180.75 663.55 185.8189453125 670.8470703125 199.45 671.7 199.7861328125 671.7205078125 200.1 671.7
L 823.35 671.7
Q 823.6197265625 671.713671875 823.9 671.7 837.55 670.85 842.6 663.6 848.2478515625 656.713671875 845.15 643.8
L 845.1 643.75
Q 845.119921875 643.6765625 845.1 643.6
L 845 643.35
Q 844.8703125 642.8087890625 844.6 642.3 823.3431640625 597.170703125 821.4 545.6
L 821.4 477.2
Q 821.4021484375 477.1248046875 821.4 477.05 823.2857421875 410.4919921875 817.05 356.4 817.0341796875 356.1830078125 817 355.95 816.9900390625 355.8673828125 816.95 355.75
L 816.95 355.65
Q 807.351171875 277.4072265625 739.95 197.3 Z"/>
</g>
</g>
</g>
</g>
</svg>