<svg xmlns="http://www.w3.org/2000/svg" version="1.1" xmlns:xlink="http://www.w3.org/1999/xlink" preserveAspectRatio="none" x="0px" y="0px" width="923px" height="1000px" viewBox="0 0 923 1000">
<defs/>

<g id="blockcount">
<g transform="matrix( 1, 0, 0, 1.0000457763671875, 0,0) ">
<g>
<g>
<path fill="#FF797D" stroke="none" d="
M 512.85 53.15
Q 512.75 53 512.75 52.95 506.65 32.85 477.3 17.25 477.25 17.25 477.15 17.2 477.1 17.1 477 17.1 413.5 -13.35 349.55 10.4 349.35 10.4 349.2 10.45 256.65 40.8 222.85 128.55 222.7 128.85 222.55 129.2 191.2 219.8 222.65 300.75 222.85 301.25 223.15 301.7 227.5 310.45 224.45 314 224.3 314.15 224.15 314.25 199.45 333.8 212.3 369.35 215.25 403.6 238.7 413.95 239 414 239.25 414.15 249.4 417.95 249.55 427.8
L 249.55 427.95
Q 248.75 467.6 300.4 518.3 300.5 518.4 300.55 518.45 300.9 518.85 301.4 519.2 308 523.5 310.55 534.1
L 310.55 604.75
Q 310.75 618.55 304 627.65 251.1 675.6 194.2 684.2 193.9 684.2 193.55 684.3 173.7 687.8 147.05 696.5 146.45 696.5 145.95 696.7 56.1 729.2 16.25 805.4 16.05 805.75 15.9 806.2 -0.8 839.25 0.05 852.15 0 853.05 0.35 853.9 5.45 869.25 26.25 868.35
L 421.6 869.2
Q 419.45 864.15 417.5 858.95 400.35 813.2 400.35 760.3 400.35 644.95 481.9 563.35 495.7 549.5 510.5 538 515.55 534.1 520.7 530.45
L 520.7 526
Q 568 498.3 583.9 420.9 600.9 419.2 615.25 392.1 615.35 392.05 615.35 391.95 642.25 344 614.75 319.2 614.6 319.05 614.45 318.9 609.15 312.4 614.3 291.55 614.3 291.4 614.4 291.25 631.55 225.55 615.85 152.55 615.8 152.3 615.7 152 593.95 60.7 536.05 66.65 535.7 66.6 535.4 66.65 518.1 68.7 512.85 53.15
M 923 757.45
Q 923 657 851.95 585.9 780.85 514.8 680.5 514.8 580.1 514.8 509.05 585.9 438 657 438 757.45 438 857.85 509.05 928.95 580.1 999.95 680.5 999.95 780.85 999.95 851.95 928.95 923 857.85 923 757.45
M 679.1 576.05
Q 753.15 576.05 805.45 628.4 857.75 680.75 857.75 754.8 857.75 825.4017578125 810.25 876.25 807.2759765625 880.01875 803.55 883.6 799.875390625 887.2294921875 796.75 889.4 747.1173828125 933.55 679.1 933.55 605.05 933.55 552.75 881.25 500.45 828.9 500.45 754.8 500.45 680.75 552.75 628.4 605.05 576.05 679.1 576.05
M 572.6 698.05
Q 558.8 723.5798828125 558.8 754.8 558.8 804.65 594.05 839.9 629.3 875.15 679.1 875.15 712.2203125 875.15 738.85 859.6
L 572.6 698.05
M 799.4 754.8
Q 799.4 704.95 764.15 669.7 728.95 634.45 679.1 634.45 641.2712890625 634.45 611.85 654.8
L 781 819.15
Q 799.4 790.7818359375 799.4 754.8 Z"/>
</g>
</g>
</g>
</g>
</svg>