<svg xmlns="http://www.w3.org/2000/svg" version="1.1" xmlns:xlink="http://www.w3.org/1999/xlink" preserveAspectRatio="none" x="0px" y="0px" width="1000px" height="1000px" viewBox="0 0 1000 1000">
<defs/>

<g id="calendar">
<g transform="matrix( 1.070648193359375, 0, 0, 1.07666015625, -19.1,-24.05) ">
<g>
<g>
<path fill="#FF797D" stroke="none" d="
M 951.85 701.15
Q 951.85 597.55 878.6 524.35 805.4 451.15 701.8 451.15 598.25 451.15 525 524.35 451.8 597.55 451.8 701.15 451.8 804.7 525 877.9 568.6029296875 921.5029296875 622.95 939.15 659.8892578125 951.15 701.8 951.15 743.7310546875 951.15 780.65 939.15 835.026953125 921.5029296875 878.6 877.9 951.85 804.7 951.85 701.15
M 676 592.3
Q 676 577.8 686.25 567.55 696.5 557.3 711 557.3 725.5 557.3 735.75 567.55 746 577.8 746 592.3
L 746 668.3 821.3 668.3
Q 835.8 668.3 846.05 678.55 856.3 688.8 856.3 703.3 856.3 717.8 846.05 728.05 835.8 738.3 821.3 738.3
L 746 738.3 746 817.35
Q 746 831.85 735.75 842.1 725.5 852.35 711 852.35 696.5 852.35 686.25 842.1 676 831.85 676 817.35
L 676 738.3 596.25 738.3
Q 581.75 738.3 571.5 728.05 561.25 717.8 561.25 703.3 561.25 688.8 571.5 678.55 581.75 668.3 596.25 668.3
L 676 668.3 676 592.3
M 786.8 48.25
Q 760.8 22.35 724.05 22.35
L 106.65 22.35
Q 69.9 22.35 43.8 48.25 17.85 74.2 17.85 110.8
L 17.85 728.9
Q 17.85 765.5 43.8 791.4 69.9 817.35 106.65 817.35
L 422.85 817.35
Q 402.0263671875 768.2025390625 400.15 711.15 392.7443359375 708.4216796875 386.7 702.35 375.65 691.3 375.65 675.65 375.65 659.95 386.7 648.9 394.9533203125 640.6466796875 405.8 638.55 414.1830078125 595.90703125 434.65 558.25 425.4091796875 564.75 413.45 564.75 397.75 564.75 386.7 553.65 375.65 542.6 375.65 526.95 375.65 511.25 386.7 500.2 397.75 489.15 413.45 489.15 429.1 489.15 440.15 500.2 451.25 511.25 451.25 526.95 451.25 529.4802734375 450.95 531.9 466.930078125 508.8580078125 487.9 487.9 565.2861328125 410.4697265625 670.9 401.25 664.1 391.7923828125 664.1 379.5 664.1 363.8 675.15 352.75 686.2 341.7 701.9 341.7 717.55 341.7 728.6 352.75 739.7 363.8 739.7 379.5 739.7 392.00546875 732.6 401.55 775.036328125 405.751953125 812.85 421
L 812.85 110.8
Q 812.85 74.2 786.8 48.25
M 739.7 127.85
L 739.7 196.25
Q 739.7 212.1 728.05 223.3 716.4 234.5 699.9 234.5
L 125.3 234.5
Q 108.8 234.5 97.15 223.3 85.5 212.1 85.5 196.25
L 85.5 127.85
Q 85.5 112 97.15 100.8 108.8 89.6 125.3 89.6
L 699.9 89.6
Q 716.4 89.6 728.05 100.8 739.7 112 739.7 127.85
M 376.2 379.5
Q 376.2 363.8 387.25 352.75 398.3 341.7 414 341.7 429.65 341.7 440.7 352.75 451.8 363.8 451.8 379.5 451.8 395.15 440.7 406.2 429.65 417.3 414 417.3 398.3 417.3 387.25 406.2 376.2 395.15 376.2 379.5
M 531.7 352.75
Q 542.75 341.7 558.45 341.7 574.1 341.7 585.15 352.75 596.25 363.8 596.25 379.5 596.25 395.15 585.15 406.2 574.1 417.3 558.45 417.3 542.75 417.3 531.7 406.2 520.65 395.15 520.65 379.5 520.65 363.8 531.7 352.75
M 230.5 379.5
Q 230.5 363.85 241.55 352.75 252.65 341.7 268.3 341.7 283.95 341.7 295 352.75 306.1 363.85 306.1 379.5 306.1 395.2 295 406.2 283.95 417.3 268.3 417.3 252.65 417.3 241.55 406.2 230.5 395.2 230.5 379.5
M 231.2 526.95
Q 231.2 511.25 242.25 500.2 253.3 489.15 269 489.15 284.65 489.15 295.7 500.2 306.8 511.25 306.8 526.95 306.8 542.6 295.7 553.65 284.65 564.75 269 564.75 253.3 564.75 242.25 553.65 231.2 542.6 231.2 526.95
M 150 500.2
Q 161.1 511.25 161.1 526.95 161.1 542.6 150 553.65 138.95 564.75 123.3 564.75 107.6 564.75 96.55 553.65 85.5 542.6 85.5 526.95 85.5 511.25 96.55 500.2 107.6 489.15 123.3 489.15 138.95 489.15 150 500.2
M 87.05 675.65
Q 87.05 659.95 98.1 648.9 109.15 637.85 124.85 637.85 140.5 637.85 151.55 648.9 162.65 659.95 162.65 675.65 162.65 691.3 151.55 702.35 140.5 713.45 124.85 713.45 109.15 713.45 98.1 702.35 87.05 691.3 87.05 675.65
M 297.25 648.9
Q 308.35 659.95 308.35 675.65 308.35 691.3 297.25 702.35 286.2 713.45 270.55 713.45 254.85 713.45 243.8 702.35 232.75 691.3 232.75 675.65 232.75 659.95 243.8 648.9 254.85 637.85 270.55 637.85 286.2 637.85 297.25 648.9 Z"/>
</g>
</g>
</g>
</g>
</svg>