<svg xmlns="http://www.w3.org/2000/svg" version="1.1" xmlns:xlink="http://www.w3.org/1999/xlink" preserveAspectRatio="none" x="0px" y="0px" width="1000px" height="771px" viewBox="0 0 1000 771">
<defs/>

<g id="camera">
<g transform="matrix( 1.0170745849609375, 0, 0, 1.0167236328125, -0.05,-71.85) ">
<g>
<g>
<path fill="#FF797D" stroke="none" d="
M 212.35 146.8
Q 221.6037109375 147.1458984375 225.6 144.6 232.102734375 141.098828125 230.3 133.45
L 230.25 133.3
Q 230.2654296875 133.2341796875 230.25 133.15
L 230.15 132.85
Q 229.9173828125 132.11640625 229.5 131.5 213.130859375 103.4830078125 171.2 106.35 171.1626953125 106.3486328125 171.1 106.35 138.812890625 105.64296875 119.25 130.35
L 119.2 130.45
Q 118.8537109375 130.92890625 118.6 131.45 118.287890625 132.120703125 118.2 132.85 116.763671875 140.49296875 121.35 143.9 124.753125 147.343359375 133 146.8
L 212.35 146.8
M 684.65 139.95
Q 684.5990234375 139.721484375 684.5 139.5 661.55 88.35 626.5 74.7 626.234765625 74.5953125 625.95 74.5 614.92109375 70.82578125 596.7 70.75 596.25859375 70.65 595.75 70.65
L 405.65 70.75
Q 385.612109375 70.55390625 373.7 74.55
L 373.6 74.6
Q 373.4875 74.645703125 373.35 74.7
L 373.25 74.75
Q 338.3494140625 88.384765625 315.45 139.2 315.4017578125 139.3546875 315.3 139.5 293.16640625 189.3568359375 254 186.95 252.9875 186.898828125 252.05 187.2
L 80.7 187.2
Q 47.3 187.2 23.65 211.45 0.05 235.75 0.05 270.1
L 0.05 746.1
Q 0.05 780.45 23.65 804.7 47.3 829 80.7 829
L 902.6 829
Q 936.05 829 959.6 804.7 983.25 780.45 983.25 746.1
L 983.25 270.1
Q 983.25 235.75 959.6 211.45 936.05 187.2 902.6 187.2
L 747.75 187.2
Q 746.85 186.9 745.8 187 706.855078125 189.340625 684.65 139.95
M 796 295.75
Q 796 278.4 808.25 266.1 820.55 253.85 837.9 253.85 855.25 253.85 867.5 266.1 879.8 278.4 879.8 295.75 879.8 313.1 867.5 325.35 855.25 337.65 837.9 337.65 820.55 337.65 808.25 325.35 796 313.1 796 295.75
M 757.7 486.2
Q 757.7 595.2 680.65 672.3 603.6 749.3 494.6 749.3 385.55 749.3 308.55 672.3 231.5 595.2 231.5 486.2 231.5 377.2 308.55 300.2 385.55 223.1 494.6 223.1 603.6 223.1 680.65 300.2 757.7 377.2 757.7 486.2
M 628.45 352.4
Q 573 296.95 494.6 296.95 416.2 296.95 360.75 352.4 305.3 407.8 305.3 486.2 305.3 564.6 360.75 620.05 416.2 675.5 494.6 675.5 573 675.5 628.45 620.05 683.85 564.6 683.85 486.2 683.85 407.8 628.45 352.4 Z"/>
</g>
</g>
</g>
</g>
</svg>