<svg xmlns="http://www.w3.org/2000/svg" version="1.1" xmlns:xlink="http://www.w3.org/1999/xlink" preserveAspectRatio="none" x="0px" y="0px" width="1000px" height="1000px" viewBox="0 0 1000 1000">
<defs/>

<g id="check">
<g>
<g>
<g>
<path fill="#FF797D" stroke="none" d="
M 1000 500
Q 1000 292.9 853.55 146.45 707.1 0 500 0 292.9 0 146.45 146.45 0 292.9 0 500 0 707.1 146.45 853.55 292.9 1000 500 1000 707.1 1000 853.55 853.55 1000 707.1 1000 500
M 691.95 260.55
Q 708.3 269.45 713.6 287.3 718.85 305.1 710 321.5
L 487.6 730.6
Q 480.5 743.5 467.2 749.8 453.85 756.1 439.55 753.35 425.25 750.55 415.15 739.8
L 278.1 592.8
Q 265.35 579 266.05 560.45 266.75 541.9 280.45 529.2 294.1 516.45 312.65 517.15 331.2 517.85 343.95 531.45
L 438.35 632.75 630.95 278.5
Q 639.95 262.15 657.75 256.85 675.55 251.55 691.95 260.55 Z"/>
</g>
</g>
</g>
</g>
</svg>