<svg xmlns="http://www.w3.org/2000/svg" version="1.1" xmlns:xlink="http://www.w3.org/1999/xlink" preserveAspectRatio="none" x="0px" y="0px" width="1000px" height="1000px" viewBox="0 0 1000 1000">
<defs/>

<g id="circle">
<g transform="matrix( 1.0070953369140625, 0, 0, 1.0071563720703125, -4.4,-2.7) ">
<g>
<g>
<path fill="#FF797D" stroke="none" d="
M 997.3 499.15
Q 997.3 293.5 851.9 148.1 706.5 2.7 500.85 2.7 295.2 2.7 149.8 148.1 4.35 293.5 4.35 499.15 4.35 704.8 149.8 850.2 295.2 995.6 500.85 995.6 706.5 995.6 851.9 850.2 997.3 704.8 997.3 499.15
M 904.4 499.15
Q 904.4 666.3 786.2 784.5 668 902.7 500.85 902.7 333.7 902.7 215.5 784.5 97.3 666.3 97.3 499.15 97.3 332 215.5 213.8 333.7 95.6 500.85 95.6 668 95.6 786.2 213.8 904.4 332 904.4 499.15 Z"/>
</g>
</g>
</g>
</g>
</svg>