<svg xmlns="http://www.w3.org/2000/svg" version="1.1" xmlns:xlink="http://www.w3.org/1999/xlink" preserveAspectRatio="none" x="0px" y="0px" width="1000px" height="1000px" viewBox="0 0 1000 1000">
<defs/>

<g id="comment">
<g transform="matrix( 1.0000457763671875, 0, 0, 1, 0,0) ">
<g>
<g>
<path fill="#FF797D" stroke="none" d="
M 999.95 80.65
Q 999.95 47.25 977.05 23.6 954.15 0 921.75 0
L 78.2 0
Q 45.85 0 22.85 23.6 0 47.25 0 80.65
L 0 712.35
Q 0 745.75 22.85 769.35 45.85 792.95 78.2 792.95
L 253.6 792.95 253.6 953.3
Q 253.6 953.4 253.6 953.5
L 253.65 954
Q 254.4 986.55 278.05 996.8
L 278.5 997
Q 278.85 997.15 279.2 997.25 309.1 1009.2 338.15 969.15
L 468.35 792.95 921.75 792.95
Q 954.15 792.95 977.05 769.35 999.95 745.75 999.95 712.35
L 999.95 80.65 Z"/>
</g>
</g>
</g>
</g>
</svg>