<svg xmlns="http://www.w3.org/2000/svg" version="1.1" xmlns:xlink="http://www.w3.org/1999/xlink" preserveAspectRatio="none" x="0px" y="0px" width="1000px" height="950px" viewBox="0 0 1000 950">
<defs/>

<g id="comment2">
<g transform="matrix( 1.02398681640625, 0, 0, 1.0231170654296875, -6.8,-45.8) ">
<g>
<g>
<path fill="#FF797D" stroke="none" d="
M 983.2 450.8
Q 983.2 282.65 840.2 163.65 697.2 44.75 494.95 44.75 292.65 44.75 149.65 163.65 6.65 282.65 6.65 450.8 6.65 619 149.65 737.9 165.50234375 751.0861328125 182.05 762.8 195.5130859375 851.377734375 135.7 905.5 113.8005859375 920.0103515625 98.8 920.15
L 98.75 920.15
Q 98.6369140625 920.1490234375 98.5 920.15
L 98.3 920.15
Q 84.3783203125 920.676171875 78.75 928.1 72.581640625 935.12890625 75 948.7
L 75.05 949
Q 75.06171875 949.0625 75.05 949.1
L 75.1 949.25
Q 79.141796875 970.4701171875 106.25 973.2
L 106.35 973.2
Q 106.4177734375 973.221875 106.45 973.2 106.66484375 973.24609375 106.85 973.25
L 107.05 973.25
Q 134.4697265625 973.91796875 172.85 964.55 172.98828125 964.527734375 173.1 964.5 273.291015625 944.6953125 350.95 859.4
L 351.05 859.3
Q 364.0419921875 846.50390625 410.35 851.8 411.5796875 851.959765625 412.65 851.6 452.4958984375 856.85 494.95 856.85 697.2 856.85 840.2 737.9 983.2 619 983.2 450.8
M 775.65 401.3
Q 797.6 423.25 797.6 454.3 797.6 485.35 775.65 507.3 753.7 529.25 722.65 529.25 691.6 529.25 669.65 507.3 647.7 485.35 647.7 454.3 647.7 423.25 669.65 401.3 691.6 379.35 722.65 379.35 753.7 379.35 775.65 401.3
M 201.85 454.3
Q 201.85 423.25 223.8 401.3 245.75 379.35 276.8 379.35 307.85 379.35 329.8 401.3 351.75 423.25 351.75 454.3 351.75 485.35 329.8 507.3 307.85 529.25 276.8 529.25 245.75 529.25 223.8 507.3 201.85 485.35 201.85 454.3
M 552.1 507.3
Q 530.15 529.25 499.1 529.25 468.05 529.25 446.1 507.3 424.15 485.35 424.15 454.3 424.15 423.25 446.1 401.3 468.05 379.35 499.1 379.35 530.15 379.35 552.1 401.3 574.05 423.25 574.05 454.3 574.05 485.35 552.1 507.3 Z"/>
</g>
</g>
</g>
</g>
</svg>