<svg xmlns="http://www.w3.org/2000/svg" version="1.1" xmlns:xlink="http://www.w3.org/1999/xlink" preserveAspectRatio="none" x="0px" y="0px" width="893px" height="1000px" viewBox="0 0 893 1000">
<defs/>

<g id="copy">
<g transform="matrix( 1.0474090576171875, 0, 0, 1.047088623046875, -78.3,-29.9) ">
<g>
<g>
<path fill="#FF585D" stroke="none" d="
M 99.1 215.7
Q 74.75 239.6 74.75 273.35
L 74.75 902.1
Q 74.75 935.85 99.1 959.7 123.55 983.6 158.05 983.6
L 662.45 983.6
Q 696.95 983.6 721.3 959.7 745.7 935.85 745.7 902.1
L 745.7 901.8 256.45 901.8
Q 221.95 901.8 197.5 877.9 173.15 854.05 173.15 820.3
L 173.15 191.85 158.05 191.85
Q 123.55 191.85 99.1 215.7 Z"/>

<path fill="#FF797D" stroke="none" d="
M 670 28.7
Q 666.1 28.7 660.25 28.8 658.55 28.85 654.3 28.55
L 634.55 28.55
Q 633.8 28.6 633.05 28.65 632.3 28.7 631.6 28.55
L 339.7 28.55
Q 305.2 28.55 280.75 52.4 256.4 76.3 256.4 110.05
L 256.4 738.8
Q 256.4 772.55 280.75 796.4 305.2 820.3 339.7 820.3
L 844.1 820.3
Q 878.6 820.3 902.95 796.4 927.35 772.55 927.35 738.8
L 927.35 283.95
Q 924.75 272.55 916.1 261.25 914.1 258.3 911.4 255.6
L 910.75 254.95
Q 907.7 251.65 904.15 248.35
L 904.05 248.25
Q 903.85 248.05 903.7 247.85
L 694.75 38.95
Q 684.5 28.7 670 28.7
M 675.6 119
Q 675.9 119.2 676.2 119.4
L 841 284.2
Q 844.85 291.05 844.1 296.25 843 301.05 837.35 304.5 836.85 304.8 836.5 305.15 831.85 306.3 826.75 306.3
L 691.35 306.3
Q 675.35 306.3 664.05 295 652.8 283.75 652.8 267.75
L 652.8 132.35
Q 652.8 126.8 654.15 121.85 654.45 121.5 654.75 121.1 658.8 115.25 663.8 114.45 669.1 114.1 675.6 119 Z"/>
</g>
</g>
</g>
</g>
</svg>