<svg xmlns="http://www.w3.org/2000/svg" version="1.1" xmlns:xlink="http://www.w3.org/1999/xlink" preserveAspectRatio="none" x="0px" y="0px" width="1000px" height="1000px" viewBox="0 0 1000 1000">
<defs/>

<g id="cute">
<g>
<g>
<g>
<path fill="#FF797D" stroke="none" d="
M 1000 500
Q 1000 292.85 853.6 146.45 707.15 0 500 0 292.9 0 146.45 146.45 0 292.85 0 500 0 707.15 146.45 853.6 292.9 1000 500 1000 707.15 1000 853.6 853.6 1000 707.15 1000 500
M 794.4 205.65
Q 916.35 327.6 916.35 500 916.35 672.45 794.4 794.45 672.45 916.4 500 916.4 327.55 916.4 205.6 794.45 83.6 672.45 83.6 500 83.6 327.6 205.6 205.65 327.55 83.65 500 83.65 672.45 83.65 794.4 205.65
M 313.35 426.45
Q 287.35 426.45 268.95 444.85 250.55 463.25 250.55 489.25 250.55 515.25 268.95 533.65 287.35 552.05 313.35 552.05 339.4 552.05 357.75 533.65 376.15 515.25 376.15 489.25 376.15 463.25 357.75 444.85 339.4 426.45 313.35 426.45
M 664.4 647.7
Q 671.120703125 633.645703125 665.95 619.05 660.784375 604.460546875 646.75 597.7 632.752734375 590.98046875 618.15 596.15 603.5591796875 601.3224609375 596.8 615.25 583.418359375 643.1375 557.7 634.7 556.6248046875 634.319921875 555.55 633.95 540.6951171875 628.4416015625 532.3 611.85 526.7501953125 601.0330078125 515.95 595.45 505.19921875 589.9126953125 493.2 591.75 481.2509765625 593.5779296875 472.6 602.05 463.944140625 610.585546875 461.85 622.55 459.98984375 631.928515625 451.7 636.75 450.2873046875 636.8859375 448.8 637.1 423.13359375 640.7556640625 411.75 617.05 404.992578125 603.1142578125 390.4 597.95 375.796875 592.78046875 361.75 599.5 347.7654296875 606.2609375 342.6 620.85 337.426953125 635.4544921875 344.15 649.55 379.566015625 723.24375 459.75 711.3 462.80546875 710.8453125 465.6 710 472.6267578125 709.7375 479.6 706.6 493.5208984375 700.399609375 504.1 691.75 516.7013671875 700.411328125 531.7 705.05 620.098828125 740.009375 664.4 647.7
M 747.5 489.25
Q 747.5 463.25 729.1 444.85 710.7 426.45 684.7 426.45 658.7 426.45 640.25 444.85 621.9 463.25 621.9 489.25 621.9 515.25 640.25 533.65 658.7 552.05 684.7 552.05 710.7 552.05 729.1 533.65 747.5 515.25 747.5 489.25 Z"/>
</g>
</g>
</g>
</g>
</svg>