<svg xmlns="http://www.w3.org/2000/svg" version="1.1" xmlns:xlink="http://www.w3.org/1999/xlink" preserveAspectRatio="none" x="0px" y="0px" width="923px" height="1000px" viewBox="0 0 923 1000">
<defs/>

<g id="deletecount">
<g transform="matrix( 1.4591064453125, 0, 0, 1.4598236083984375, -289.35,-245) ">
<g>
<g>
<path fill="#FF797D" stroke="none" d="
M 525.35 179.6
Q 525.28359375 179.5681640625 525.2 179.5 481.7033203125 158.7064453125 437.9 174.9 437.7720703125 174.9564453125 437.65 175 374.181640625 195.7904296875 351 255.9 350.9275390625 256.117578125 350.85 256.35 329.35 318.4 350.9 373.85 351.0287109375 374.1849609375 351.2 374.45 354.234765625 380.50078125 352.1 382.95 352.0392578125 383.026171875 351.95 383.1 335.0142578125 396.4806640625 343.75 420.8 345.8349609375 444.3044921875 361.9 451.35 362.0970703125 451.4673828125 362.3 451.55 369.2513671875 454.1318359375 369.35 460.9
L 369.35 461
Q 368.78359375 488.130859375 404.15 522.85 404.2333984375 522.941015625 404.3 523 404.5611328125 523.27421875 404.9 523.5 409.416796875 526.4626953125 411.15 533.65
L 411.15 582.1
Q 411.275 591.5662109375 406.65 597.75 370.4087890625 630.6685546875 331.4 636.55 331.176171875 636.5595703125 330.95 636.6 317.36171875 639.0125 299.05 644.9 298.7103515625 644.9666015625 298.35 645.1 236.75 667.35 209.45 719.55 209.305078125 719.8087890625 209.2 720.05 197.7533203125 742.7515625 198.3 751.55 198.3216796875 752.183203125 198.55 752.8 202.0318359375 763.2951171875 216.3 762.7
L 487.25 763.25
Q 485.7755859375 759.785546875 484.45 756.25 472.7 724.880859375 472.7 688.65 472.7 609.65 528.6 553.75 538.0685546875 544.273046875 548.2 536.4 551.661328125 533.7044921875 555.2 531.2
L 555.2 528.1
Q 587.6095703125 509.1802734375 598.45 456.15 610.1564453125 455.0173828125 620 436.45 620.02734375 436.4013671875 620.05 436.35 638.5103515625 403.512109375 619.6 386.5 619.54609375 386.39609375 619.45 386.3 615.7822265625 381.8390625 619.3 367.55 619.370703125 367.4525390625 619.4 367.35 631.15 322.35 620.4 272.35 620.3458984375 272.1255859375 620.25 271.9 605.407421875 209.3759765625 565.65 213.45 565.4712890625 213.468359375 565.25 213.5 553.4 214.9 549.8 204.25 549.7693359375 204.1671875 549.7 204.05 545.5443359375 190.3669921875 525.45 179.65 525.3998046875 179.6259765625 525.35 179.6
M 782.2 569.2
Q 733.5 520.5 664.7 520.5 595.9 520.5 547.2 569.2 498.5 617.9 498.5 686.7 498.5 755.5 547.2 804.2 595.9 852.85 664.7 852.85 733.5 852.85 782.2 804.2 830.9 755.5 830.9 686.7 830.9 617.9 782.2 569.2
M 730.45 620.9
Q 737.8 628.2 737.8 638.55 737.85 648.85 730.6 656.2
L 701.5 685.5 730.6 714.8
Q 737.85 722.15 737.85 732.5 737.8 742.8 730.45 750.1 723.1 757.4 712.8 757.4 702.45 757.35 695.1 750
L 666.3 720.95 637.5 750
Q 630.15 757.35 619.8 757.4 609.5 757.4 602.15 750.1 594.8 742.8 594.75 732.5 594.75 722.15 602 714.8
L 631.05 685.5 602 656.2
Q 594.75 648.85 594.8 638.55 594.8 628.2 602.15 620.9 609.5 613.6 619.85 613.65 630.15 613.65 637.5 621
L 666.3 650 695.1 621
Q 702.45 613.65 712.75 613.65 723.1 613.6 730.45 620.9 Z"/>
</g>
</g>
</g>
</g>
</svg>