<svg xmlns="http://www.w3.org/2000/svg" version="1.1" xmlns:xlink="http://www.w3.org/1999/xlink" preserveAspectRatio="none" x="0px" y="0px" width="1000px" height="592px" viewBox="0 0 1000 592">
<defs/>

<g id="deploy">
<g transform="matrix( 0, -1.00048828125, 0.99969482421875, 0, -9.15,703.95) ">
<g>
<g>
<path fill="#FF797D" stroke="none" d="
M 677.2 162.9
Q 703.5 136.45 703.6 99.3 703.7 62.15 677.35 35.7 651 9.25 613.85 9.15 576.7 9.05 550.15 35.35
L 138.35 445.55
Q 133.987890625 449.9203125 130.35 454.6
L 115.25 484.15
Q 111.9353515625 495.9673828125 111.9 509.1 111.8994140625 509.3001953125 111.9 509.5 111.91484375 522.5568359375 115.2 534.3
L 130.35 563.95
Q 133.974609375 568.66640625 138.35 573.05
L 550.15 983.25
Q 576.7 1009.55 613.85 1009.45 651 1009.35 677.35 982.9 703.7 956.45 703.6 919.3 703.5 882.15 677.2 855.7
L 329.45 509.3 677.2 162.9 Z"/>
</g>
</g>
</g>
</g>
</svg>