<svg xmlns="http://www.w3.org/2000/svg" version="1.1" xmlns:xlink="http://www.w3.org/1999/xlink" preserveAspectRatio="none" x="0px" y="0px" width="1000px" height="687px" viewBox="0 0 1000 687">
<defs/>

<g id="earth">
<g transform="matrix( 1.0018768310546875, 0, 0, 1.0023040771484375, 0.9,-54.3) ">
<g>
<g>
<path fill="#FF797D" stroke="none" d="
M 255 107.25
L 254.8 107.2
Q 217.17109375 95.1162109375 162.05 97.7
L 161.95 97.7
Q 161.8923828125 97.696875 161.8 97.7
L 161.5 97.7
Q 160.917578125 97.7751953125 160.35 97.9 139.5046875 101.283203125 106.3 67.65 105.802734375 67.0716796875 105.15 66.6 104.48359375 66.10546875 103.75 65.8 63.536328125 45.3265625 29.7 66.25 -10.9490234375 88.2048828125 2.35 144.65 2.415234375 144.8951171875 2.45 145.15
L 19.05 215.2
Q 19.0791015625 215.414453125 19.1 215.6 19.2400390625 216.0783203125 19.4 216.5 19.7271484375 217.3822265625 20.25 218.1 31.7630859375 237.0548828125 31.9 280.3
L 31.9 280.45
Q 31.8990234375 280.547265625 31.9 280.6 31.903125 281.2521484375 32 281.85 37.9001953125 335.425390625 79.4 360.65
L 80 361
Q 80.501171875 361.295703125 81 361.45 113.801953125 375.3865234375 126.05 416.1 130.2451171875 437.90625 136.7 447.95 143.8560546875 466.198046875 144.1 483.5
L 144.1 705
Q 142.558984375 719.374609375 150.75 727.7 157.8529296875 735.7619140625 173.7 738.05 195.53203125 744.4365234375 215.45 724.1
L 215.6 723.9
Q 215.7375 723.8017578125 215.85 723.65
L 216 723.45
Q 264.153515625 668.973046875 301.05 600.55 301.256640625 600.2515625 301.4 599.9 309.276953125 583.3587890625 325.1 564.1 346.626953125 543.09140625 340 470.6 339.7623046875 449.5837890625 304.9 409.75 304.83828125 409.675 304.75 409.6 276.9138671875 375.8123046875 250 376.7
L 193.7 376.7
Q 173.9443359375 370.2869140625 175.85 346.85
L 175.85 346.75
Q 175.8677734375 346.6841796875 175.85 346.6 175.9029296875 346.2708984375 175.9 345.95 175.9001953125 345.8978515625 175.9 345.85
L 175.9 345.7
Q 175.8283203125 326.3037109375 181.55 316.95 186.337109375 309.9685546875 195.65 310.45 255.3123046875 322.037109375 282.65 278.05 282.74140625 277.9607421875 282.8 277.85 304.507421875 245.7462890625 309.2 211.45 309.2548828125 211.340625 309.25 211.2 319.9810546875 136.7470703125 256 107.65
L 255.8 107.55
Q 255.7666015625 107.5599609375 255.7 107.55 255.375 107.3951171875 255 107.25
M 879.85 574.8
L 826.4 574.8
Q 807.4650390625 573.3677734375 796.8 591.5
L 796.65 591.8
Q 796.5603515625 591.9595703125 796.45 592.1
L 756.75 669.75
Q 756.4806640625 670.272265625 756.25 670.85 744.0396484375 700.447265625 773.2 723.8 785.0546875 736.4345703125 798.15 735.7 810.8220703125 735.7361328125 824.4 722.8
L 824.5 722.7
Q 824.5466796875 722.651171875 824.6 722.6
L 824.85 722.35
Q 825.11796875 722.0619140625 825.35 721.75 829.9306640625 716.812109375 842.8 713.25 843.3416015625 713.1375 843.85 712.9
L 844.5 712.65
Q 873.0494140625 700.287109375 903.6 725.45 904.082421875 725.93671875 904.65 726.3 905.38203125 726.790625 906.15 727.05 937.5814453125 741.1697265625 954.7 715.15 954.8412109375 714.992578125 954.95 714.8 968.17734375 694.508203125 955.1 671.7
L 914.3 594.8
Q 906.1958984375 574.6453125 879.85 574.8
M 915.25 64.85
L 915.1 64.8
Q 812.765234375 43.3767578125 751.6 65 751.5697265625 65.0109375 751.5 65 723.38359375 73.8369140625 675.25 72.15 622.2470703125 65.794140625 608.9 138.75 602.51015625 151.9947265625 553.3 149.1 552.7359375 149.0349609375 552.15 149.05 528.809765625 148.7234375 519.7 111.95 519.623046875 111.486328125 519.45 111 507.753125 72.6318359375 461.05 81.95 460.92890625 81.973046875 460.75 82 441.610546875 84.9443359375 413.45 113.6
L 413.35 113.7
Q 413.2962890625 113.7529296875 413.25 113.8 413.221875 113.8291015625 413.2 113.85
L 412.65 114.45
Q 412.3931640625 114.8255859375 412.15 115.2 404.33671875 126.812890625 393.3 133.6 377.1978515625 141.20625 374.5 185 374.484375 185.1296875 374.45 185.25 373.3685546875 199.363671875 380.75 205.95 387.296484375 212.9857421875 401.75 212.35
L 453.25 212.35
Q 472.1546875 213.3412109375 474.1 229.35
L 473.2 265.7
Q 473.2009765625 265.7314453125 473.2 265.75 473.2 265.862109375 473.2 265.95
L 473.2 266.1
Q 473.1478515625 273.1693359375 469.05 276.55 463.6845703125 280.0673828125 453.15 279.45 452.72109375 279.4 452.25 279.4
L 412.25 279.4
Q 411.7419921875 279.3642578125 411.2 279.4
L 410.65 279.45 410.5 279.5
Q 381.88515625 283.3966796875 374.15 322.1 362.7630859375 370.53671875 394.75 384.55 395.39921875 384.839453125 396 385 430.3265625 396.760546875 441.4 421 455.7732421875 476.196484375 458.35 554.75
L 458.35 555.15
Q 459.1544921875 582.4830078125 471.4 595.45 483.7646484375 609.494140625 507.8 608.3
L 508.05 608.3
Q 508.22421875 608.289453125 508.35 608.25
L 508.55 608.25
Q 540.8380859375 605.5037109375 552.45 567.2 552.51328125 567.0876953125 552.55 566.95 574.470703125 502.5150390625 589.45 420.2
L 589.5 420.05
Q 589.516796875 419.9970703125 589.5 419.95 589.5720703125 419.7046875 589.6 419.45
L 589.6 419.3
Q 595.2984375 375.216796875 658.15 377.3
L 658.45 377.3
Q 697.36953125 379.0880859375 755.75 419.1 798.0611328125 458.2166015625 849.25 442.25 849.397265625 442.2111328125 849.5 442.15 892.1037109375 430.161328125 901.65 344.1 901.6591796875 343.9990234375 901.65 343.9 907.8982421875 304.502734375 884 296.3 868.636328125 286.6587890625 865.4 239.6
L 865.4 239.45
Q 865.4310546875 239.4029296875 865.4 239.3 865.4173828125 239.17578125 865.4 239
L 865.35 238.75
Q 863.591796875 222.5466796875 868.8 214.95 874.11328125 208.9958984375 885.85 210.1 931.580078125 217.31484375 964.45 182.45 964.525390625 182.3748046875 964.6 182.3 1015.84765625 131.00859375 986.65 96.5 974.4376953125 77.1802734375 915.45 64.9
L 915.25 64.85 Z"/>
</g>
</g>
</g>
</g>
</svg>