<svg xmlns="http://www.w3.org/2000/svg" version="1.1" xmlns:xlink="http://www.w3.org/1999/xlink" preserveAspectRatio="none" x="0px" y="0px" width="1000px" height="1000px" viewBox="0 0 1000 1000">
<defs/>

<g id="embed">
<g>
<g>
<g>
<path fill="#FF797D" stroke="none" d="
M 919.45 80.55
Q 838.9 0 725 0
L 275 0
Q 161.1 0 80.55 80.55 0 161.1 0 275
L 0 725
Q 0 838.9 80.55 919.45 161.1 1000 275 1000
L 725 1000
Q 838.9 1000 919.45 919.45 1000 838.9 1000 725
L 1000 275
Q 1000 161.1 919.45 80.55
M 702.7 341.35
Q 696.55 332.7 698.3 322.35 700 311.95 708.65 305.8 717.25 299.6 727.65 301.35 738.05 303.05 744.3 311.7
L 866.4 482.75
Q 868.2 484.95 869.4 487.5 872.3 493.2 871.95 499.7 871.85 504.35 869.95 508.7 868.65 511.85 866.5 514.5
L 746.1 684.75
Q 739.9 693.4 729.5 695.15 719.1 696.9 710.5 690.8 701.8 684.65 700.05 674.25 698.3 663.85 704.35 655.25
L 815.1 498.75 702.7 341.35
M 538.9 191.9
Q 547.65 186 558.05 188.05 568.3 190.1 574.25 198.95 580.15 207.7 578.1 218.05
L 464.1 791.85
Q 462 802.15 453.2 808.1 444.4 814 434.05 811.95 423.75 809.9 417.85 801.1 411.9 792.25 414 781.9
L 528 208.1
Q 530.05 197.85 538.9 191.9
M 301.7 322.35
Q 303.45 332.7 297.25 341.35
L 184.95 498.75 295.6 655.25
Q 301.7 663.85 299.9 674.25 298.15 684.65 289.45 690.8 280.9 696.9 270.5 695.15 260.1 693.4 253.9 684.75
L 133.55 514.55
Q 131.35 511.85 130.05 508.7 128.15 504.4 128.05 499.7 127.7 493.2 130.6 487.5 131.8 484.9 133.65 482.7
L 255.7 311.7
Q 261.95 303.05 272.35 301.35 282.75 299.6 291.3 305.8 299.95 311.95 301.7 322.35 Z"/>
</g>
</g>
</g>
</g>
</svg>