<svg xmlns="http://www.w3.org/2000/svg" version="1.1" xmlns:xlink="http://www.w3.org/1999/xlink" preserveAspectRatio="none" x="0px" y="0px" width="1000px" height="663px" viewBox="0 0 1000 663">
<defs/>

<g id="eye">
<g transform="matrix( 1.1068878173828125, 0, 0, 1.099700927734375, -79.65,-230) ">
<g>
<g>
<path fill="#FF797D" stroke="none" d="
M 586.65 357.05
Q 555.9 326.3 512.4 326.3 468.9 326.3 438.15 357.05 407.4 387.8 407.4 431.3 407.4 474.8 438.15 505.55 468.9 536.3 512.4 536.3 555.9 536.3 586.65 505.55 617.4 474.8 617.4 431.3 617.4 387.8 586.65 357.05
M 966.5 541.1
Q 957.70234375 532.344921875 945.3 532.35 932.9509765625 532.4015625 924.1 541.2 861.9009765625 603.80390625 791.6 650.2 790.9203125 650.725 790.15 651.25 636.0025390625 766.884765625 475.05 749.45 296.36796875 728.1875 129.6 563.15 120.6958984375 554.4455078125 108.3 554.5 95.9470703125 554.5984375 87.2 563.45 78.4505859375 572.3017578125 78.5 584.65 78.60078125 597.0580078125 87.4 605.8 270.8318359375 787.3123046875 468.25 809.05
L 468.3 809.05
Q 650.873828125 830.3453125 825.3 699.9 900.2724609375 650.3205078125 966.65 583.5 975.4056640625 574.6546875 975.35 562.25 975.34609375 549.9015625 966.5 541.1
M 932.75 481.6
Q 945.12421875 481.37578125 953.75 472.4 962.3736328125 463.4263671875 962.1 451.05 961.87265625 438.6826171875 952.9 430 729.2044921875 215.0283203125 519.2 209.15 518.5650390625 209.1509765625 518.05 209.15 303.463671875 208.4013671875 81.15 421.1 72.215234375 429.7234375 71.9 442.1 71.6322265625 454.471875 80.2 463.45 88.8216796875 472.4810546875 101.2 472.75 113.57578125 473.066015625 122.65 464.45 324.401953125 271.42265625 517.8 269.15 707.6658203125 277.52734375 911.35 473.25 920.3765625 481.866796875 932.75 481.6
M 761.45 384.85
Q 752.076953125 376.6599609375 739.7 377.5 727.3837890625 378.3337890625 719.2 387.7 711.0087890625 397.0671875 711.8 409.35 719.201953125 525.4947265625 621.25 597.05 521.534765625 655.5259765625 421.8 604.65 323.4484375 547.7806640625 317.85 425.85 317.2294921875 413.4755859375 308 405.1 298.7662109375 396.7748046875 286.4 397.4 274.0322265625 398.0224609375 265.65 407.25 257.32265625 416.490234375 257.9 428.85 266.1357421875 584.377734375 392.45 657 393.073828125 657.3109375 393.65 657.65 523.3287109375 724.798046875 653 648 654.16953125 647.2533203125 655.25 646.5 781.85625 554.9197265625 771.65 405.4 770.8171875 393.0396484375 761.45 384.85 Z"/>
</g>
</g>
</g>
</g>
</svg>