<svg xmlns="http://www.w3.org/2000/svg" version="1.1" xmlns:xlink="http://www.w3.org/1999/xlink" preserveAspectRatio="none" x="0px" y="0px" width="1000px" height="1000px" viewBox="0 0 1000 1000">
<defs/>

<g id="follow">
<g>
<g>
<g>
<path fill="#FF797D" stroke="none" d="
M 1000 500
Q 1000 292.9 853.55 146.4 707.1 0 500 0 292.9 0 146.4 146.4 0 292.9 0 500 0 707.1 146.4 853.5 292.9 1000 500 1000 707.1 1000 853.55 853.5 1000 707.1 1000 500
M 774.15 342.45
Q 774.35 342.85 774.6 343.3 807.25 416.4 774.85 501.3 774.8 501.4 774.75 501.55 746.3 571.85 691.55 617.25
L 691.55 617.3
Q 612.65 682.8 532.15 736.85 499.2 761.3 467.75 736.6 406.25 696.1 339.4 644.75
L 339.4 644.7
Q 263.45 586.55 229.9 511.5
L 229.85 511.4
Q 193.85 429.3 219.95 355.35 220.1 354.95 220.25 354.6 257.2 266.85 357.1 251.55 357.65 251.45 358.2 251.45 445.95 245.65 500.05 313.75 554.25 247.1 640.95 252.95 641.2 252.95 641.45 253 731.2 262.7 774.15 342.45 Z"/>
</g>
</g>
</g>
</g>
</svg>