<svg xmlns="http://www.w3.org/2000/svg" version="1.1" xmlns:xlink="http://www.w3.org/1999/xlink" preserveAspectRatio="none" x="0px" y="0px" width="730px" height="1000px" viewBox="0 0 730 1000">
<defs/>

<g id="form">
<g transform="matrix( 1.013214111328125, 0, 0, 1.0125579833984375, -148.9,-12.55) ">
<g>
<g>
<path fill="#FF797D" stroke="none" d="
M 867.45 234.95
Q 867.45 187.65 834.55 154.15 801.65 120.7 755.2 120.7
L 613.25 120.7
Q 613.25 120.0265625 613.25 119.35 613.25 75.05 581.9 43.7 550.6 12.4 506.3 12.4 462.05 12.4 430.65 43.7 399.35 75.05 399.35 119.35 399.35 120.0265625 399.35 120.7
L 259.2 120.7
Q 212.7 120.7 179.85 154.1
L 179.8 154.15
Q 146.95 187.65 146.95 234.95
L 146.95 885.75
Q 146.95 933.05 179.85 966.55 212.7 1000 259.2 1000
L 755.2 1000
Q 801.65 1000 834.5 966.6 834.55 966.55 834.6 966.5 867.45 933.05 867.45 885.75
L 867.45 234.95
M 776.85 212.9
Q 785.85 222 785.85 234.95
L 785.85 885.75
Q 785.85 898.65 776.85 907.8
L 776.8 907.85
Q 767.85 916.95 755.2 916.95
L 259.2 916.95
Q 246.5 916.95 237.5 907.85 228.55 898.7 228.55 885.75
L 228.55 234.95
Q 228.55 222.05 237.45 212.95 237.5 212.9 237.55 212.85 246.55 203.75 259.2 203.75
L 324.2 203.75
Q 338.2080078125 262.238671875 387.25 267.35 387.8359375 267.447265625 388.4 267.45 388.5123046875 267.4513671875 388.6 267.45
L 621.15 267.9
Q 621.4861328125 267.915234375 621.8 267.9 669.119140625 266.285546875 689.2 203.75
L 755.2 203.75
Q 767.9 203.75 776.85 212.9
M 504.4 87.8
Q 519.8 87.8 530.7 98.7 540.0458984375 108.0458984375 541.35 120.7 541.6 122.804296875 541.6 125 541.6 140.4 530.7 151.3 519.8 162.2 504.4 162.2 489 162.2 478.1 151.3 467.2 140.4 467.2 125 467.2 122.804296875 467.4 120.7 468.7541015625 108.0458984375 478.1 98.7 489 87.8 504.4 87.8
M 514.15 489.7
Q 513.7921875 490.0421875 513.5 490.4
L 358.85 647.4
Q 339.730859375 665.7431640625 353.4 683.1
L 353.7 683.45
Q 354.0240234375 683.8595703125 354.35 684.15
L 413.25 743.05
Q 413.638671875 743.437890625 414.05 743.75 436.1439453125 761.7736328125 456.8 742.1
L 457 741.95
Q 457.0498046875 741.9001953125 457.1 741.85
L 617.65 581.25 617.85 581.1 618.15 580.75
Q 618.3076171875 580.58828125 618.45 580.4 618.6068359375 580.1904296875 618.75 579.95 633.04453125 560.4935546875 618.85 540.95 618.457421875 540.257421875 617.85 539.65
L 563.15 484.95
Q 562.54765625 484.34765625 561.85 483.9 539.15 467.758984375 514.15 489.7
M 298.3 747.4
L 288.95 791.4
Q 288.7509765625 792.1400390625 288.7 792.9 288.070703125 803.59609375 294.6 808.2 299.7537109375 812.7794921875 310.55 812 311.352734375 812.0328125 312.15 811.8
L 312.6 811.7 312.65 811.7 350.75 800.6
Q 351.624609375 800.43125 352.4 800 352.9904296875 799.6994140625 353.45 799.3 363.562109375 791.7716796875 363.35 782.3 363.899609375 773.6818359375 354.95 763.65 354.7232421875 763.3736328125 354.45 763.1
L 333.35 742
Q 333.1533203125 741.8037109375 332.95 741.6 332.9080078125 741.5890625 332.85 741.55
L 332.75 741.45
Q 322.7578125 733.09296875 314.7 734.05 305.705859375 734.2193359375 299.35 744.6
L 299.2 744.85
Q 299.2029296875 744.8869140625 299.15 744.9 299.1572265625 744.95625 299.15 745
L 298.8 745.7
Q 298.42890625 746.5552734375 298.3 747.4
M 720.3 426
Q 720.013671875 423.941796875 718.45 422.4
L 678.8 383.65
Q 657.02890625 361.7623046875 629 382.85 628.684765625 383.0892578125 628.35 383.35
L 601.9 405.8
Q 601.5826171875 406.09453125 601.3 406.4 586.73203125 420.412109375 601.05 437.05
L 601.15 437.15
Q 601.1974609375 437.2158203125 601.25 437.25 601.3919921875 437.441796875 601.55 437.6
L 661.1 497.15
Q 661.349609375 497.4296875 661.65 497.7 678.4458984375 512.322265625 692.5 497.65 692.84375 497.3587890625 693.15 497
L 715.6 470.55
Q 715.97265625 470.11328125 716.25 469.65 734.305078125 445.5064453125 720.3 426 Z"/>
</g>
</g>
</g>
</g>
</svg>