<svg xmlns="http://www.w3.org/2000/svg" version="1.1" xmlns:xlink="http://www.w3.org/1999/xlink" preserveAspectRatio="none" x="0px" y="0px" width="1000px" height="1000px" viewBox="0 0 1000 1000">
<defs/>

<g id="googlemaps">
<g transform="matrix( 1, 0, 0, 1, -0.05,-0.05) ">
<g>
<g>
<path fill="#FF797D" stroke="none" d="
M 453.3 634.9
Q 452.85 634.6 452.5 634.2 447.25 628.9 442.55 628.4 438.2 628.4 433.95 632.85 433.4 633.35 432.8 633.75
L 91.1 974.9
Q 90.95 975.3 90.75 975.65 85.6 985.3 88 991.4 91.25 997.2 102.65 999.95 102.8 1000 103 1000.05 103.3 1000.05 103.6 1000.05
L 775.7 1000.05
Q 780.45 1000.05 785.05 999.65 785.8 999.15 786.7 998.9 796.8 996.25 799.35 991.1 801.05 985.5 795.5 976.7 795.25 976.45 795.15 976.15
L 453.3 634.9
M 998.55 290.8
L 998.55 290.7
Q 1000.05 275.85 1000.05 260.3 1000.05 152.55 925.5 76.3 851 0.05 745.5 0.05 640 0.05 565.45 76.3 544.15 98.05 529 122.35
L 103.6 122.35
Q 60.65 122.35 30.35 153 0.05 183.8 0.05 227.25
L 0.05 895.2
Q 0.05 902.95 1.05 910.3 1.1 910.4 1.15 910.55 4.6 918.45 10.5 920.65 16.7 922.4 25.65 918.6
L 497.75 447.3
Q 498.4 447.05 499.05 446.6 508.85 439.1 516.5 440.95 524.25 443.6 530.15 455.95 530.4 456.45 530.75 456.85 537.9 476.85 546.45 497.6 546.5 497.75 546.6 498 553.35 513.65 542.7 524.05 542.45 524.25 542.3 524.5
L 513.45 553.3
Q 513.15 553.85 512.7 554.3 504.6 563.75 513.8 573.05 514.6 573.85 515.05 574.85
L 855.1 914.35
Q 855.5 914.6 855.9 914.85 863.75 920.4 869.4 919.35 874.7 917.55 878.35 909.1 878.4 908.95 878.5 908.75 879.25 902.15 879.25 895.2
L 879.25 635.1
Q 988.25 442.55 998.55 290.8
M 917.8 277.4
Q 917.8 277.45 917.8 277.5 907.85 423.4 767.55 623.2
L 767.4 623.35
Q 767.4 623.4 767.35 623.4 767.15 623.65 767 623.9
L 766.75 624.1
Q 754.9 638.25 742 638.25 729.3 639.05 715.9 625.85
L 715.8 625.8
Q 715.75 625.75 715.7 625.7
L 715.25 625.2
Q 714.9 624.65 714.55 624.1 576.55 421.4 564.35 281.05 562.85 268.9 562.85 256.15 562.85 180.8 614.95 127.55 667.1 74.25 740.85 74.25 814.55 74.25 866.7 127.55 918.85 180.8 918.85 256.15 918.85 267.05 917.8 277.4
M 329.3 234.15
Q 333.85 237 337.1 240.8 341.95 246.5 343.8 254.35 346.85 267.4 339.75 278.85 332.6 290.3 319.55 293.4 310.25 295.55 301.75 292.6 298.3 291.4 295.05 289.4
L 283 281.95
Q 281.15 280.75 279.5 279.5 263.6 273.05 245.05 273.05 207.15 273.05 180.35 299.85 153.55 326.65 153.55 364.6 153.55 402.5 180.35 429.3 207.15 456.1 245.05 456.1 282.95 456.1 309.75 429.3
L 309.8 429.25
Q 322.7 416.35 329.4 400.85
L 269.7 400.85
Q 256.25 400.85 246.75 391.35 237.2 381.8 237.2 368.35 237.2 354.9 246.75 345.4 256.25 335.85 269.7 335.85
L 321.2 335.85
Q 321.8 335.95 322.45 335.95
L 379.25 335.7
Q 381.15 336.05 382.9 336.55 395.1 340.1 398.7 352.05 399.15 358.2 399.15 364.6 399.15 402.85 382.9 434.45 372.05 455.5 354 473.55 308.9 518.7 245.05 518.7 181.25 518.7 136.1 473.55 90.95 428.4 90.95 364.6 90.95 300.75 136.05 255.65
L 136.1 255.6
Q 181.25 210.5 245.05 210.5 277.35 210.5 304.9 222.05
L 317.9 227.65 329.3 234.15
M 767.45 178.1
Q 754 172.55 738.35 172.55 706.15 172.55 683.4 195.85 660.65 219.1 660.65 252.05 660.65 267 665.4 280 671 295.5 683.4 308.15 705.2 330.5 735.7 331.4 737 331.45 738.35 331.45 770.55 331.45 793.35 308.15 816.05 284.9 816.05 252.05 816.05 251.6 816.05 251.15 815.75 218.8 793.35 195.85 781.65 183.9 767.45 178.1 Z"/>
</g>
</g>
</g>
</g>
</svg>