<svg xmlns="http://www.w3.org/2000/svg" version="1.1" xmlns:xlink="http://www.w3.org/1999/xlink" preserveAspectRatio="none" x="0px" y="0px" width="772px" height="1000px" viewBox="0 0 772 1000">
<defs/>

<g id="info">
<g transform="matrix( 1.0655517578125, 0, 0, 1.06787109375, -172.1,-21.5) ">
<g>
<g>
<path fill="#FF797D" stroke="none" d="
M 862.7 43.25
Q 844.205078125 24.834765625 819.55 21.1 813.312109375 20.15 806.65 20.15
L 240.8 20.15
Q 234.137890625 20.15 227.85 21.1 203.234765625 24.834765625 184.7 43.25 161.5 66.4 161.5 99.05
L 161.5 810.45
Q 161.5 843.1 184.7 866.15 207.95 889.3 240.8 889.3
L 443.9 889.3 500.4 945.8
Q 501.1177734375 946.516796875 501.85 947.05 524.1177734375 964.5060546875 546.45 949.95 547.2306640625 949.5029296875 547.95 948.9
L 548.2 948.65
Q 548.428125 948.4716796875 548.6 948.25
L 607.6 889.3 806.65 889.3
Q 839.5 889.3 862.7 866.15 886 843.1 886 810.45
L 886 99.05
Q 886 66.4 862.7 43.25
M 467.2 281.65
Q 467.2 256.75 484.7 239.2 502.3 221.65 527.2 221.65 552.05 221.65 569.6 239.2 587.2 256.75 587.2 281.65 587.2 306.5 569.6 324.05 552.05 341.65 527.2 341.65 502.3 341.65 484.7 324.05 467.2 306.5 467.2 281.65
M 556.25 404.1
Q 568.7 416.55 568.7 434.15
L 568.7 634.8
Q 568.7 652.4 556.25 664.85 543.8 677.3 526.2 677.3 508.6 677.3 496.15 664.85 483.7 652.4 483.7 634.8
L 483.7 434.15
Q 483.7 416.55 496.15 404.1 508.6 391.65 526.2 391.65 543.8 391.65 556.25 404.1 Z"/>
</g>
</g>
</g>
</g>
</svg>