<svg xmlns="http://www.w3.org/2000/svg" version="1.1" xmlns:xlink="http://www.w3.org/1999/xlink" preserveAspectRatio="none" x="0px" y="0px" width="1000px" height="1000px" viewBox="0 0 1000 1000">
<defs/>

<g id="language">
<g>
<g>
<g>
<path fill="#FF797D" stroke="none" d="
M 1000 82.85
Q 1000 48.55 978.1 24.25 956.2 0 925.2 0
L 74.8 0
Q 43.85 0 21.9 24.25 0 48.55 0 82.85
L 0 707.55
Q 0 741.85 21.9 766.1 43.85 790.35 74.8 790.35
L 255.45 790.35 255.45 961.35
Q 255 990.6 287.85 999.75 288.3 999.9 288.8 999.95
L 289 1000
Q 289.3 1000 289.6 1000
L 289.75 1000
Q 315.8 999.55 334.3 976.5
L 334.35 976.4
Q 334.4 976.3 334.45 976.25
L 472.5 790.35 925.2 790.35
Q 956.2 790.35 978.1 766.1 1000 741.85 1000 707.55
L 1000 82.85
M 779.4 263.8
Q 790.35 274.85 790.35 290.45
L 790.35 335.65 879.85 335.65
Q 895.4 335.65 906.4 346.7 917.3 357.7 917.3 373.35 917.3 389 906.4 400.05 895.4 411.05 879.85 411.05
L 860.85 411.05
Q 846.1 500.7 806.8 558.45
L 859.3 599.35
Q 871.5 608.9 873.55 624.3 875.5 639.75 866 652.15 856.5 664.5 841.2 666.55 825.85 668.55 813.5 659
L 754.7 613.2
Q 701.25 653.15 622.95 660.75 607.55 662.35 595.5 652.55 583.35 642.75 581.7 627.25 580.05 611.8 589.8 599.65 599.55 587.4 614.9 585.75 657.05 580.45 689.25 562.25
L 647.75 529.95
Q 635.55 520.35 633.55 504.9 631.55 489.45 641 477.1 650.5 464.7 665.85 462.7 681.15 460.7 693.55 470.25
L 745.3 510.55
Q 772.75 470.95 784.65 411.05
L 625.95 411.05
Q 610.4 411.05 599.5 400.05 588.5 389 588.5 373.35 588.5 357.7 599.5 346.7 610.4 335.65 625.95 335.65
L 715.45 335.65 715.45 290.45
Q 715.45 274.85 726.45 263.8 737.4 252.75 752.9 252.75 768.45 252.75 779.4 263.8
M 220.6 146.9
Q 220.6 146.8 220.65 146.7
L 221.25 145.4
Q 223.35 141.1 226.15 137.65
L 238.1 128.35
Q 239.55 127.55 241.15 126.95 242.1 126.6 243 126.3
L 260.85 124.75 267.8 126.7
Q 268.3 126.85 268.8 127.1 270.4 127.7 271.9 128.5
L 283.9 138.1
Q 286.5 141.35 288.45 145.35
L 289.05 146.65
Q 289.15 146.95 289.3 147.25
L 415.55 445.85
Q 421.65 460.3 415.85 474.7 410 489.15 395.75 495.35 381.45 501.45 367.1 495.65 352.8 489.75 346.65 475.4
L 336.95 452.55 170.05 452.55 159.25 477.55
Q 153 491.8 138.6 497.55 124.2 503.3 110 497 95.75 490.7 90.05 476.25 84.4 461.75 90.6 447.4
L 220.6 146.9
M 202.65 377.1
L 305.05 377.1 254.45 257.4 202.65 377.1 Z"/>
</g>
</g>
</g>
</g>
</svg>