<svg xmlns="http://www.w3.org/2000/svg" version="1.1" xmlns:xlink="http://www.w3.org/1999/xlink" preserveAspectRatio="none" x="0px" y="0px" width="1000px" height="1000px" viewBox="0 0 1000 1000">
<defs/>

<g id="link">
<g>
<g>
<g>
<path fill="#FF797D" stroke="none" d="
M 919.45 80.55
Q 838.9 0 725 0
L 275 0
Q 161.1 0 80.55 80.55 0 161.1 0 275
L 0 725
Q 0 838.9 80.55 919.45 161.1 1000 275 1000
L 725 1000
Q 838.9 1000 919.45 919.45 1000 838.9 1000 725
L 1000 275
Q 1000 161.1 919.45 80.55
M 778.3 142.6
Q 779.8 143.25 781.3 144.15 855.7 189.65 871.85 268.95 871.95 269.5 872.05 270.05 893.15 384.45 764.05 477.15 698.6 535.95 621.85 523 610.65 521.15 604 512 597.3 502.8 599.15 491.65 600.95 480.5 610.15 473.8 619.3 467.15 630.45 468.95 683.25 476.7 728.5 435.5 729.75 434.4 731.05 433.4 829.35 363.3 818.05 279.15 805.9 224.05 754.15 191.8 684 161.55 619.95 215.05
L 549.55 289
Q 510.5 339.35 544.1 418.1
L 624.6 337.6
Q 632.6 329.6 643.9 329.6 655.2 329.55 663.3 337.55 671.3 345.6 671.35 356.9 671.35 368.2 663.35 376.3
L 557 482.7
Q 556.2 483.5 555.3 484.35
L 484.5 555.2
Q 483.65 556.1 482.8 556.95
L 379.3 660.35
Q 371.3 668.35 359.95 668.35 348.6 668.35 340.55 660.35 332.55 652.35 332.55 641 332.55 629.65 340.55 621.6
L 418.1 544.1
Q 339.35 510.5 289 549.55
L 215.1 619.95
Q 161.55 684 191.85 754.2 224.1 805.9 279.2 818.05 363.3 829.35 433.4 731.05 434.4 729.75 435.5 728.5 476.7 683.25 468.95 630.45 467.15 619.3 473.8 610.15 480.5 600.95 491.65 599.15 502.8 597.3 512 604 521.15 610.65 523 621.85 535.95 698.6 477.15 764.05 384.45 893.15 270.1 872.05 269.55 871.95 269 871.85 189.7 855.75 144.2 781.3 143.3 779.8 142.6 778.3 95.55 676.05 174.4 583.3 175.35 582.25 176.4 581.2
L 251.85 509.25
Q 252.45 508.7 253 508.2 331.55 437.65 459.45 502.9
L 502.9 459.4
Q 437.7 331.55 508.2 253 508.7 252.45 509.25 251.85
L 581.2 176.4
Q 582.25 175.35 583.3 174.4 676.05 95.55 778.3 142.6 Z"/>
</g>
</g>
</g>
</g>
</svg>