<svg xmlns="http://www.w3.org/2000/svg" version="1.1" xmlns:xlink="http://www.w3.org/1999/xlink" preserveAspectRatio="none" x="0px" y="0px" width="1000px" height="842px" viewBox="0 0 1000 842">
<defs/>

<g id="list">
<g transform="matrix( 1.040252685546875, 0, 0, 1.0372314453125, -6.3,0) ">
<g>
<g>
<path fill="#FF797D" stroke="none" d="
M 146.3 671.6
Q 122.2 647.5 88.2 647.5 54.2 647.5 30.15 671.6 6.05 695.65 6.05 729.65 6.05 763.65 30.15 787.75 54.2 811.8 88.2 811.8 122.2 811.8 146.3 787.75 170.35 763.65 170.35 729.65 170.35 695.65 146.3 671.6
M 146.3 348.85
Q 122.2 324.75 88.2 324.75 54.2 324.75 30.15 348.85 6.05 372.9 6.05 406.9 6.05 440.9 30.15 465 54.2 489.05 88.2 489.05 122.2 489.05 146.3 465 170.35 440.9 170.35 406.9 170.35 372.9 146.3 348.85
M 146.3 24.1
Q 122.2 0 88.2 0 54.2 0 30.15 24.1 6.05 48.15 6.05 82.15 6.05 116.15 30.15 140.25 54.2 164.3 88.2 164.3 122.2 164.3 146.3 140.25 170.35 116.15 170.35 82.15 170.35 48.15 146.3 24.1
M 967.35 727.3
Q 967.35 710.75 955.65 699.05 943.9 687.3 927.35 687.3
L 367.4 687.3
Q 350.85 687.3 339.15 699.05 327.4 710.75 327.4 727.3 327.4 743.85 339.15 755.6 350.85 767.3 367.4 767.3
L 927.35 767.3
Q 943.9 767.3 955.65 755.6 967.35 743.85 967.35 727.3
M 955.65 376.3
Q 943.9 364.55 927.35 364.55
L 367.4 364.55
Q 350.85 364.55 339.15 376.3 327.4 388 327.4 404.55 327.4 421.1 339.15 432.85 350.85 444.55 367.4 444.55
L 927.35 444.55
Q 943.9 444.55 955.65 432.85 967.35 421.1 967.35 404.55 967.35 388 955.65 376.3
M 967.35 79.8
Q 967.35 63.25 955.65 51.55 943.9 39.8 927.35 39.8
L 367.4 39.8
Q 350.85 39.8 339.15 51.55 327.4 63.25 327.4 79.8 327.4 96.35 339.15 108.1 350.85 119.8 367.4 119.8
L 927.35 119.8
Q 943.9 119.8 955.65 108.1 967.35 96.35 967.35 79.8 Z"/>
</g>
</g>
</g>
</g>
</svg>