<svg xmlns="http://www.w3.org/2000/svg" version="1.1" xmlns:xlink="http://www.w3.org/1999/xlink" preserveAspectRatio="none" x="0px" y="0px" width="1000px" height="1000px" viewBox="0 0 1000 1000">
<defs/>

<g id="lock">
<g transform="matrix( 1.00030517578125, 0, 0, 1.000244140625, -0.6,0.5) ">
<g>
<g>
<path fill="#FF797D" stroke="none" d="
M 1000.3 499.35
Q 1000.3 292.3 853.9 145.85 707.5 -0.5 500.45 -0.5 293.4 -0.5 146.95 145.85 0.6 292.3 0.6 499.35 0.6 706.4 146.95 852.8 293.4 999.25 500.45 999.25 707.5 999.25 853.9 852.8 1000.3 706.4 1000.3 499.35
M 803.15 196.6
Q 928.6 322.05 928.6 499.35 928.6 676.7 803.15 802.05 677.8 927.5 500.45 927.5 323.1 927.5 197.7 802.05 72.3 676.7 72.3 499.35 72.3 322.05 197.7 196.6 323.1 71.2 500.45 71.2 677.8 71.2 803.15 196.6
M 666.4 374.85
L 666.4 302.65
Q 666.4 299.55 665.95 296.7 661.3 238.6 618.9 196.15 609.3 186.55 598.9 178.9 557.7 148.55 503.9 148.55 450.15 148.55 408.95 178.9 398.55 186.55 388.95 196.15 346.5 238.6 341.9 296.65 341.4 299.55 341.4 302.65
L 341.4 374.85 314.1 374.85
Q 285.8 374.85 265.7 395.1 245.7 415.35 245.7 443.95
L 245.7 738.75
Q 245.7 767.4 265.7 787.6 285.8 807.85 314.1 807.85
L 692.1 807.85
Q 720.45 807.85 740.45 787.6 760.55 767.4 760.55 738.75
L 760.55 443.95
Q 760.55 415.35 740.45 395.1 720.45 374.85 692.1 374.85
L 666.4 374.85
M 411.8 303.15
Q 412 300.5 412.35 297.9 416.3 268.05 438.6 245.8 465.65 218.7 503.9 218.7 542.15 218.7 569.25 245.8 591.15 267.7 595.35 297 596.3 303.85 596.3 311.1 596.3 314.1 596.25 318.3
L 596.25 374.85 411.35 374.85 411.45 309.35
Q 411.6 306 411.7 304.55 411.75 303.85 411.8 303.15
M 536.55 528.05
Q 550.55 542.05 550.55 561.8 550.55 581.55 536.55 595.5 532.183984375 599.881640625 527.25 602.9
L 527.25 653.15
Q 527.25 663.5 519.95 670.85 512.6 678.15 502.25 678.15 491.9 678.15 484.6 670.85 477.25 663.5 477.25 653.15
L 477.25 602.15
Q 472.95703125 599.35703125 469.1 595.5 455.15 581.55 455.15 561.8 455.15 542.05 469.1 528.05 483.1 514.1 502.85 514.1 522.6 514.1 536.55 528.05 Z"/>
</g>
</g>
</g>
</g>
</svg>