<svg xmlns="http://www.w3.org/2000/svg" version="1.1" xmlns:xlink="http://www.w3.org/1999/xlink" preserveAspectRatio="none" x="0px" y="0px" width="1000px" height="916px" viewBox="0 0 1000 916">
<defs/>

<g id="logout">
<g transform="matrix( 1.000244140625, 0, 0, 1.00006103515625, -0.25,-19.4) ">
<g>
<g>
<path fill="#FF797D" stroke="none" d="
M 1000 109.95
Q 1000 72.45 973.5 45.95 947 19.4 909.5 19.4
L 90.7 19.4
Q 53.25 19.4 26.75 45.95 0.25 72.45 0.25 109.95
L 0.25 844.85
Q 0.25 882.3 26.75 908.85 53.25 935.35 90.7 935.35
L 909.5 935.35
Q 947 935.35 973.5 908.85 1000 882.3 1000 844.85
L 1000 109.95
M 551.7 134.55
Q 580.65 161.95 580.65 200.75
L 580.65 762.2
Q 580.65 800.95 551.7 828.4 522.7 855.8 481.75 855.8
L 182.95 855.8
Q 142 855.8 113.05 828.4 84.1 800.95 84.1 762.2
L 84.1 200.75
Q 84.1 161.95 113.05 134.55 142 107.1 182.95 107.1
L 481.75 107.1
Q 522.7 107.1 551.7 134.55
M 331.6 392.05
Q 331.6029296875 391.9630859375 331.6 391.85
L 331.6 391.75
Q 330.458984375 359.9697265625 309.85 356.1 292.6732421875 350.7640625 267.05 375.2
L 266.95 375.3
Q 266.912890625 375.3625 266.85 375.4
L 193.3 448.45
Q 177.3833984375 463.64609375 178.2 481.1 178.2263671875 481.801171875 178.4 482.4 178.23203125 482.9951171875 178.2 483.65 177.4013671875 501.171875 193.35 516.35
L 266.9 589.4
Q 266.925 589.425 266.95 589.45 266.9900390625 589.4890625 267 589.5
L 267.1 589.6
Q 292.6060546875 613.9384765625 309.75 608.7 309.80078125 608.690234375 309.85 608.65
L 309.85 608.65
Q 330.4404296875 604.87734375 331.6 573.1
L 331.6 572.95
Q 331.5990234375 572.9375 331.6 572.9 331.6017578125 572.8248046875 331.6 572.75
L 331.6 520.25 456.35 520.25
Q 472.9 520.25 484.65 508.55 496.35 496.8 496.35 480.25 496.35 463.7 484.65 452 472.9 440.25 456.35 440.25
L 331.6 440.25 331.6 392.05 Z"/>
</g>
</g>
</g>
</g>
</svg>