<svg xmlns="http://www.w3.org/2000/svg" version="1.1" xmlns:xlink="http://www.w3.org/1999/xlink" preserveAspectRatio="none" x="0px" y="0px" width="1000px" height="655px" viewBox="0 0 1000 655">
<defs/>

<g id="mail">
<g transform="matrix( 1, 0, 0, 1, 0,-0.9) ">
<g>
<path stroke="#FF797D" stroke-width="55" stroke-linejoin="round" stroke-linecap="round" fill="none" d="
M 946 54
Q 971.5 79.65 971.5 115.9
L 971.5 540.9
Q 971.5 577.1 946 602.7 945.05 603.65 944.05 604.6 919.1 628.35 884.5 628.35
L 114.55 628.35
Q 81.3 628.35 57.1 606.6 55 604.7 53 602.7 27.5 577.1 27.5 540.9
L 27.5 115.9
Q 27.5 79.65 53 54 54.1 52.9 55.2 51.85 80 28.35 114.55 28.35
L 884.5 28.35
Q 920.5 28.35 946 54
L 668.35 328.7 944.05 604.6
M 55.2 51.85
L 332.25 330.75 376.6 375.5
Q 448.45 430.6 505.45 429.45
M 511.3 430.1
Q 570.65 428.2 618.85 377.7
L 668.35 328.7
M 57.1 606.6
L 332.25 330.75"/>
</g>
</g>
</g>
</svg>