<svg xmlns="http://www.w3.org/2000/svg" version="1.1" xmlns:xlink="http://www.w3.org/1999/xlink" preserveAspectRatio="none" x="0px" y="0px" width="1000px" height="1000px" viewBox="0 0 1000 1000">
<defs/>

<g id="paw">
<g transform="matrix( 1, 0, 0, 0.999847412109375, 0,0.15) ">
<g>
<g>
<path fill="#FF797D" stroke="none" d="
M 152.1 373.6
Q 127.1 336.15 91.85 336.15 56.55 336.15 31.6 373.6 6.65 411.05 6.65 463.95 6.65 516.9 31.6 554.3 56.55 591.75 91.85 591.75 127.1 591.75 152.1 554.3 177.05 516.9 177.05 463.95 177.05 411.05 152.1 373.6
M 444.45 172.15
Q 444.45 100.75 410.8 50.3 377.2 -0.15 329.6 -0.15 282 -0.15 248.35 50.3 214.7 100.75 214.7 172.15 214.7 243.55 248.35 294 282 344.45 329.6 344.45 377.2 344.45 410.8 294 444.45 243.55 444.45 172.15
M 799.55 622
Q 727.45 581.5 695.45 518.7 681.9 473.55 646.05 437.7 588.4 380.05 506.95 380.05 425.45 380.05 367.85 437.7 337.35 468.15 323.05 505.2 286.9 574.4 197.6 624.5 168.15 638.65 143.15 663.65 85.5 721.25 85.5 802.7 85.5 884.2 143.15 941.85 190.45 989.1 253.75 997.6 261.7 1000 270.7 1000
L 695.75 1000
Q 700.4 1000 704.75 999.4 713.05 1000 721.65 1000 803.15 1000 860.75 942.4 918.4 884.75 918.4 803.3 918.4 721.8 860.75 664.2 832.95 636.35 799.55 622
M 914.8 335.6
Q 879.5 335.6 854.55 373.05 829.6 410.5 829.6 463.4 829.6 516.35 854.55 553.75 879.5 591.2 914.8 591.2 950.05 591.2 975.05 553.75 1000 516.35 1000 463.4 1000 410.5 975.05 373.05 950.05 335.6 914.8 335.6
M 796.5 176.6
Q 796.5 105.2 762.85 54.75 729.15 4.3 681.6 4.3 634 4.3 600.35 54.75 566.7 105.2 566.7 176.6 566.7 248 600.35 298.45 634 348.95 681.6 348.95 729.15 348.95 762.85 298.45 796.5 248 796.5 176.6 Z"/>
</g>
</g>
</g>
</g>
</svg>