
<svg xmlns="http://www.w3.org/2000/svg" version="1.1" xmlns:xlink="http://www.w3.org/1999/xlink" preserveAspectRatio="none" x="0px" y="0px" width="1000px" height="1000px" viewBox="0 0 1000 1000">
<defs/>

<g id="pawc">
<g>
<g>
<g>
<path fill="#FF797D" stroke="none" d="#FF797D
M 1000 500
Q 1000 292.85 853.6 146.4 707.15 0 500 0 292.85 0 146.45 146.4 0 292.85 0 500 0 707.15 146.45 853.55 292.85 1000 500 1000 707.15 1000 853.6 853.55 1000 707.15 1000 500
M 757.5 381.25
Q 776 353.45 802.25 353.45 828.4 353.45 846.95 381.25 865.5 409.05 865.5 448.3 865.5 487.6 846.95 515.4 828.4 543.2 802.25 543.2 776 543.2 757.5 515.4 738.95 487.6 738.95 448.3 738.95 409.05 757.5 381.25
M 714.4 235.4
Q 714.4 288.4 689.4 325.85 664.4 363.35 629.1 363.35 593.75 363.35 568.75 325.85 543.75 288.4 543.75 235.4 543.75 182.4 568.75 144.95 593.75 107.5 629.1 107.5 664.4 107.5 689.4 144.95 714.4 182.4 714.4 235.4
M 762.1 597.4
Q 804.9 640.15 804.9 700.65 804.9 761.1 762.1 803.9 719.35 846.65 658.8 846.65 652.45 846.65 646.25 846.25 643.05 846.65 639.6 846.65
L 324 846.65
Q 317.3 846.65 311.4 844.9 264.4 838.6 229.3 803.5 186.5 760.7 186.5 700.2 186.5 639.75 229.3 596.95 247.85 578.4 269.7 567.9 336 530.7 362.85 479.35 373.5 451.85 396.15 429.25 438.9 386.45 499.4 386.45 559.9 386.45 602.7 429.25 629.3 455.85 639.35 489.35 663.15 536 716.65 566.05 741.45 576.7 762.1 597.4
M 367.75 104.2
Q 403.05 104.2 428 141.65 453 179.1 453 232.1 453 285.1 428 322.55 403.05 360 367.75 360 332.4 360 307.4 322.55 282.4 285.1 282.4 232.1 282.4 179.1 307.4 141.65 332.4 104.2 367.75 104.2
M 191.2 353.85
Q 217.35 353.85 235.95 381.65 254.45 409.45 254.45 448.7 254.45 488.05 235.95 515.8 217.35 543.6 191.2 543.6 165 543.6 146.45 515.8 127.95 488.05 127.95 448.7 127.95 409.45 146.45 381.65 165 353.85 191.2 353.85 Z"/>
</g>
</g>
</g>
</g>
</svg>
