<svg xmlns="http://www.w3.org/2000/svg" version="1.1" xmlns:xlink="http://www.w3.org/1999/xlink" preserveAspectRatio="none" x="0px" y="0px" width="1000px" height="1000px" viewBox="0 0 1000 1000">
<defs/>

<g id="pawquestion">
<g>
<g>
<g>
<path fill="#FF797D" stroke="none" d="
M 798.2 622.05
Q 725.6 581.55 693.4 518.75 679.75 473.65 643.7 437.8 585.65 380.15 503.65 380.15 421.6 380.15 363.6 437.8 332.9 468.25 318.5 505.25 282.1 574.45 192.2 624.55 162.6 638.7 137.4 663.7 79.35 721.3 79.35 802.75 79.35 884.2 137.4 941.85 185.05 989.1 248.75 997.6 256.75 1000 265.8 1000
L 693.7 1000
Q 698.4 1000 702.75 999.4 711.15 1000 719.8 1000 801.85 1000 859.8 942.4 917.85 884.75 917.85 803.35 917.85 721.85 859.8 664.25 831.85 636.4 798.2 622.05
M 499.15 844.35
Q 513.65 844.35 523.9 854.55 534.15 864.85 534.15 879.35 534.15 893.8 523.9 904.05 513.65 914.35 499.15 914.35 484.7 914.35 474.4 904.05 464.15 893.8 464.15 879.35 464.15 864.85 474.4 854.55 484.7 844.35 499.15 844.35
M 565.15 514.4
Q 565.5 514.6 565.8 514.8 566.0734375 514.9458984375 566.3 515.1 567.325 515.7625 568.3 516.4 568.9763671875 516.8728515625 569.6 517.35 631.18359375 562.3095703125 619.05 647.05 619 647.45 618.95 647.85 618.9091796875 648.0712890625 618.85 648.3 618.852734375 648.4474609375 618.8 648.6 618.6931640625 649.4349609375 618.5 650.25 618.474609375 650.4998046875 618.4 650.75 618.3375 651.1375 618.25 651.5 605.2197265625 711.9046875 552.3 732.9 535.409375 745.758984375 534 776.2 533.3302734375 790.6326171875 522.6 800.4 511.8748046875 810.21484375 497.45 809.55 483.019140625 808.8796875 473.2 798.15 463.434375 787.423046875 464.05 773 467.521875 697.845703125 518.6 671.35 519.7505859375 670.66953125 520.95 670.05
L 522.15 669.5
Q 523.564453125 668.8763671875 524.95 668.35 544.6419921875 659.9400390625 549.75 637 555.463671875 596.3037109375 528.05 573.75 502.658203125 559.124609375 475.65 570.25 474.5880859375 571.0009765625 473.4 571.65 448.323046875 586.8072265625 446.15 619.1 445.1642578125 633.5669921875 434.2 643.1 423.2994140625 652.6802734375 408.9 651.7 394.4869140625 650.7146484375 384.9 639.75 375.3701171875 628.8455078125 376.3 614.45 381.0771484375 543.087109375 438.65 510.9 440.085546875 510.1205078125 441.5 509.45 444.3470703125 507.5375 447.65 506.1 508.2716796875 480.1744140625 565.15 514.4
M 914.25 335.7
Q 878.7 335.7 853.55 373.15 828.45 410.6 828.45 463.5 828.45 516.4 853.55 553.8 878.7 591.25 914.25 591.25 949.7 591.25 974.9 553.8 1000 516.4 1000 463.5 1000 410.6 974.9 373.15 949.7 335.7 914.25 335.7
M 146.4 373.7
Q 121.25 336.25 85.75 336.25 50.25 336.25 25.1 373.7 0 411.15 0 464.05 0 516.95 25.1 554.35 50.25 591.8 85.75 591.8 121.25 591.8 146.4 554.35 171.55 516.95 171.55 464.05 171.55 411.15 146.4 373.7
M 406.85 50.45
Q 373.05 0 325.1 0 277.2 0 243.3 50.45 209.45 100.9 209.45 172.25 209.45 243.65 243.3 294.1 277.2 344.55 325.1 344.55 373.05 344.55 406.85 294.1 440.75 243.65 440.75 172.25 440.75 100.9 406.85 50.45
M 761.25 54.9
Q 727.35 4.45 679.45 4.45 631.55 4.45 597.65 54.9 563.8 105.35 563.8 176.7 563.8 248.1 597.65 298.55 631.55 349.05 679.45 349.05 727.35 349.05 761.25 298.55 795.15 248.1 795.15 176.7 795.15 105.35 761.25 54.9 Z"/>
</g>
</g>
</g>
</g>
</svg>