
<svg xmlns="http://www.w3.org/2000/svg" version="1.1" xmlns:xlink="http://www.w3.org/1999/xlink" preserveAspectRatio="none" x="0px" y="0px" width="1000px" height="1000px" viewBox="0 0 1000 1000">
<defs/>

<g id="picture">
<g transform="matrix( 1.0913238525390625, 0, 0, 1.08001708984375, -47.9,-34.95) ">
<g>
<g>
<path fill="#FF797D" stroke="none" d="
M 423.75 877.35
Q 422.2705078125 877.250390625 420.75 877.25
L 414.75 877.25
Q 413.2294921875 877.250390625 411.75 877.35 410.2705078125 877.250390625 408.75 877.25
L 402.75 877.25
Q 401.2294921875 877.250390625 399.75 877.35 398.2705078125 877.250390625 396.75 877.25
L 390.75 877.25
Q 389.2294921875 877.250390625 387.75 877.35 386.2705078125 877.250390625 384.75 877.25
L 378.75 877.25
Q 377.2294921875 877.250390625 375.75 877.35 374.2705078125 877.250390625 372.75 877.25
L 366.75 877.25
Q 365.2294921875 877.250390625 363.75 877.35 362.2705078125 877.250390625 360.75 877.25
L 354.75 877.25
Q 353.2294921875 877.250390625 351.75 877.35 350.2705078125 877.250390625 348.75 877.25
L 342.75 877.25
Q 326.1857421875 877.2546875 314.45 888.95 302.7546875 900.6857421875 302.75 917.25 302.7546875 933.8142578125 314.45 945.5 326.1857421875 957.2453125 342.75 957.25
L 348.75 957.25
Q 350.2705078125 957.249609375 351.75 957.15 353.2294921875 957.249609375 354.75 957.25
L 360.75 957.25
Q 362.2705078125 957.249609375 363.75 957.15 365.2294921875 957.249609375 366.75 957.25
L 372.75 957.25
Q 374.2705078125 957.249609375 375.75 957.15 377.2294921875 957.249609375 378.75 957.25
L 384.75 957.25
Q 386.2705078125 957.249609375 387.75 957.15 389.2294921875 957.249609375 390.75 957.25
L 396.75 957.25
Q 398.2705078125 957.249609375 399.75 957.15 401.2294921875 957.249609375 402.75 957.25
L 408.75 957.25
Q 410.2705078125 957.249609375 411.75 957.15 413.2294921875 957.249609375 414.75 957.25
L 420.75 957.25
Q 422.2705078125 957.249609375 423.75 957.15 425.2294921875 957.249609375 426.75 957.25
L 432.75 957.25
Q 434.2705078125 957.249609375 435.75 957.15 437.2294921875 957.249609375 438.75 957.25
L 444.75 957.25
Q 446.2705078125 957.249609375 447.75 957.15 449.2294921875 957.249609375 450.75 957.25
L 454.7 957.25
Q 471.2642578125 957.2453125 482.95 945.5 494.6953125 933.8142578125 494.7 917.25 494.6953125 900.6857421875 482.95 888.95 471.2642578125 877.2546875 454.7 877.25
L 450.75 877.25
Q 449.2294921875 877.250390625 447.75 877.35 446.2705078125 877.250390625 444.75 877.25
L 438.75 877.25
Q 437.2294921875 877.250390625 435.75 877.35 434.2705078125 877.250390625 432.75 877.25
L 426.75 877.25
Q 425.2294921875 877.250390625 423.75 877.35
M 574.6 877.25
L 568.6 877.25
Q 552.05 877.25 540.35 889 528.6 900.7 528.6 917.25 528.6 933.8 540.35 945.55 552.05 957.25 568.6 957.25
L 574.6 957.25
Q 576.1 957.25 577.6 957.15 579.1 957.25 580.6 957.25
L 586.6 957.25
Q 588.1 957.25 589.6 957.15 591.1 957.25 592.6 957.25
L 598.6 957.25
Q 600.1 957.25 601.6 957.15 603.1 957.25 604.6 957.25
L 610.6 957.25
Q 612.1 957.25 613.6 957.15 615.1 957.25 616.6 957.25
L 622.6 957.25
Q 624.1 957.25 625.6 957.15 627.1 957.25 628.6 957.25
L 634.6 957.25
Q 636.1 957.25 637.6 957.15 639.1 957.25 640.6 957.25
L 646.6 957.25
Q 648.1 957.25 649.6 957.15 651.1 957.25 652.6 957.25
L 658.6 957.25
Q 660.1 957.25 661.6 957.15 663.1 957.25 664.6 957.25
L 670.6 957.25
Q 672.1 957.25 673.6 957.15 675.1 957.25 676.6 957.25
L 682.6 957.25
Q 699.15 957.25 710.9 945.55 722.6 933.8 722.6 917.25 722.6 900.7 710.9 889 699.15 877.25 682.6 877.25
L 676.6 877.25
Q 675.1 877.25 673.6 877.35 672.1 877.25 670.6 877.25
L 664.6 877.25
Q 663.1 877.25 661.6 877.35 660.1 877.25 658.6 877.25
L 652.6 877.25
Q 651.1 877.25 649.6 877.35 648.1 877.25 646.6 877.25
L 640.6 877.25
Q 639.1 877.25 637.6 877.35 636.1 877.25 634.6 877.25
L 628.6 877.25
Q 627.1 877.25 625.6 877.35 624.1 877.25 622.6 877.25
L 616.6 877.25
Q 615.1 877.25 613.6 877.35 612.1 877.25 610.6 877.25
L 604.6 877.25
Q 603.1 877.25 601.6 877.35 600.1 877.25 598.6 877.25
L 592.6 877.25
Q 591.1 877.25 589.6 877.35 588.1 877.25 586.6 877.25
L 580.6 877.25
Q 579.1 877.25 577.6 877.35 576.1 877.25 574.6 877.25
M 44.25 788.95
Q 44.25 790.45 44.35 791.95 44.25 793.45 44.25 794.95
L 44.25 800.95
Q 44.25 802.45 44.35 803.95 44.25 805.45 44.25 806.95
L 44.25 812.95
Q 44.25 814.45 44.35 815.95 44.25 817.45 44.25 818.95
L 44.25 824.95
Q 44.25 826.45 44.35 827.95 44.25 829.45 44.25 830.95
L 44.25 837.35
Q 44.1974609375 840.5041015625 44.25 843.55 44.2861328125 845.628515625 44.5 847.6 44.47265625 849.487890625 44.6 851.4 44.8724609375 855.49296875 45.35 859.45 45.62734375 861.7111328125 46.1 863.85 46.2998046875 865.82109375 46.65 867.8 47.5013671875 872.2244140625 48.6 876.45 49.1365234375 878.40546875 49.8 880.2 50.353515625 882.7546875 51.25 885.3 52.7953125 889.691015625 54.65 893.85 55.6052734375 895.9818359375 56.7 897.9 57.6125 900.0533203125 58.75 902.15 61.2236328125 906.6708984375 64.1 910.85 65.41171875 912.6802734375 66.8 914.3 68.28671875 916.57578125 70.1 918.7 73.1083984375 922.265625 76.4 925.55 78.39453125 927.54609375 80.5 929.15 82.155078125 930.8580078125 84.05 932.4 87.8140625 935.4482421875 91.9 938.15 93.8015625 939.433203125 95.75 940.45 97.631640625 941.7982421875 99.7 942.95 103.5880859375 945.1375 107.75 947.05 109.80625 948.0232421875 111.85 948.7 113.8974609375 949.761328125 116.1 950.6 119.8533203125 952.005078125 123.85 953.25 126.06796875 953.973046875 128.25 954.4 129.912109375 955.0103515625 131.65 955.45 136.0005859375 956.6 140.55 957.4 144.5142578125 958.1341796875 148.3 958.1 150.0806640625 958.25 151.9 958.25
L 157.9 958.25
Q 159.4 958.25 160.9 958.15 162.4 958.25 163.9 958.25
L 169.9 958.25
Q 171.4 958.25 172.9 958.15 174.4 958.25 175.9 958.25
L 181.9 958.25
Q 183.4 958.25 184.9 958.15 186.4 958.25 187.9 958.25
L 193.9 958.25
Q 195.4 958.25 196.9 958.15 198.4 958.25 199.9 958.25
L 205.9 958.25
Q 207.4 958.25 208.9 958.15 210.4 958.25 211.9 958.25
L 217.9 958.25
Q 219.4 958.25 220.9 958.15 222.4 958.25 223.9 958.25
L 229.9 958.25
Q 246.45 958.25 258.2 946.55 269.9 934.8 269.9 918.25 269.9 901.7 258.2 890 246.45 878.25 229.9 878.25
L 223.9 878.25
Q 222.4 878.25 220.9 878.35 219.4 878.25 217.9 878.25
L 211.9 878.25
Q 210.4 878.25 208.9 878.35 207.4 878.25 205.9 878.25
L 199.9 878.25
Q 198.4 878.25 196.9 878.35 195.4 878.25 193.9 878.25
L 187.9 878.25
Q 186.4 878.25 184.9 878.35 183.4 878.25 181.9 878.25
L 175.9 878.25
Q 174.4 878.25 172.9 878.35 171.4 878.25 169.9 878.25
L 163.9 878.25
Q 162.4 878.25 160.9 878.35 159.4 878.25 157.9 878.25
L 152.65 878.25
Q 152.1865234375 878.1423828125 151.7 878 150.53515625 877.714453125 149.35 877.45 148.6970703125 877.2408203125 148 877 146.046484375 876.394921875 144.2 875.7 143.537890625 875.45 142.85 875.2 142.17421875 874.8642578125 141.45 874.5 140.0119140625 873.8625 138.65 873.1 138.1787109375 872.8498046875 137.65 872.6 137.0044921875 872.0982421875 136.3 871.6 135.2857421875 870.9515625 134.35 870.2 133.8828125 869.8255859375 133.4 869.45 133.1953125 869.2451171875 132.95 869 131.9916015625 868.034375 131.1 866.95 130.9349609375 866.7822265625 130.75 866.6 130.3369140625 865.91796875 129.85 865.25 129.3763671875 864.52890625 128.95 863.75 128.6076171875 863.1296875 128.25 862.5 128.009765625 861.9388671875 127.75 861.35 127.2046875 860.1091796875 126.75 858.8 126.5693359375 858.292578125 126.35 857.8 126.194140625 856.96171875 125.95 856.1 125.5986328125 854.6755859375 125.3 853.15 125.1265625 852.13125 124.85 851.1 124.8263671875 850.485546875 124.75 849.85 124.52734375 848.0068359375 124.4 846.1 124.334765625 845.154296875 124.2 844.2 124.2646484375 843.1978515625 124.25 842.15 124.2189453125 840.34296875 124.2 838.45
L 124.25 837.6
Q 124.2546875 837.2865234375 124.25 836.95
L 124.25 830.95
Q 124.25 829.45 124.15 827.95 124.25 826.45 124.25 824.95
L 124.25 818.95
Q 124.25 817.45 124.15 815.95 124.25 814.45 124.25 812.95
L 124.25 806.95
Q 124.25 805.45 124.15 803.95 124.25 802.45 124.25 800.95
L 124.25 794.95
Q 124.25 793.45 124.15 791.95 124.25 790.45 124.25 788.95
L 124.25 782.95
Q 124.25 781.45 124.15 779.95 124.25 778.45 124.25 776.95
L 124.25 770.95
Q 124.25 754.4 112.55 742.7 100.8 730.95 84.25 730.95 67.7 730.95 56 742.7 44.25 754.4 44.25 770.95
L 44.25 776.95
Q 44.25 778.45 44.35 779.95 44.25 781.45 44.25 782.95
L 44.25 788.95
M 55.9 515.5
Q 44.2046875 527.2357421875 44.2 543.8
L 44.2 548.85
Q 44.200390625 550.3705078125 44.3 551.85 44.200390625 553.3294921875 44.2 554.85
L 44.2 560.85
Q 44.200390625 562.3705078125 44.3 563.85 44.200390625 565.3294921875 44.2 566.85
L 44.2 572.85
Q 44.200390625 574.3705078125 44.3 575.85 44.200390625 577.3294921875 44.2 578.85
L 44.2 584.85
Q 44.200390625 586.3705078125 44.3 587.85 44.200390625 589.3294921875 44.2 590.85
L 44.2 596.85
Q 44.200390625 598.3705078125 44.3 599.85 44.200390625 601.3294921875 44.2 602.85
L 44.2 608.85
Q 44.200390625 610.3705078125 44.3 611.85 44.200390625 613.3294921875 44.2 614.85
L 44.2 620.85
Q 44.200390625 622.3705078125 44.3 623.85 44.200390625 625.3294921875 44.2 626.85
L 44.2 632.85
Q 44.200390625 634.3705078125 44.3 635.85 44.200390625 637.3294921875 44.2 638.85
L 44.2 644.85
Q 44.2046875 661.4142578125 55.9 673.1 67.6357421875 684.8453125 84.2 684.85 100.7642578125 684.8453125 112.45 673.1 124.1953125 661.4142578125 124.2 644.85
L 124.2 638.85
Q 124.199609375 637.3294921875 124.1 635.85 124.199609375 634.3705078125 124.2 632.85
L 124.2 626.85
Q 124.199609375 625.3294921875 124.1 623.85 124.199609375 622.3705078125 124.2 620.85
L 124.2 614.85
Q 124.199609375 613.3294921875 124.1 611.85 124.199609375 610.3705078125 124.2 608.85
L 124.2 602.85
Q 124.199609375 601.3294921875 124.1 599.85 124.199609375 598.3705078125 124.2 596.85
L 124.2 590.85
Q 124.199609375 589.3294921875 124.1 587.85 124.199609375 586.3705078125 124.2 584.85
L 124.2 578.85
Q 124.199609375 577.3294921875 124.1 575.85 124.199609375 574.3705078125 124.2 572.85
L 124.2 566.85
Q 124.199609375 565.3294921875 124.1 563.85 124.199609375 562.3705078125 124.2 560.85
L 124.2 554.85
Q 124.199609375 553.3294921875 124.1 551.85 124.199609375 550.3705078125 124.2 548.85
L 124.2 543.8
Q 124.1953125 527.2357421875 112.45 515.5 100.7642578125 503.8046875 84.2 503.8 67.6357421875 503.8046875 55.9 515.5
M 44.3 338.75
Q 44.200390625 340.2294921875 44.2 341.75
L 44.2 347.75
Q 44.200390625 349.2705078125 44.3 350.75 44.200390625 352.2294921875 44.2 353.75
L 44.2 359.75
Q 44.200390625 361.2705078125 44.3 362.75 44.200390625 364.2294921875 44.2 365.75
L 44.2 371.75
Q 44.200390625 373.2705078125 44.3 374.75 44.200390625 376.2294921875 44.2 377.75
L 44.2 383.75
Q 44.200390625 385.2705078125 44.3 386.75 44.200390625 388.2294921875 44.2 389.75
L 44.2 395.75
Q 44.200390625 397.2705078125 44.3 398.75 44.200390625 400.2294921875 44.2 401.75
L 44.2 407.75
Q 44.200390625 409.2705078125 44.3 410.75 44.200390625 412.2294921875 44.2 413.75
L 44.2 419.75
Q 44.200390625 421.2705078125 44.3 422.75 44.200390625 424.2294921875 44.2 425.75
L 44.2 431.75
Q 44.200390625 433.2705078125 44.3 434.75 44.200390625 436.2294921875 44.2 437.75
L 44.2 443.75
Q 44.2046875 460.3142578125 55.9 472 67.6357421875 483.7453125 84.2 483.75 100.7642578125 483.7453125 112.45 472 124.1953125 460.3142578125 124.2 443.75
L 124.2 437.75
Q 124.199609375 436.2294921875 124.1 434.75 124.199609375 433.2705078125 124.2 431.75
L 124.2 425.75
Q 124.199609375 424.2294921875 124.1 422.75 124.199609375 421.2705078125 124.2 419.75
L 124.2 413.75
Q 124.199609375 412.2294921875 124.1 410.75 124.199609375 409.2705078125 124.2 407.75
L 124.2 401.75
Q 124.199609375 400.2294921875 124.1 398.75 124.199609375 397.2705078125 124.2 395.75
L 124.2 389.75
Q 124.199609375 388.2294921875 124.1 386.75 124.199609375 385.2705078125 124.2 383.75
L 124.2 377.75
Q 124.199609375 376.2294921875 124.1 374.75 124.199609375 373.2705078125 124.2 371.75
L 124.2 365.75
Q 124.199609375 364.2294921875 124.1 362.75 124.199609375 361.2705078125 124.2 359.75
L 124.2 353.75
Q 124.199609375 352.2294921875 124.1 350.75 124.199609375 349.2705078125 124.2 347.75
L 124.2 341.75
Q 124.199609375 340.2294921875 124.1 338.75 124.199609375 337.2705078125 124.2 335.75
L 124.2 329.75
Q 124.1953125 313.1857421875 112.45 301.45 100.7642578125 289.7546875 84.2 289.75 67.6357421875 289.7546875 55.9 301.45 44.2046875 313.1857421875 44.2 329.75
L 44.2 335.75
Q 44.200390625 337.2705078125 44.3 338.75
M 271.8 73.35
Q 271.7953125 56.7857421875 260.05 45.05 248.3642578125 33.3546875 231.8 33.35
L 225.8 33.35
Q 224.2794921875 33.350390625 222.8 33.45 221.3205078125 33.350390625 219.8 33.35
L 213.8 33.35
Q 212.2794921875 33.350390625 210.8 33.45 209.3205078125 33.350390625 207.8 33.35
L 201.8 33.35
Q 200.2794921875 33.350390625 198.8 33.45 197.3205078125 33.350390625 195.8 33.35
L 189.8 33.35
Q 188.2794921875 33.350390625 186.8 33.45 185.3205078125 33.350390625 183.8 33.35
L 177.8 33.35
Q 176.2794921875 33.350390625 174.8 33.45 173.3205078125 33.350390625 171.8 33.35
L 165.8 33.35
Q 164.2794921875 33.350390625 162.8 33.45 161.3205078125 33.350390625 159.8 33.35
L 158.05 33.35
Q 155.3951171875 33.141015625 152.8 33 150.9376953125 32.901953125 149.1 32.95 147.3568359375 32.781640625 145.5 32.75 141.819921875 32.687890625 138.3 32.75 136.26953125 32.7921875 134.3 33 132.4349609375 32.9712890625 130.5 33.1 126.31015625 33.369140625 122.4 33.85 120.5181640625 34.091015625 118.7 34.45 116.544921875 34.659375 114.3 35.05 110.055078125 35.8654296875 106.05 36.85 103.3927734375 37.57265625 100.9 38.55 98.8283203125 39.08515625 96.7 39.85 91.4015625 41.7779296875 86.7 44.15 84.2716796875 45.443359375 82.05 46.9 79.68359375 48.152734375 77.35 49.7 72.0873046875 53.3041015625 67.65 57.5 65.12734375 59.9720703125 63.1 62.65 60.8119140625 64.9677734375 58.8 67.75 55.156640625 72.8490234375 52.35 78.55 50.9080078125 81.5291015625 49.95 84.5 48.833203125 86.9150390625 47.95 89.55 46.172265625 95.1126953125 45.15 101.15 44.740234375 103.8150390625 44.6 106.35 44.190234375 108.9087890625 44.05 111.55 43.7974609375 116.38046875 44.05 121.6 44.126953125 123.2021484375 44.3 124.75 44.2 126.3287109375 44.2 127.95
L 44.2 133.95
Q 44.2 135.45 44.3 136.95 44.2 138.45 44.2 139.95
L 44.2 145.95
Q 44.2 147.45 44.3 148.95 44.2 150.45 44.2 151.95
L 44.2 157.95
Q 44.2 159.45 44.3 160.95 44.2 162.45 44.2 163.95
L 44.2 169.95
Q 44.2 171.45 44.3 172.95 44.2 174.45 44.2 175.95
L 44.2 181.95
Q 44.2 183.45 44.3 184.95 44.2 186.45 44.2 187.95
L 44.2 193.95
Q 44.2 195.45 44.3 196.95 44.2 198.45 44.2 199.95
L 44.2 205.95
Q 44.2 207.45 44.3 208.95 44.2 210.45 44.2 211.95
L 44.2 217.95
Q 44.2 234.5 55.95 246.25 67.65 257.95 84.2 257.95 100.75 257.95 112.5 246.25 124.2 234.5 124.2 217.95
L 124.2 211.95
Q 124.2 210.45 124.1 208.95 124.2 207.45 124.2 205.95
L 124.2 199.95
Q 124.2 198.45 124.1 196.95 124.2 195.45 124.2 193.95
L 124.2 187.95
Q 124.2 186.45 124.1 184.95 124.2 183.45 124.2 181.95
L 124.2 175.95
Q 124.2 174.45 124.1 172.95 124.2 171.45 124.2 169.95
L 124.2 163.95
Q 124.2 162.45 124.1 160.95 124.2 159.45 124.2 157.95
L 124.2 151.95
Q 124.2 150.45 124.1 148.95 124.2 147.45 124.2 145.95
L 124.2 139.95
Q 124.2 138.45 124.1 136.95 124.2 135.45 124.2 133.95
L 124.2 127.95
Q 124.2 125.2982421875 123.9 122.75 124.0650390625 120.3359375 123.95 117.8 123.90234375 116.71953125 123.95 115.7 123.9666015625 115.38671875 123.95 115.05 124.601171875 114.82109375 125.2 114.55 125.519140625 114.5033203125 125.8 114.4 127.3447265625 114.0345703125 128.95 113.7 129.642578125 113.598046875 130.3 113.45 131.2927734375 113.3748046875 132.3 113.25 133.9896484375 113.0306640625 135.8 112.9 136.7169921875 112.83671875 137.6 112.75 138.64921875 112.768359375 139.7 112.75 141.8798828125 112.712109375 144.15 112.75 145.31015625 112.7658203125 146.4 112.7 147.499609375 112.83828125 148.6 112.9 150.1103515625 112.9755859375 151.65 113.05 152.6685546875 113.192578125 153.7 113.25
L 155.45 113.3
Q 155.96953125 113.3498046875 156.5 113.35
L 159.8 113.35
Q 161.3205078125 113.349609375 162.8 113.25 164.2794921875 113.349609375 165.8 113.35
L 171.8 113.35
Q 173.3205078125 113.349609375 174.8 113.25 176.2794921875 113.349609375 177.8 113.35
L 183.8 113.35
Q 185.3205078125 113.349609375 186.8 113.25 188.2794921875 113.349609375 189.8 113.35
L 195.8 113.35
Q 197.3205078125 113.349609375 198.8 113.25 200.2794921875 113.349609375 201.8 113.35
L 207.8 113.35
Q 209.3205078125 113.349609375 210.8 113.25 212.2794921875 113.349609375 213.8 113.35
L 219.8 113.35
Q 221.3205078125 113.349609375 222.8 113.25 224.2794921875 113.349609375 225.8 113.35
L 231.8 113.35
Q 248.3642578125 113.3453125 260.05 101.6 271.7953125 89.9142578125 271.8 73.35
M 499.8 72.7
Q 499.8 56.15 488.1 44.45 476.35 32.7 459.8 32.7
L 453.8 32.7
Q 452.3 32.7 450.8 32.8 449.3 32.7 447.8 32.7
L 441.8 32.7
Q 440.3 32.7 438.8 32.8 437.3 32.7 435.8 32.7
L 429.8 32.7
Q 428.3 32.7 426.8 32.8 425.3 32.7 423.8 32.7
L 417.8 32.7
Q 416.3 32.7 414.8 32.8 413.3 32.7 411.8 32.7
L 405.8 32.7
Q 404.3 32.7 402.8 32.8 401.3 32.7 399.8 32.7
L 393.8 32.7
Q 392.3 32.7 390.8 32.8 389.3 32.7 387.8 32.7
L 381.8 32.7
Q 380.3 32.7 378.8 32.8 377.3 32.7 375.8 32.7
L 369.8 32.7
Q 368.3 32.7 366.8 32.8 365.3 32.7 363.8 32.7
L 357.8 32.7
Q 356.3 32.7 354.8 32.8 353.3 32.7 351.8 32.7
L 345.8 32.7
Q 329.25 32.7 317.55 44.45 305.8 56.15 305.8 72.7 305.8 89.25 317.55 101 329.25 112.7 345.8 112.7
L 351.8 112.7
Q 353.3 112.7 354.8 112.6 356.3 112.7 357.8 112.7
L 363.8 112.7
Q 365.3 112.7 366.8 112.6 368.3 112.7 369.8 112.7
L 375.8 112.7
Q 377.3 112.7 378.8 112.6 380.3 112.7 381.8 112.7
L 387.8 112.7
Q 389.3 112.7 390.8 112.6 392.3 112.7 393.8 112.7
L 399.8 112.7
Q 401.3 112.7 402.8 112.6 404.3 112.7 405.8 112.7
L 411.8 112.7
Q 413.3 112.7 414.8 112.6 416.3 112.7 417.8 112.7
L 423.8 112.7
Q 425.3 112.7 426.8 112.6 428.3 112.7 429.8 112.7
L 435.8 112.7
Q 437.3 112.7 438.8 112.6 440.3 112.7 441.8 112.7
L 447.8 112.7
Q 449.3 112.7 450.8 112.6 452.3 112.7 453.8 112.7
L 459.8 112.7
Q 476.35 112.7 488.1 101 499.8 89.25 499.8 72.7
M 880.3 788.55
Q 880.2 790.05 880.2 791.55
L 880.2 797.55
Q 880.2 799.05 880.3 800.55 880.2 802.05 880.2 803.55
L 880.2 809.55
Q 880.2 811.05 880.3 812.55 880.2 814.05 880.2 815.55
L 880.2 821.55
Q 880.2 823.05 880.3 824.55 880.2 826.05 880.2 827.55
L 880.2 833.55
Q 880.2 835.05 880.3 836.55 880.2 838.05 880.2 839.55
L 880.2 845.55
Q 880.2 846.3732421875 880.2 847.15 880.183203125 848.367578125 880.2 849.55 880.2359375 851.5326171875 880.15 853.4 880.1439453125 854.412890625 880.15 855.35 880.0681640625 856.0498046875 880 856.7 879.8203125 858.5583984375 879.55 860.3 879.464453125 860.8474609375 879.4 861.4 879.1427734375 862.2716796875 878.9 863.15 878.7015625 864.1447265625 878.4 865.05 878.1662109375 865.721875 877.95 866.4 877.78828125 866.74375 877.6 867.1 877.0697265625 868.34609375 876.4 869.5 876.2755859375 869.79453125 876.1 870.05 875.8373046875 870.452734375 875.55 870.85 875.1703125 871.371875 874.7 871.85 874.3716796875 872.2408203125 874 872.6 873.7767578125 872.8529296875 873.5 873.05 872.6724609375 873.8279296875 871.7 874.5 871.284375 874.8517578125 870.85 875.15 870.5150390625 875.3767578125 870.15 875.55 868.899609375 876.3240234375 867.5 877 866.736328125 877.390625 865.95 877.8 865.3744140625 878.0251953125 864.75 878.25 864.137109375 878.25 863.5 878.25
L 857.5 878.25
Q 856 878.25 854.5 878.35 853 878.25 851.5 878.25
L 845.5 878.25
Q 844 878.25 842.5 878.35 841 878.25 839.5 878.25
L 833.5 878.25
Q 832 878.25 830.5 878.35 829 878.25 827.5 878.25
L 821.5 878.25
Q 820 878.25 818.5 878.35 817 878.25 815.5 878.25
L 809.5 878.25
Q 808 878.25 806.5 878.35 805 878.25 803.5 878.25
L 797.5 878.25
Q 796 878.25 794.5 878.35 793 878.25 791.5 878.25
L 785.5 878.25
Q 768.95 878.25 757.25 890 745.5 901.7 745.5 918.25 745.5 934.8 757.25 946.55 768.95 958.25 785.5 958.25
L 791.5 958.25
Q 793 958.25 794.5 958.15 796 958.25 797.5 958.25
L 803.5 958.25
Q 805 958.25 806.5 958.15 808 958.25 809.5 958.25
L 815.5 958.25
Q 817 958.25 818.5 958.15 820 958.25 821.5 958.25
L 827.5 958.25
Q 829 958.25 830.5 958.15 832 958.25 833.5 958.25
L 839.5 958.25
Q 841 958.25 842.5 958.15 844 958.25 845.5 958.25
L 851.5 958.25
Q 853 958.25 854.5 958.15 856 958.25 857.5 958.25
L 863.5 958.25
Q 865 958.25 866.5 958.15 868 958.25 869.5 958.25
L 871.6 958.25
Q 879.6724609375 958.25 886.6 955.45 891.1181640625 953.988671875 895.3 952.2 897.166796875 951.4056640625 898.85 950.45 900.8314453125 949.748828125 902.75 948.8 906.9005859375 946.7759765625 910.7 944.5 913.0451171875 943.1513671875 915.1 941.55 917.1177734375 940.4068359375 919.05 938.95 923.0275390625 936.0720703125 926.55 932.9 928.4775390625 931.2228515625 930.1 929.4 932.0615234375 927.7212890625 933.85 925.75 937.5296875 921.7279296875 940.65 917.35 942.2095703125 915.1564453125 943.45 912.9 944.961328125 910.8119140625 946.25 908.45 948.5302734375 904.4537109375 950.45 900.2 951.6412109375 897.6146484375 952.45 895 953.297265625 893.1546875 954 891.15 955.5984375 886.555078125 956.75 881.6 957.281640625 879.495703125 957.55 877.4 958.1736328125 875.16875 958.55 872.8 959.1796875 868.84140625 959.6 864.65 959.8298828125 862.3400390625 959.8 860.05 960.0548828125 858.1640625 960.1 856.15 960.2640625 852.2671875 960.2 848.2 960.191015625 847.7072265625 960.15 847.2 960.2 846.3783203125 960.2 845.55
L 960.2 839.55
Q 960.2 838.05 960.1 836.55 960.2 835.05 960.2 833.55
L 960.2 827.55
Q 960.2 826.05 960.1 824.55 960.2 823.05 960.2 821.55
L 960.2 815.55
Q 960.2 814.05 960.1 812.55 960.2 811.05 960.2 809.55
L 960.2 803.55
Q 960.2 802.05 960.1 800.55 960.2 799.05 960.2 797.55
L 960.2 791.55
Q 960.2 790.05 960.1 788.55 960.2 787.05 960.2 785.55
L 960.2 779.55
Q 960.2 763 948.5 751.3 936.75 739.55 920.2 739.55 903.65 739.55 891.95 751.3 880.2 763 880.2 779.55
L 880.2 785.55
Q 880.2 787.05 880.3 788.55
M 692.85 538.55
L 692.75 538.7
Q 673.30078125 563.9900390625 661.8 588.2 661.75078125 588.12734375 661.7 588 661.5505859375 588.353515625 661.35 588.65 659.808984375 591.5216796875 658.4 594.15 655.3041015625 601.189453125 650.9 608.8 650.537890625 609.463671875 650.05 610.05 646.1283203125 618.0271484375 645 621.65 643.8359375 625.5984375 640.2 627.6 636.5783203125 629.6056640625 632.6 628.45 628.658203125 627.2873046875 626.65 623.65 624.6455078125 620.0216796875 625.8 616.05 627.79765625 608.7400390625 639.95 586.15 649.33203125 564.041015625 641.45 550.5 640.4666015625 549.0505859375 640.05 547.45 624.54921875 520.2865234375 610.6 501.5 610.539453125 501.4080078125 610.45 501.3
L 610.35 501.15
Q 610.3251953125 501.099609375 610.25 501 588.3896484375 467.97734375 562.5 467.55 537.0603515625 465.440234375 508.65 495.85
L 509 495.55
Q 488.5212890625 515.6701171875 472.85 536.2 472.4904296875 537.149609375 471.9 538.05 467.4490234375 544.8166015625 462.75 553.05 459.40625 558.9720703125 455.9 565.65 442.248828125 591.9181640625 426.75 629.9 425.18671875 633.7384765625 421.35 635.35 417.551171875 636.9662109375 413.7 635.4 409.909375 633.8384765625 408.3 630 406.6853515625 626.2033203125 408.25 622.35 422.2923828125 587.9255859375 434.9 562.8 435.2611328125 560.876953125 436.4 559.1 437.596484375 557.2564453125 438.7 555.45 441.469140625 550.13828125 444.15 545.3 454.3095703125 523.773828125 448.85 507.2 432.3185546875 481.9994140625 408.85 457.9
L 409 458.1
Q 379.6005859375 426.451171875 351.15 425.25 322.0302734375 422.9365234375 294.5 451.9 294.43515625 451.998046875 294.35 452.05 211.784765625 543.1005859375 208.25 605.7 208.2513671875 606.0828125 208.25 606.4
L 208.25 701.35
Q 207.065625 723.8 219.1 735.1 230.1658203125 746.891015625 253.9 747.3
L 752.55 747.3
Q 776.4271484375 749.0298828125 786.45 740.5 799.4958984375 731.6263671875 795.65 711.5
L 795.65 621.75
Q 795.64453125 620.51875 795.3 619.25 783.924609375 574.666796875 752.55 534.6 752.009765625 533.941796875 751.3 533.3 735.55078125 519.3234375 720.8 521.2 706.04140625 522.00078125 692.85 538.55
M 879.2 556.85
L 879.2 562.85
Q 879.200390625 564.3705078125 879.3 565.85 879.200390625 567.3294921875 879.2 568.85
L 879.2 574.85
Q 879.200390625 576.3705078125 879.3 577.85 879.200390625 579.3294921875 879.2 580.85
L 879.2 586.85
Q 879.200390625 588.3705078125 879.3 589.85 879.200390625 591.3294921875 879.2 592.85
L 879.2 598.85
Q 879.200390625 600.3705078125 879.3 601.85 879.200390625 603.3294921875 879.2 604.85
L 879.2 610.85
Q 879.200390625 612.3705078125 879.3 613.85 879.200390625 615.3294921875 879.2 616.85
L 879.2 622.85
Q 879.200390625 624.3705078125 879.3 625.85 879.200390625 627.3294921875 879.2 628.85
L 879.2 634.85
Q 879.200390625 636.3705078125 879.3 637.85 879.200390625 639.3294921875 879.2 640.85
L 879.2 646.85
Q 879.2046875 663.4142578125 890.9 675.1 902.6357421875 686.8453125 919.2 686.85 935.7642578125 686.8453125 947.45 675.1 959.1953125 663.4142578125 959.2 646.85
L 959.2 640.85
Q 959.199609375 639.3294921875 959.1 637.85 959.199609375 636.3705078125 959.2 634.85
L 959.2 628.85
Q 959.199609375 627.3294921875 959.1 625.85 959.199609375 624.3705078125 959.2 622.85
L 959.2 616.85
Q 959.199609375 615.3294921875 959.1 613.85 959.199609375 612.3705078125 959.2 610.85
L 959.2 604.85
Q 959.199609375 603.3294921875 959.1 601.85 959.199609375 600.3705078125 959.2 598.85
L 959.2 592.85
Q 959.199609375 591.3294921875 959.1 589.85 959.199609375 588.3705078125 959.2 586.85
L 959.2 580.85
Q 959.199609375 579.3294921875 959.1 577.85 959.199609375 576.3705078125 959.2 574.85
L 959.2 568.85
Q 959.199609375 567.3294921875 959.1 565.85 959.199609375 564.3705078125 959.2 562.85
L 959.2 556.85
Q 959.1953125 540.2857421875 947.45 528.55 935.7642578125 516.8546875 919.2 516.85 902.6357421875 516.8546875 890.9 528.55 879.2046875 540.2857421875 879.2 556.85
M 880.2 348.9
Q 880.2 350.4 880.3 351.9 880.2 353.4 880.2 354.9
L 880.2 360.9
Q 880.2 362.4 880.3 363.9 880.2 365.4 880.2 366.9
L 880.2 372.9
Q 880.2 374.4 880.3 375.9 880.2 377.4 880.2 378.9
L 880.2 384.9
Q 880.2 386.4 880.3 387.9 880.2 389.4 880.2 390.9
L 880.2 396.9
Q 880.2 398.4 880.3 399.9 880.2 401.4 880.2 402.9
L 880.2 408.9
Q 880.2 410.4 880.3 411.9 880.2 413.4 880.2 414.9
L 880.2 420.9
Q 880.2 422.4 880.3 423.9 880.2 425.4 880.2 426.9
L 880.2 432.9
Q 880.2 449.45 891.95 461.2 903.65 472.9 920.2 472.9 936.75 472.9 948.5 461.2 960.2 449.45 960.2 432.9
L 960.2 426.9
Q 960.2 425.4 960.1 423.9 960.2 422.4 960.2 420.9
L 960.2 414.9
Q 960.2 413.4 960.1 411.9 960.2 410.4 960.2 408.9
L 960.2 402.9
Q 960.2 401.4 960.1 399.9 960.2 398.4 960.2 396.9
L 960.2 390.9
Q 960.2 389.4 960.1 387.9 960.2 386.4 960.2 384.9
L 960.2 378.9
Q 960.2 377.4 960.1 375.9 960.2 374.4 960.2 372.9
L 960.2 366.9
Q 960.2 365.4 960.1 363.9 960.2 362.4 960.2 360.9
L 960.2 354.9
Q 960.2 353.4 960.1 351.9 960.2 350.4 960.2 348.9
L 960.2 342.9
Q 960.2 326.35 948.5 314.65 936.75 302.9 920.2 302.9 903.65 302.9 891.95 314.65 880.2 326.35 880.2 342.9
L 880.2 348.9
M 713.65 243.2
Q 678.3 243.2 653.3 268.2 628.3 293.2 628.3 328.55 628.3 363.9 653.3 388.9 678.3 413.9 713.65 413.9 749 413.9 774 388.9 799 363.9 799 328.55 799 293.2 774 268.2 749 243.2 713.65 243.2
M 652.5 32.7
Q 651 32.7 649.5 32.8 648 32.7 646.5 32.7
L 640.5 32.7
Q 639 32.7 637.5 32.8 636 32.7 634.5 32.7
L 628.5 32.7
Q 627 32.7 625.5 32.8 624 32.7 622.5 32.7
L 616.5 32.7
Q 615 32.7 613.5 32.8 612 32.7 610.5 32.7
L 604.5 32.7
Q 603 32.7 601.5 32.8 600 32.7 598.5 32.7
L 592.5 32.7
Q 591 32.7 589.5 32.8 588 32.7 586.5 32.7
L 580.5 32.7
Q 579 32.7 577.5 32.8 576 32.7 574.5 32.7
L 568.5 32.7
Q 551.95 32.7 540.25 44.45 528.5 56.15 528.5 72.7 528.5 89.25 540.25 101 551.95 112.7 568.5 112.7
L 574.5 112.7
Q 576 112.7 577.5 112.6 579 112.7 580.5 112.7
L 586.5 112.7
Q 588 112.7 589.5 112.6 591 112.7 592.5 112.7
L 598.5 112.7
Q 600 112.7 601.5 112.6 603 112.7 604.5 112.7
L 610.5 112.7
Q 612 112.7 613.5 112.6 615 112.7 616.5 112.7
L 622.5 112.7
Q 624 112.7 625.5 112.6 627 112.7 628.5 112.7
L 634.5 112.7
Q 636 112.7 637.5 112.6 639 112.7 640.5 112.7
L 646.5 112.7
Q 648 112.7 649.5 112.6 651 112.7 652.5 112.7
L 658.5 112.7
Q 660 112.7 661.5 112.6 663 112.7 664.5 112.7
L 670.5 112.7
Q 672 112.7 673.5 112.6 675 112.7 676.5 112.7
L 682.5 112.7
Q 699.05 112.7 710.8 101 722.5 89.25 722.5 72.7 722.5 56.15 710.8 44.45 699.05 32.7 682.5 32.7
L 676.5 32.7
Q 675 32.7 673.5 32.8 672 32.7 670.5 32.7
L 664.5 32.7
Q 663 32.7 661.5 32.8 660 32.7 658.5 32.7
L 652.5 32.7
M 904.8 38.55
Q 902.323828125 37.4271484375 899.6 36.55 894.6916015625 35.0541015625 889.4 34.05 886.944140625 33.610546875 884.5 33.45 882.22421875 32.9728515625 879.8 32.75 875.244921875 32.3484375 870.45 32.35 869.99296875 32.3501953125 869.55 32.35 868.62734375 32.3359375 867.7 32.35
L 861.7 32.45
Q 860.5 32.45 859.4 32.55 857.55 32.4 855.7 32.45
L 849.7 32.55
Q 848.5 32.55 847.4 32.65 845.55 32.5 843.7 32.55
L 837.7 32.65
Q 836.5 32.65 835.4 32.75 833.55 32.6 831.7 32.65
L 825.7 32.75
Q 824.15 32.8 822.65 32.9 821.2 32.85 819.7 32.85
L 813.7 32.95
Q 812.15 33 810.65 33.1 809.2 33.05 807.7 33.05
L 801.7 33.15
Q 800.15 33.2 798.65 33.3 797.2 33.25 795.7 33.25
L 789.7 33.35
Q 773.2 33.65 761.7 45.55 750.1 57.45 750.4 74 750.65 90.5 762.55 102.05 774.45 113.6 791.05 113.35
L 797.05 113.25
Q 798.55 113.2 800.1 113.1 801.55 113.15 803.05 113.15
L 809.05 113.05
Q 810.55 113 812.1 112.9 813.55 112.95 815.05 112.95
L 821.05 112.85
Q 822.55 112.8 824.1 112.7 825.55 112.75 827.05 112.75
L 833.05 112.65
Q 834.2 112.65 835.35 112.55 837.15 112.7 839.05 112.65
L 845.05 112.55
Q 846.2 112.55 847.35 112.45 849.15 112.6 851.05 112.55
L 857.05 112.45
Q 858.2 112.45 859.35 112.35 861.15 112.5 863.05 112.45
L 869.5 112.35
Q 869.96953125 112.3498046875 870.45 112.35 871.655078125 112.3513671875 872.8 112.45 873.2966796875 112.4939453125 873.8 112.5 874.2791015625 112.6306640625 874.75 112.7 875.3765625 112.8396484375 875.95 113 875.9951171875 113.10390625 876.05 113.2 876.268359375 113.5796875 876.45 114 876.7001953125 114.5998046875 876.95 115.15 877.1796875 115.9419921875 877.4 116.7 877.81640625 117.9208984375 878.1 119.25 878.2580078125 119.823046875 878.4 120.35 878.5150390625 121.4 878.65 122.4 878.8998046875 123.923828125 879 125.5 879.13046875 126.796484375 879.3 128 879.2978515625 128.8857421875 879.3 129.75 879.4009765625 132.047265625 879.4 134.5 879.400390625 135.713671875 879.45 136.9 879.391015625 137.755859375 879.35 138.6 879.342578125 138.78984375 879.3 138.95
L 879.3 139.45
Q 879.2390625 140.426953125 879.2 141.4
L 879.2 145.95
Q 879.2 147.45 879.3 148.95 879.2 150.45 879.2 151.95
L 879.2 157.95
Q 879.2 159.45 879.3 160.95 879.2 162.45 879.2 163.95
L 879.2 169.95
Q 879.2 171.45 879.3 172.95 879.2 174.45 879.2 175.95
L 879.2 181.95
Q 879.2 183.45 879.3 184.95 879.2 186.45 879.2 187.95
L 879.2 193.95
Q 879.2 195.45 879.3 196.95 879.2 198.45 879.2 199.95
L 879.2 205.95
Q 879.2 207.45 879.3 208.95 879.2 210.45 879.2 211.95
L 879.2 217.95
Q 879.2 234.5 890.95 246.25 902.65 257.95 919.2 257.95 935.75 257.95 947.5 246.25 959.2 234.5 959.2 217.95
L 959.2 211.95
Q 959.2 210.45 959.1 208.95 959.2 207.45 959.2 205.95
L 959.2 199.95
Q 959.2 198.45 959.1 196.95 959.2 195.45 959.2 193.95
L 959.2 187.95
Q 959.2 186.45 959.1 184.95 959.2 183.45 959.2 181.95
L 959.2 175.95
Q 959.2 174.45 959.1 172.95 959.2 171.45 959.2 169.95
L 959.2 163.95
Q 959.2 162.45 959.1 160.95 959.2 159.45 959.2 157.95
L 959.2 151.95
Q 959.2 150.45 959.1 148.95 959.2 147.45 959.2 145.95
L 959.2 143.35
Q 959.225 142.825 959.25 142.25 959.3421875 140.2076171875 959.25 138.2 959.3994140625 136.3849609375 959.4 134.5 959.3990234375 130.652734375 959.25 127.05 959.1990234375 124.84765625 958.9 122.7 958.9224609375 120.9302734375 958.75 119.05 958.4 114.476171875 957.7 110.15 957.4015625 108.1400390625 956.9 106.2 956.6380859375 103.8021484375 956.05 101.35 954.9833984375 96.5791015625 953.55 92.2 952.8615234375 90.0091796875 951.95 87.95 951.2982421875 85.6880859375 950.35 83.4 948.131640625 78.0201171875 945.35 73.2 943.9271484375 70.75078125 942.25 68.6 940.8234375 66.0537109375 938.95 63.6 935.0490234375 58.5859375 930.5 54.35 928.2328125 52.2630859375 925.8 50.55 923.54140625 48.5171875 920.9 46.7 915.978125 43.3953125 910.45 40.75 907.6384765625 39.450390625 904.8 38.55 Z"/>
</g>
</g>
</g>
</g>
</svg>
