<svg xmlns="http://www.w3.org/2000/svg" version="1.1" xmlns:xlink="http://www.w3.org/1999/xlink" preserveAspectRatio="none" x="0px" y="0px" width="630px" height="1000px" viewBox="0 0 630 1000">
<defs/>

<g id="place">
<g transform="matrix( 1, 0, 0, 1, -185,0) ">
<g>
<g>
<path fill="#FF797D" stroke="none" d="
M 813.1 360.35
Q 813.1 360.25 813.1 360.2 815 341.8 815 322.55 815 188.95 722.7 94.45 630.5 0 500 0 369.5 0 277.25 94.45 185 188.95 185 322.55 185 345.15 187.7 366.65 209.25 615.4 453.5 974.85 454.05 975.8 454.8 976.7
L 455.55 977.55
Q 455.65 977.65 455.75 977.75
L 455.9 977.9
Q 479.5 1001.35 502.05 999.9 524.9 999.9 545.9 974.85
L 546.3 974.4
Q 546.6 974 546.95 973.6 547 973.55 547.05 973.5
L 547.2 973.2
Q 795.6 619 813.1 360.35
M 358.05 315.15
Q 358.05 256.8 398.35 215.55 438.6 174.25 495.6 174.25 552.55 174.25 592.9 215.55 633.15 256.8 633.15 315.15 633.15 373.45 592.9 414.75 552.55 456 495.6 456 438.6 456 398.35 414.75 358.05 373.45 358.05 315.15 Z"/>
</g>
</g>
</g>
</g>
</svg>