<svg xmlns="http://www.w3.org/2000/svg" version="1.1" xmlns:xlink="http://www.w3.org/1999/xlink" preserveAspectRatio="none" x="0px" y="0px" width="1000px" height="1000px" viewBox="0 0 1000 1000">
<defs/>

<g id="post">
<g transform="matrix( 1.01727294921875, 0, 0, 1.0159759521484375, -9.35,-5.8) ">
<g>
<g>
<path fill="#FF797D" stroke="none" d="
M 746.05 853.05
Q 746.0453125 836.4857421875 734.3 824.75 722.6142578125 813.0546875 706.05 813.05 689.4857421875 813.0546875 677.75 824.75 666.0546875 836.4857421875 666.05 853.05
L 666.05 950
Q 666.0546875 966.5642578125 677.75 978.25 689.4857421875 989.9953125 706.05 990 722.6142578125 989.9953125 734.3 978.25 746.0453125 966.5642578125 746.05 950
L 746.05 853.05
M 336.05 853.05
Q 336.0453125 836.4857421875 324.3 824.75 312.6142578125 813.0546875 296.05 813.05 279.4857421875 813.0546875 267.75 824.75 256.0546875 836.4857421875 256.05 853.05
L 256.05 950
Q 256.0546875 966.5642578125 267.75 978.25 279.4857421875 989.9953125 296.05 990 312.6142578125 989.9953125 324.3 978.25 336.0453125 966.5642578125 336.05 950
L 336.05 853.05
M 746.05 458.3
Q 746.0453125 441.7357421875 734.3 430 722.6142578125 418.3046875 706.05 418.3 689.4857421875 418.3046875 677.75 430 666.0546875 441.7357421875 666.05 458.3
L 666.05 667.9 336.05 667.9 336.05 458.3
Q 336.0453125 441.7357421875 324.3 430 312.6142578125 418.3046875 296.05 418.3 279.4857421875 418.3046875 267.75 430 256.0546875 441.7357421875 256.05 458.3
L 256.05 667.9 49.2 667.9
Q 32.6357421875 667.9046875 20.9 679.6 9.2046875 691.3357421875 9.2 707.9 9.2046875 724.4642578125 20.9 736.15 32.6357421875 747.8953125 49.2 747.9
L 952.2 747.9
Q 968.7642578125 747.8953125 980.45 736.15 992.1953125 724.4642578125 992.2 707.9 992.1953125 691.3357421875 980.45 679.6 968.7642578125 667.9046875 952.2 667.9
L 746.05 667.9 746.05 458.3
M 992.2 296
Q 992.1953125 279.4357421875 980.45 267.7 968.7642578125 256.0046875 952.2 256
L 746.05 256 746.05 45.7
Q 746.0453125 29.1357421875 734.3 17.4 722.6142578125 5.7046875 706.05 5.7 689.4857421875 5.7046875 677.75 17.4 666.0546875 29.1357421875 666.05 45.7
L 666.05 256 336.05 256 336.05 45.7
Q 336.0453125 29.1357421875 324.3 17.4 312.6142578125 5.7046875 296.05 5.7 279.4857421875 5.7046875 267.75 17.4 256.0546875 29.1357421875 256.05 45.7
L 256.05 256 49.2 256
Q 32.6357421875 256.0046875 20.9 267.7 9.2046875 279.4357421875 9.2 296 9.2046875 312.5642578125 20.9 324.25 32.6357421875 335.9953125 49.2 336
L 952.2 336
Q 968.7642578125 335.9953125 980.45 324.25 992.1953125 312.5642578125 992.2 296 Z"/>
</g>
</g>
</g>
</g>
</svg>