<svg xmlns="http://www.w3.org/2000/svg" version="1.1" xmlns:xlink="http://www.w3.org/1999/xlink" preserveAspectRatio="none" x="0px" y="0px" width="923px" height="1000px" viewBox="0 0 923 1000">
<defs/>

<g id="reportcount">
<g transform="matrix( 1.4591064453125, 0, 0, 1.4598388671875, -294.55,-204.2) ">
<g>
<g>
<path fill="#FF797D" stroke="none" d="
M 528.9 151.65
Q 528.85 151.6 528.8 151.6 485.25 130.75 441.45 147 441.3 147 441.2 147.05 377.75 167.85 354.6 227.95 354.5 228.15 354.4 228.4 332.9 290.45 354.45 345.9 354.6 346.25 354.8 346.55 357.8 352.55 355.7 355 355.6 355.1 355.5 355.15 338.55 368.55 347.35 392.9 349.4 416.35 365.45 423.45 365.65 423.5 365.85 423.6 372.8 426.2 372.9 432.95
L 372.9 433.05
Q 372.35 460.2 407.75 494.95 407.8 495 407.85 495.05 408.1 495.3 408.45 495.55 412.95 498.5 414.7 505.75
L 414.7 554.15
Q 414.85 563.6 410.2 569.85 373.95 602.7 334.95 608.6 334.75 608.6 334.5 608.65 320.9 611.05 302.65 617 302.25 617 301.9 617.15 240.3 639.4 213 691.6 212.85 691.85 212.75 692.15 201.3 714.8 201.9 723.65 201.85 724.25 202.1 724.85 205.6 735.35 219.85 734.75
L 490.8 735.3
Q 489.35 731.85 488 728.3 476.25 696.95 476.25 660.7 476.25 581.7 532.15 525.8 541.6 516.3 551.75 508.45 555.2 505.75 558.75 503.25
L 558.75 500.2
Q 591.15 481.25 602.05 428.2 613.7 427.05 623.55 408.5 623.6 408.45 623.6 408.4 642.05 375.55 623.2 358.55 623.1 358.45 623 358.35 619.35 353.9 622.9 339.6 622.9 339.5 622.95 339.4 634.7 294.4 623.95 244.4 623.9 244.2 623.85 244 608.95 181.45 569.25 185.55 569 185.5 568.8 185.55 556.95 186.95 553.35 176.3 553.3 176.2 553.3 176.15 549.1 162.4 529 151.7 528.95 151.7 528.9 151.65
M 785.75 541.25
Q 737.05 492.55 668.25 492.55 599.45 492.55 550.75 541.25 502.05 589.95 502.05 658.75 502.05 727.55 550.75 776.25 599.45 824.9 668.25 824.9 737.05 824.9 785.75 776.25 834.45 727.55 834.45 658.75 834.45 589.95 785.75 541.25
M 651.95 570.7
Q 659.25 563.35 669.6 563.35 679.95 563.35 687.3 570.7 694.6 578 694.6 588.35
L 694.6 661.25
Q 694.6 671.6 687.3 678.95 679.95 686.25 669.6 686.25 659.25 686.25 651.95 678.95 644.6 671.6 644.6 661.25
L 644.6 588.35
Q 644.6 578 651.95 570.7
M 689.1 709.95
Q 697.15 718 697.15 729.4 697.15 740.8 689.1 748.9 681 756.95 669.6 756.95 658.2 756.95 650.15 748.9 642.05 740.8 642.05 729.4 642.05 718 650.15 709.95 658.2 701.85 669.6 701.85 681 701.85 689.1 709.95
M 669.65 729.4
L 669.6 729.35 669.55 729.4 669.6 729.45 669.65 729.4 Z"/>
</g>
</g>
</g>
</g>
</svg>