<svg xmlns="http://www.w3.org/2000/svg" version="1.1" xmlns:xlink="http://www.w3.org/1999/xlink" preserveAspectRatio="none" x="0px" y="0px" width="700px" height="1000px" viewBox="0 0 700 1000">
<defs/>

<g id="save">
<g transform="matrix( 1.0971832275390625, 0, 0, 1.10009765625, -167.15,-19.95) ">
<g>
<g>
<path fill="#FF797D" stroke="none" d="
M 790.35 93.15
Q 790.35 62.1 768.15 40.1 746 18.15 714.7 18.15
L 228.1 18.15
Q 196.8 18.15 174.6 40.1 152.45 62.1 152.45 93.15
L 152.45 480.8
Q 152.4 481.3923828125 152.4 482
L 152.4 874.35
Q 150.8650390625 917.0083984375 185.15 925 206.80390625 933.8986328125 240.9 905.35 241.0958984375 905.223046875 241.3 905.05
L 433.65 740.7
Q 473.318359375 713.4619140625 508.65 739.3
L 701.05 903.7
Q 701.2513671875 903.8791015625 701.45 904.05 735.645703125 932.752734375 757.35 923.95 791.7888671875 915.9900390625 790.25 873.25 790.208203125 872.172265625 790 871.15 790.3 869.8193359375 790.3 868.35
L 790.3 592.1
Q 790.35 590.6720703125 790.35 589.2
L 790.35 93.15 Z"/>
</g>
</g>
</g>
</g>
</svg>