<svg xmlns="http://www.w3.org/2000/svg" version="1.1" xmlns:xlink="http://www.w3.org/1999/xlink" preserveAspectRatio="none" x="0px" y="0px" width="1000px" height="1000px" viewBox="0 0 1000 1000">
<defs/>

<g id="search">
<g transform="matrix( 1.0377044677734375, 0, 0, 1.03424072265625, -29.75,-19.4) ">
<g>
<g>
<path fill="#FF797D" stroke="none" d="
M 753.5 681.8
Q 742.1474609375 681.8 732.2 685.2
L 662.95 615.95
Q 750.75 516.0599609375 750.75 379.8 750.75 230.25 645 124.5 539.25 18.75 389.7 18.75 240.15 18.75 134.4 124.5 28.65 230.25 28.65 379.8 28.65 529.35 134.4 635.1 240.15 740.85 389.7 740.85 523.6322265625 740.85 622.4 656
L 691.9 725.5
Q 688.5 735.4474609375 688.5 746.8 688.5 773.7 707.55 792.75
L 881.4 966.6
Q 900.45 985.65 927.35 985.65 954.25 985.65 973.3 966.6 992.35 947.55 992.35 920.65 992.35 893.75 973.3 874.7
L 799.45 700.85
Q 780.4 681.8 753.5 681.8
M 389.7 105.2
Q 503.5 105.2 583.9 185.6 664.35 266.05 664.35 379.8 664.35 493.6 583.9 574 503.5 654.45 389.7 654.45 275.95 654.45 195.5 574 115.1 493.6 115.1 379.8 115.1 266.05 195.5 185.6 275.95 105.2 389.7 105.2 Z"/>
</g>
</g>
</g>
</g>
</svg>