<svg xmlns="http://www.w3.org/2000/svg" version="1.1" xmlns:xlink="http://www.w3.org/1999/xlink" preserveAspectRatio="none" x="0px" y="0px" width="1000px" height="1000px" viewBox="0 0 1000 1000">
<defs/>

<g id="send">
<g transform="matrix( 1.01654052734375, 0, 0, 1.0201263427734375, -48.7,0.05) ">
<g>
<g>
<path fill="#FF797D" stroke="none" d="
M 956.55 427.85
Q 956.35 427.75 956.15 427.65
L 201.3 28.65
Q 152.85 1.55 137.1 0.55 137 0.55 136.9 0.55 64.45 -6.5 48.5 74.7 48.3 75.45 48.25 76.3 48.25 76.55 48.25 76.85
L 48.25 294.2
Q 43.25 395 111.85 407.5 112.6 407.7 113.45 407.7
L 113.85 407.7
Q 152.6 407.6 191.35 415.15
L 191.5 415.2
Q 191.55 415.2 191.65 415.2
L 523.7 473.05
Q 523.75 473.05 523.8 473.1
L 523.95 473.1
Q 542.95 476.1 545.75 488.8 546.35 496.65 542 501.2 536.45 506.05 524.8 507.1
L 524.65 507.1
Q 524.6 507.05 524.55 507.1 524.3 507.1 524 507.15
L 192.55 564.9
Q 192.15 564.95 191.8 565 152.9 572.6 114.05 572.5
L 112.8 572.6
Q 112.7 572.6 112.65 572.6
L 112.55 572.65
Q 43.55 584.95 48.55 686
L 48.55 903.7
Q 48.55 904.8 48.9 905.8 64.85 986.7 137.2 979.65 137.3 979.65 137.4 979.65 153.1 978.6 201.35 951.7 201.45 951.6 201.6 951.55
L 956.45 552.55
Q 956.7 552.4 956.95 552.25 1030.2 512.7 1031.6 490.9 1031.8 489.05 1031.05 487.4 1026.8 465.8 956.55 427.85 Z"/>
</g>
</g>
</g>
</g>
</svg>