<svg xmlns="http://www.w3.org/2000/svg" version="1.1" xmlns:xlink="http://www.w3.org/1999/xlink" preserveAspectRatio="none" x="0px" y="0px" width="1000px" height="1000px" viewBox="0 0 1000 1000">
<defs/>

<g id="settings">
<g transform="matrix( 1.0242156982421875, 0, 0, 1.02197265625, -17.85,-10.85) ">
<g>
<g>
<path fill="#FF797D" stroke="none" d="
M 815.6 133.45
Q 815.2390625 133.2154296875 814.8 133 781.6017578125 115.9837890625 748.3 133 748.1400390625 133.0962890625 747.95 133.2
L 675.45 172.95
Q 662.840625 179.0865234375 654 174.05 653.9626953125 174.0119140625 653.9 173.95
L 653.8 173.9
Q 644.113671875 168.321875 631.95 164.4 620.1587890625 158.7947265625 615.6 141.9 615.5421875 141.5994140625 615.4 141.3
L 596.1 63.75
Q 596.08203125 63.1958984375 595.9 62.65 584.47421875 27.3294921875 549.3 15.8 548.85625 15.6111328125 548.35 15.5 511.948828125 7.8916015625 473.65 12.2 473.2671875 12.2205078125 472.85 12.3 430.8 20.8 416.6 65.45 416.462890625 65.8716796875 416.4 66.25
L 397.5 139.2
Q 397.376953125 139.5986328125 397.3 140.05 393.4 162.6 383.5 165 383.4005859375 165.0173828125 383.3 165.05 370.66875 167.0314453125 360.15 174.05 351.35 179.1 338.7 172.95 338.62109375 172.9115234375 338.55 172.85
L 266.35 133.3
Q 266.11953125 133.1384765625 265.85 133 232.6 116 199.35 133 198.8751953125 133.2505859375 198.45 133.55 167.4849609375 153.9224609375 143.55 183.95
L 143.5 184.05
Q 143.384765625 184.201953125 143.25 184.35
L 143.2 184.5
Q 119.5283203125 220.1546875 141.05 261.75 141.209765625 262.0611328125 141.4 262.3
L 179.85 327.7 179.95 327.8
Q 179.969140625 327.8330078125 180 327.85
L 180.05 327.95
Q 187.8609375 341.2279296875 183.05 352.65 183.034765625 352.740234375 183 352.8 177.1775390625 362.5537109375 175.45 372.25 169.8548828125 386.286328125 146.85 390.3 146.3986328125 390.3771484375 146 390.5
L 73.1 409.4
Q 72.6814453125 409.45625 72.25 409.6 27.55 423.8 19.1 465.85 19.01015625 466.3212890625 19 466.75 14.703125 504.9697265625 22.25 541.25
L 22.3 541.35
Q 22.33984375 541.5375 22.4 541.7 22.4208984375 541.8126953125 22.45 541.9
L 22.45 542
Q 33.914453125 577.352734375 69.2 588.8
L 69.45 588.9
Q 69.5236328125 588.928515625 69.6 588.95
L 149.5 612.25
Q 149.5306640625 612.25859375 149.55 612.25
L 149.65 612.3
Q 168.0123046875 617.375390625 170.5 622.55 170.64609375 623.037109375 170.85 623.45 175.675390625 636.5744140625 183.6 644.9 190.1228515625 655.39921875 180.3 669.1
L 180.2 669.25
Q 180.0708984375 669.4427734375 179.95 669.65
L 179.9 669.75 141.4 735.1
Q 141.2099609375 735.3884765625 141.05 735.7 119.5283203125 777.2953125 143.2 812.95
L 143.25 813.1
Q 143.384765625 813.248046875 143.5 813.4
L 143.55 813.5
Q 167.484375 843.5265625 198.45 863.85 198.8744140625 864.1990234375 199.35 864.45 232.6 881.45 265.85 864.45 266.1203125 864.3111328125 266.35 864.15
L 338.5 824.55
Q 338.667578125 824.51796875 338.8 824.45 348.95 819.3 356.3 823.65 356.8 823.9642578125 357.3 824.15 357.5486328125 824.3103515625 357.8 824.45 369.2927734375 830.615625 382.5 834.5 382.9419921875 834.644140625 383.4 834.7
L 383.55 834.75
Q 393.45 837.15 397.3 859.7 397.3771484375 860.1513671875 397.5 860.55
L 416.4 933.45
Q 416.4630859375 933.8787109375 416.6 934.3 430.8 978.95 472.85 987.45 473.3095703125 987.5375 473.75 987.55 511.9591796875 991.8490234375 548.25 984.25
L 548.35 984.25
Q 548.53359375 984.2111328125 548.7 984.15 548.80859375 984.13046875 548.9 984.1
L 549.1 984
Q 584.483203125 972.546875 595.9 937.1 596.081640625 936.5552734375 596.1 936
L 615.5 858.25
Q 615.594921875 858.050390625 615.65 857.85 620.13046875 841.0115234375 631.9 835.3 643.5662109375 831.6115234375 653 826.25 653.4671875 826.1857421875 653.95 826 662.4 823.2 675.5 829.55 675.578125 829.5880859375 675.65 829.6
L 747.85 869.2
Q 748.08125 869.362109375 748.35 869.5 781.6 886.5 814.85 869.5 815.3287109375 869.2474609375 815.7 868.9 846.71796875 848.573828125 870.6 818.55
L 870.7 818.45
Q 870.815234375 818.2978515625 870.9 818.15
L 871 818
Q 894.6716796875 782.3453125 873.15 740.75 872.9880859375 740.4345703125 872.8 740.15
L 834.5 675.15
Q 834.3380859375 674.7580078125 834.05 674.35 821.0900390625 655.9568359375 829.25 646.1 829.274609375 646.0802734375 829.3 646.05 838.23828125 637.5974609375 842.1 623.2 844.8384765625 618.1728515625 861.7 612.25
L 941.6 588.95
Q 941.6765625 588.92890625 941.75 588.9 941.8333984375 588.8748046875 941.9 588.85
L 941.95 588.8
Q 977.385546875 577.3400390625 988.8 541.9 988.965234375 541.3626953125 989 540.8 996.5685546875 504.5255859375 992.2 466.3 992.1427734375 465.90859375 992.05 465.55 983.4876953125 423.7484375 938.95 409.6 938.5189453125 409.45625 938.1 409.4
L 865.2 390.5
Q 864.8013671875 390.3771484375 864.35 390.3 841.2548828125 386.270703125 835.7 372.15 833.9939453125 362.483984375 828.2 352.75 828.1265625 352.6537109375 828.05 352.55 822.52890625 342.255078125 833.7 328.55
L 833.8 328.4
Q 834.2037109375 327.95703125 834.45 327.45
L 872.85 262.25
Q 873.01015625 262.01640625 873.15 261.75 894.6533203125 220.18671875 871.05 184.6
L 870.9 184.4
Q 870.810546875 184.221484375 870.65 184.05
L 870.5 183.85
Q 846.634765625 153.8505859375 815.6 133.45
M 372.65 365.75
L 372.7 365.7
Q 428.05 310.35 506.35 310.35 584.65 310.35 640 365.7 695.4 421.1 695.4 499.4 695.4 577.7 640.05 633.05 640 633.05 640 633.1 584.65 688.45 506.35 688.45 428.05 688.45 372.65 633.05 317.3 577.7 317.3 499.4 317.3 421.1 372.65 365.75 Z"/>

<path fill="#FFB0A9" stroke="none" d="
M 372.7 365.7
L 372.65 365.75
Q 317.3 421.1 317.3 499.4 317.3 577.7 372.65 633.05 428.05 688.45 506.35 688.45 584.65 688.45 640 633.1 640 633.05 640.05 633.05 695.4 577.7 695.4 499.4 695.4 421.1 640 365.7 584.65 310.35 506.35 310.35 428.05 310.35 372.7 365.7
M 506.35 425.35
Q 537.05 425.35 558.7 447 580.4 468.7 580.4 499.4 580.4 530.05 558.75 551.75
L 558.7 551.8
Q 537 573.45 506.35 573.45 475.65 573.45 453.95 551.75 432.3 530.1 432.3 499.4 432.3 468.75 453.95 447.05 453.95 447 454 447 475.7 425.35 506.35 425.35 Z"/>
</g>
</g>
</g>
</g>
</svg>