<svg xmlns="http://www.w3.org/2000/svg" version="1.1" xmlns:xlink="http://www.w3.org/1999/xlink" preserveAspectRatio="none" x="0px" y="0px" width="1000px" height="852px" viewBox="0 0 1000 852">
<defs/>

<g id="share">
<g transform="matrix( 1.03521728515625, 0, 0, 1.03466796875, -17.55,-78.65) ">
<g>
<g>
<path fill="#FF797D" stroke="none" d="
M 676.2 79
Q 676.12421875 79.058984375 676 79.1 654.0259765625 87.19453125 654.35 118.3
L 654.35 250.95
Q 653.2904296875 263.2931640625 637.55 262.85
L 637.3 262.85
Q 637.0404296875 262.84296875 636.75 262.85 636.6732421875 262.851953125 636.6 262.85
L 636.35 262.85
Q 418.7763671875 268.4705078125 269.85 367.05 269.3052734375 367.358984375 268.75 367.75 134.3755859375 463.3849609375 70.95 612.2 70.83359375 612.5060546875 70.7 612.8 19.705078125 735.962890625 16.95 857.25
L 16.95 857.5
Q 16.9455078125 857.7265625 16.95 857.9
L 16.95 858.4
Q 17.9041015625 898.237890625 54.6 899.4 54.823046875 899.4078125 55 899.4 55.0939453125 899.4044921875 55.15 899.4 87.518359375 901.358984375 91.85 846.75 108.2498046875 718.93984375 202.6 634.9 261.23203125 584.3810546875 314 554.7 427.110546875 497.4466796875 632.4 488.25
L 632.95 488.2
Q 652.337890625 487.5578125 653.25 506.2
L 653.25 633.05
Q 653.243359375 659.9423828125 674.7 669.75
L 674.95 669.85
Q 675.123828125 669.93125 675.3 670
L 675.5 670.1
Q 703.571484375 682.2591796875 727.95 657.7
L 966.65 417.5
Q 967.0892578125 417.1015625 967.5 416.6
L 968.15 415.75
Q 968.1912109375 415.7244140625 968.2 415.65 968.3974609375 415.4212890625 968.55 415.15 998.9025390625 370.075390625 965.2 331.55
L 964.95 331.25
Q 964.781640625 331.060546875 964.55 330.85
L 739.25 101.7
Q 739.1375 101.5609375 739 101.4
L 738.8 101.25
Q 702.5369140625 67.2373046875 676.2 79 Z"/>
</g>
</g>
</g>
</g>
</svg>