<svg xmlns="http://www.w3.org/2000/svg" version="1.1" xmlns:xlink="http://www.w3.org/1999/xlink" preserveAspectRatio="none" x="0px" y="0px" width="1000px" height="1000px" viewBox="0 0 1000 1000">
<defs/>

<g id="smile">
<g transform="matrix( 1.0616912841796875, 0, 0, 1.0616912841796875, -32.85,-16.25) ">
<g>
<g>
<path fill="#FF797D" stroke="none" d="
M 972.85 486.25
Q 972.85 291.15 834.95 153.25 697 15.3 501.9 15.3 306.8 15.3 168.9 153.25 30.95 291.15 30.95 486.25 30.95 681.35 168.9 819.3 306.8 957.2 501.9 957.2 697 957.2 834.95 819.3 972.85 681.35 972.85 486.25
M 894.05 486.25
Q 894.05 648.7 779.2 763.6 664.3 878.45 501.9 878.45 339.45 878.45 224.6 763.6 109.7 648.7 109.7 486.25 109.7 323.85 224.6 209 339.45 94.1 501.9 94.1 664.3 94.1 779.2 209 894.05 323.85 894.05 486.25
M 287.55 426.8
Q 270.25 444.15 270.25 468.65 270.25 493.15 287.55 510.45 304.9 527.8 329.4 527.8 353.9 527.8 371.2 510.45 388.55 493.15 388.55 468.65 388.55 444.15 371.2 426.8 353.9 409.5 329.4 409.5 304.9 409.5 287.55 426.8
M 660.85 679.6
Q 662.516015625 664.2115234375 652.75 652.1 642.9814453125 640.0021484375 627.6 638.35 612.2185546875 636.683984375 600.05 646.4 510.4109375 717.2787109375 407.2 644.9 394.487109375 635.998828125 379.25 638.65 364.00625 641.3537109375 355.05 654.05 346.095703125 666.8029296875 348.75 682.05 351.463671875 697.2904296875 364.15 706.3 515.60078125 812.529296875 647.15 704.75 659.1908203125 694.9814453125 660.85 679.6
M 720.95 426.8
Q 703.65 409.5 679.15 409.5 654.65 409.5 637.3 426.8 620 444.15 620 468.65 620 493.15 637.3 510.45 654.65 527.8 679.15 527.8 703.65 527.8 720.95 510.45 738.3 493.15 738.3 468.65 738.3 444.15 720.95 426.8 Z"/>
</g>
</g>
</g>
</g>
</svg>