<svg xmlns="http://www.w3.org/2000/svg" version="1.1" xmlns:xlink="http://www.w3.org/1999/xlink" preserveAspectRatio="none" x="0px" y="0px" width="1000px" height="1000px" viewBox="0 0 1000 1000">
<defs/>

<g id="sun">
<g transform="matrix( 1.0283203125, 0, 0, 1.02960205078125, -17.75,-12) ">
<g>
<g>
<path fill="#FF797D" stroke="none" d="
M 525.9 821.9
Q 516.4 812.35 502.95 812.35 489.5 812.35 479.95 821.9 470.45 831.4 470.45 844.85
L 470.45 950.4
Q 470.45 963.85 479.95 973.4 489.5 982.9 502.95 982.9 516.4 982.9 525.9 973.4 535.45 963.85 535.45 950.4
L 535.45 844.85
Q 535.45 831.4 525.9 821.9
M 280.1 719.15
Q 270.55 709.7 257.05 709.75 243.6 709.85 234.15 719.4
L 159.9 794.45
Q 150.45 804 150.5 817.45 150.6 830.95 160.15 840.4 169.7 849.85 183.15 849.75 196.65 849.7 206.1 840.15
L 280.35 765.1
Q 289.8 755.55 289.7 742.05 289.65 728.6 280.1 719.15
M 178.3 520.05
Q 187.8 510.5 187.8 497.05 187.8 483.6 178.3 474.1 168.75 464.55 155.3 464.55
L 49.75 464.55
Q 36.3 464.55 26.8 474.1 17.25 483.6 17.25 497.05 17.25 510.5 26.8 520.05 36.3 529.55 49.75 529.55
L 155.3 529.55
Q 168.75 529.55 178.3 520.05
M 206.1 152.9
Q 196.65 143.35 183.15 143.3 169.7 143.2 160.15 152.65 150.6 162.1 150.5 175.6 150.45 189.05 159.9 198.6
L 234.15 273.65
Q 243.6 283.2 257.05 283.3 270.55 283.35 280.1 273.9 289.65 264.45 289.7 251 289.8 237.5 280.35 227.95
L 206.1 152.9
M 523.15 18.7
Q 514.50625 11.65 502.95 11.65 491.39375 11.65 482.7 18.7 481.29453125 19.85546875 479.95 21.2 470.45 30.7 470.45 44.15
L 470.45 149.7
Q 470.45 163.15 479.95 172.7 489.5 182.2 502.95 182.2 516.4 182.2 525.9 172.7 535.45 163.15 535.45 149.7
L 535.45 44.15
Q 535.45 30.7 525.9 21.2 524.5625 19.85546875 523.15 18.7
M 673.85 665.35
Q 744.15 595.05 744.15 495.65 744.15 396.25 673.85 325.95 603.55 255.65 504.15 255.65 404.8 255.65 334.45 325.95 264.15 396.25 264.15 495.65 264.15 595.05 334.45 665.35 404.8 735.65 504.15 735.65 603.55 735.65 673.85 665.35
M 726.85 719.15
Q 717.3 728.6 717.2 742.1 717.15 755.55 726.6 765.1
L 800.85 840.15
Q 810.3 849.7 823.75 849.8 837.25 849.85 846.8 840.4 856.35 830.95 856.4 817.5 856.5 804 847.05 794.45
L 772.8 719.4
Q 763.35 709.85 749.85 709.8 736.4 709.7 726.85 719.15
M 851.65 464.55
Q 838.2 464.55 828.7 474.1 819.15 483.6 819.15 497.05 819.15 510.5 828.7 520.05 838.2 529.55 851.65 529.55
L 957.2 529.55
Q 970.65 529.55 980.2 520.05 989.7 510.5 989.7 497.05 989.7 483.6 980.2 474.1 970.65 464.55 957.2 464.55
L 851.65 464.55
M 846.8 152.65
Q 837.25 143.2 823.75 143.25 810.3 143.35 800.85 152.9
L 726.6 227.95
Q 717.15 237.5 717.2 250.95 717.3 264.45 726.85 273.9 736.4 283.35 749.85 283.25 763.35 283.2 772.8 273.65
L 847.05 198.6
Q 856.5 189.05 856.4 175.55 856.35 162.1 846.8 152.65 Z"/>
</g>
</g>
</g>
</g>
</svg>