<svg xmlns="http://www.w3.org/2000/svg" version="1.1" xmlns:xlink="http://www.w3.org/1999/xlink" preserveAspectRatio="none" x="0px" y="0px" width="1000px" height="990px" viewBox="0 0 1000 990">
<defs/>

<g id="tag">
<g>
<g>
<g>
<path fill="#FF797D" stroke="none" d="
M 960.95 197.4
Q 960.9 197.3 960.85 197.25
L 948.25 184
Q 948 183.75 947.75 183.6 924.25 160.55 896.25 149.7 867.35 138.45 833.65 140.05
L 611.45 140.05
Q 557.8 140.85 539.9 161.3
L 480.45 219.9
Q 480.3 220.05 480.2 220.2 479.15 221.2 478.05 222.25
L 173.55 530.1
Q 149.45 554.5 150.2 589.3 151.05 624.2 176.25 649.1
L 495.05 964.65
Q 520.2 989.6 554.95 990 589.85 990.45 613.95 966.1
L 918.45 658.2
Q 919.65 657 920.85 655.7
L 978.55 597.15
Q 978.6 597.1 978.65 597.05 998.95 579.1 999.75 525.6
L 999.75 303.25
Q 1002.95 236.25 960.95 197.4
M 755.6 325.55
Q 752.85 315 752.85 303.2 752.85 267.9 777.75 242.95 802.75 218.05 838 218.05 839.95 218.05 841.85 218.15 874.65 219.4 898.15 242.95 916.3 261.1 921.25 284.75 923.15 293.6 923.15 303.2 923.15 312.85 921.25 321.75 916.3 345.35 898.15 363.45 873.25 388.4 838 388.4 802.75 388.4 777.75 363.45 761.15 346.8 755.6 325.55 Z"/>

<path fill="#FF585D" stroke="none" d="
M 839.05 97.35
Q 829.3 74.65 810.8 57.5 810.75 57.45 810.7 57.4
L 798.05 44.15
Q 797.8 43.9 797.6 43.75 749.9 -3 683.5 0.2
L 461.25 0.2
Q 407.6 1 389.75 21.45
L 330.3 80.05
Q 330.15 80.2 330 80.35 328.95 81.3 327.9 82.4
L 23.4 390.25
Q -0.75 414.65 0 449.45 0.85 484.35 26.1 509.25
L 80.75 563.35
Q 72.2 546.55 71.7 526.55 70.95 491.75 95.05 467.35
L 399.55 159.45
Q 400.65 158.4 401.7 157.45 401.8 157.3 401.95 157.15
L 461.4 98.5
Q 479.3 78.05 532.95 77.25
L 755.15 77.25
Q 801.7 75.05 839.05 97.35 Z"/>
</g>
</g>
</g>
</g>
</svg>