<svg xmlns="http://www.w3.org/2000/svg" version="1.1" xmlns:xlink="http://www.w3.org/1999/xlink" preserveAspectRatio="none" x="0px" y="0px" width="1000px" height="1000px" viewBox="0 0 1000 1000">
<defs/>

<g id="tool">
<g transform="matrix( 1.0885467529296875, 0, 0, 1.091644287109375, -26.5,-64.1) ">
<g>
<g>
<path fill="#FF797D" stroke="none" d="
M 741.65 68.95
Q 740.4685546875 67.430859375 739.65 65.8 709.2890625 58.7 675.95 58.7 565.35 58.7 487.1 136.9 408.9 215.15 408.9 325.75 408.9 377.0908203125 425.75 421.45
L 178.25 668.95
Q 177.74921875 668.95 177.25 668.95 113.95 668.95 69.1 713.7 24.35 758.55 24.35 821.85 24.35 885.2 69.1 929.95 113.95 974.75 177.25 974.75 240.6 974.75 285.35 929.95 329.40078125 885.9484375 330.15 823.95
L 578.75 575.35
Q 623.739453125 592.8 675.95 592.8 786.55 592.8 864.75 514.55 943 436.35 943 325.75 943 277.7828125 928.25 235.9 923.4986328125 230.6494140625 917.85 229.8 909.66328125 229.9892578125 899.45 237.05
L 809.25 330.5
Q 809.1953125 330.57890625 809.15 330.6 809.0509765625 330.7380859375 808.95 330.85 785.4849609375 357.49921875 747.05 358.7
L 746.45 358.75
Q 745.898828125 358.7662109375 745.35 358.75
L 701.75 358.75
Q 662.2095703125 361.795703125 644.65 342.5 625.3078125 324.884765625 628.9 286.05
L 628.9 243.1
Q 628.8978515625 242.9505859375 628.9 242.8
L 628.9 242.35
Q 630.0046875 189.0041015625 661.75 171.7
L 742.7 102.2
Q 753.5728515625 84.5927734375 741.65 68.95
M 175.95 743.9
Q 207 743.9 228.95 765.85 250.9 787.8 250.9 818.85 250.9 849.9 228.95 871.85 207 893.8 175.95 893.8 144.9 893.8 122.95 871.85 101 849.9 101 818.85 101 787.8 122.95 765.85 144.9 743.9 175.95 743.9 Z"/>
</g>
</g>
</g>
</g>
</svg>