<svg xmlns="http://www.w3.org/2000/svg" version="1.1" xmlns:xlink="http://www.w3.org/1999/xlink" preserveAspectRatio="none" x="0px" y="0px" width="1000px" height="910px" viewBox="0 0 1000 910">
<defs/>

<g id="triangle">
<g transform="matrix( 1.0095367431640625, 0, 0, 1.0108795166015625, -4.15,-49.75) ">
<g>
<g>
<path fill="#FF797D" stroke="none" d="
M 994.1 225.05
Q 994.097265625 225.0060546875 994.1 224.95 998.84140625 152.7302734375 960.65 104.35 960.59609375 104.3115234375 960.55 104.25 916.73203125 46.6421875 848.35 49.3
L 159.9 49.3
Q 102.030859375 50.6162109375 67.1 80 66.9888671875 80.090234375 66.9 80.2 17.16484375 118.74609375 5.8 182.2 5.758984375 182.4052734375 5.75 182.6 -1.6466796875 230.2431640625 24.55 281 24.6423828125 281.1740234375 24.75 281.35
L 24.75 281.4 368.55 877.8
Q 368.6453125 878.06796875 368.8 878.3 387.807421875 905.942578125 411.6 922.5 411.7541015625 922.66171875 411.95 922.8 469.71796875 961.6947265625 541.65 943.75 541.7720703125 943.73203125 541.9 943.7 599.25 928.6 630.25 879.05 630.27734375 879.00078125 630.3 878.95
L 975.1 283.7
Q 975.162890625 283.58671875 975.2 283.45 991.9294921875 255.1052734375 994.1 225.05 Z"/>
</g>
</g>
</g>
</g>
</svg>