<svg xmlns="http://www.w3.org/2000/svg" version="1.1" xmlns:xlink="http://www.w3.org/1999/xlink" preserveAspectRatio="none" x="0px" y="0px" width="1000px" height="1000px" viewBox="0 0 1000 1000">
<defs/>

<g id="twitter">
<g>
<g>
<g>
<path fill="#FF797D" stroke="none" d="
M 919.45 80.55
Q 838.9 0 725 0
L 275 0
Q 161.1 0 80.55 80.55 0 161.1 0 275
L 0 725
Q 0 838.9 80.55 919.45 161.1 1000 275 1000
L 725 1000
Q 838.9 1000 919.45 919.45 1000 838.9 1000 725
L 1000 275
Q 1000 161.1 919.45 80.55
M 731.55 188.35
Q 739.0380859375 179.7216796875 750.35 178.85 761.66484375 177.9732421875 770.3 185.4 778.9798828125 192.8333984375 779.85 204.15 780.7220703125 215.4630859375 773.3 224.15
L 586.4 442.15 835.5 779.3
Q 838.1068359375 782.872265625 839.45 786.7
L 840.5 791.05
Q 841.11796875 794.5126953125 840.75 798.2 840.415234375 802.2203125 838.95 805.75
L 836.15 811.05
Q 835.113671875 812.6255859375 833.8 814
L 833.05 814.8
Q 832.9337890625 814.966015625 832.8 815.1 829.2328125 818.665234375 825 820.6
L 820.05 822.35
Q 816.813671875 823.203125 813.35 823.15
L 638.4 823.15
Q 637.698828125 823.1693359375 636.95 823.15
L 636.05 823.1
Q 631.4359375 822.940234375 627.4 821.35
L 622.3 818.75 620 817.05
Q 618.57265625 815.919140625 617.25 814.5 615.3853515625 812.5314453125 613.95 810.35
L 455.1 595.35 267.8 813.85
Q 260.3619140625 822.478125 249.05 823.35 237.73515625 824.2265625 229.05 816.8 220.4201171875 809.36640625 219.55 798.05 218.6779296875 786.73671875 226.05 778.05
L 421.6 549.95 180.5 223.65
Q 178.2755859375 220.9439453125 176.85 217.9
L 175.1 212.9 174.35 207.95
Q 174.31953125 206.9099609375 174.35 205.8
L 174.35 204.9
Q 174.8287109375 194.3755859375 182.4 186.8 186.8869140625 182.315625 192.4 180.35
L 194.8 179.6 198.25 178.95
Q 200.605078125 178.619921875 203.05 178.75
L 376.15 178.75
Q 377.7111328125 178.6650390625 379.3 178.75
L 381.35 178.95
Q 384.2169921875 179.275390625 386.8 180.15
L 391.15 182.05 395.9 185.4
Q 396.844140625 186.2369140625 397.7 187.15
L 400.05 189.9 552.9 396.8 731.55 188.35
M 651.2 768.15
L 758.85 768.15 364.05 233.75 256.4 233.75 651.2 768.15 Z"/>
</g>
</g>
</g>
</g>
</svg>