<svg xmlns="http://www.w3.org/2000/svg" version="1.1" xmlns:xlink="http://www.w3.org/1999/xlink" preserveAspectRatio="none" x="0px" y="0px" width="1000px" height="1000px" viewBox="0 0 1000 1000">
<defs/>

<g id="user">
<g>
<g>
<g>
<path fill="#FF797D" stroke="none" d="
M 1000 500
Q 1000 292.9 853.55 146.4 707.15 0 500 0 292.85 0 146.4 146.4 0 292.9 0 500 0 707.15 146.4 853.55 292.85 1000 500 1000 707.15 1000 853.55 853.55 1000 707.15 1000 500
M 655.9 266.75
Q 655.9 266.8 655.95 266.85 667.85 322.25 654.85 372.1
L 654.85 372.05
Q 650.8 388.15 654.9 393.1
L 654.75 393
Q 676.15 411.9 655.55 448.6 655.55 448.65 655.5 448.7 644.55 469.25 631.7 470.55 619.6 529.25 583.7 550.25
L 583.7 612.95
Q 591.15 634.5 622.15 651.55 655.55 666.6 689.25 673.65 689.3 673.65 689.35 673.65 756.9 689.6 787.05 729.4 787.1 729.4 787.15 729.5 807.4 754.25 811.65 768.65 811.7 768.75 811.75 768.9 817.55 795.1 802.45 810.3 802.4 810.35 802.35 810.4 750.05 860.05 672.4 890.75
L 672.35 890.75
Q 556.2 939.85 414.1 914.2
L 414.05 914.2
Q 289.05 890.2 205.45 809.2 205.35 809.1 205.3 809.05 186.8 789.6 200.55 762.5
L 200.55 762.45
Q 230.8 704.6 299.05 679.9 299.1 679.9 299.2 679.9 319.9 673.2 335.2 670.5 335.25 670.5 335.3 670.5 378.75 664.1 419.05 627.5 424.2 620.6 424.05 610
L 424.05 556.55
Q 422.15 548.5 417.15 545.15 416.8 544.9 416.45 544.6 377.05 506.05 377.75 475.9
L 377.75 475.85
Q 377.7 468.3 369.9 465.45 369.8 465.4 369.7 465.3 351.75 457.55 349.4 431.5 339.65 404.45 358.45 389.6 358.5 389.5 358.55 389.5 361.1 386.75 357.45 379.65 357.35 379.5 357.3 379.35 333.4 317.9 357.25 249.1 357.25 249.05 357.3 249 382.9 182.05 453.4 158.95 502.2 140.85 550.6 164.05 550.65 164.1 550.7 164.1 573.15 176.1 577.7 191.45
L 577.7 191.4
Q 581.7 203.2 594.85 201.65 594.9 201.55 594.95 201.65 639.4 196.75 655.9 266.75 Z"/>
</g>
</g>
</g>
</g>
</svg>