<svg xmlns="http://www.w3.org/2000/svg" version="1.1" xmlns:xlink="http://www.w3.org/1999/xlink" preserveAspectRatio="none" x="0px" y="0px" width="1000px" height="1000px" viewBox="0 0 1000 1000">
<defs/>

<g id="whatsapp">
<g transform="matrix( 1, 0, 0, 1, -0.35,-1.45) ">
<g>
<g>
<path fill="#FF797D" stroke="none" d="
M 1000.35 501.45
Q 1000.35 294.35 853.9 147.85 707.5 1.45 500.35 1.45 293.2 1.45 146.75 147.85 0.35 294.35 0.35 501.45 0.35 635.3060546875 61.45 743.8 61.6494140625 744.7076171875 62 745.6 72.773046875 773.727734375 64.65 798
L 3.4 953.05
Q 2.83671875 954.487890625 2.7 955.9 0.35 961.5548828125 0.35 968.2 0.35 981.35 9.65 990.7 18.95 1000 32.15 1000 40.7998046875 1000 47.75 996
L 200.45 941.5
Q 200.5310546875 941.495703125 200.6 941.45 231.083984375 932.0150390625 257.05 941.4 259.0740234375 942.1427734375 261.05 942 368.39375 1001.45 500.35 1001.45 707.5 1001.45 853.9 855 1000.35 708.6 1000.35 501.45
M 662.1 562.6
Q 662.4 562.8 662.8 563
L 722.9 597.65
Q 723.05 597.75 723.25 597.85
L 723.45 598
Q 744.8 611.6 744.95 634.15 745.8 653.95 727.85 681.35
L 727.7 681.55
Q 727.65 681.65 727.6 681.7
L 727.45 681.9
Q 679.25 753.5 571.8 722.8 571.35 722.7 570.95 722.55 458.3 687.45 382.05 608.75
L 381.85 608.6
Q 381.8 608.55 381.8 608.5
L 381.6 608.35
Q 250.05 475 255.2 397.95 254.6 313.5 302.75 281.75 303.1 281.45 303.5 281.25 330.6 264.4 351.2 269.1 372.9 272.8 387.2 298.75 387.5 299.25 387.75 299.8
L 415.25 359.05
Q 431.05 384 425.55 404.6 421.1 425 396.25 440.7 383.5 455.7 398.65 487.35 444 569.15 531 605.3
L 531.25 605.4
Q 531.35 605.45 531.5 605.55
L 531.75 605.65
Q 554.25 615.65 576.7 605.9 588.4 597.65 598.3 579.65 598.45 579.3 598.65 579.05 620.25 540.4 662.1 562.6 Z"/>
</g>
</g>
</g>
</g>
</svg>