
<svg xmlns="http://www.w3.org/2000/svg" version="1.1" xmlns:xlink="http://www.w3.org/1999/xlink" preserveAspectRatio="none" x="0px" y="0px" width="1000px" height="1000px" viewBox="0 0 1000 1000">
<defs/>

<g id="world">
<g>
<g>
<path stroke="#FF797D" stroke-width="60" stroke-linejoin="round" stroke-linecap="round" fill="none" d="
M 500.6 33.05
L 500.6 33.2
Q 636.8640625 117.6541015625 707.65 224.975 760.7369140625 191.387109375 794.95 137.1 669.33671875 33.1119140625 500.6 33.05 500.5005859375 33.05 500.4 33.05 323.2205078125 33.05 193.5 147.65 232.1134765625 200.862890625 288.65 232.575 359.5341796875 120.630859375 500.6 33.2
L 500.6 279.25
Q 626.2880859375 276.4220703125 707.65 224.975 791.7912109375 352.5322265625 783.4 512.4
L 967.775 512.4
Q 967.9 506.501171875 967.9 500.55 967.9 306.9 831 169.95 813.4455078125 152.3955078125 794.95 137.1
M 783.4 512.4
Q 775.7380859375 647.6783203125 704.4 762.05 759.690234375 795.9982421875 794.95 851.95
M 967.775 512.4
Q 963.69296875 698.40703125 831 831.1 694.17109375 967.97890625 500.6 968.05 500.5005859375 968.05 500.4 968.05 306.75 968.05 169.8 831.1 37.10703125 698.40703125 33.025 512.4 32.9 506.501171875 32.9 500.55 32.9 306.9 169.8 169.95 181.4478515625 158.30625 193.5 147.65
M 217.8 512.4
Q 225.204296875 643.2447265625 292.2 754.525 376.7443359375 708.562109375 500.6 709.8
L 500.6 512.4 217.8 512.4
Q 209.6673828125 357.274609375 288.65 232.575 374.135546875 280.5 500.6 279.25
L 500.6 512.4 783.4 512.4
M 33.025 512.4
L 217.8 512.4
M 500.6 709.8
Q 623.782421875 712.5578125 704.4 762.05 633.7259765625 875.3021484375 500.6 968.05 363.058203125 872.2341796875 292.2 754.525 233.3177734375 786.5171875 193.5 841.4
M 500.6 709.8
L 500.6 968.05"/>
</g>
</g>
</g>
</svg>
