<svg xmlns="http://www.w3.org/2000/svg" version="1.1" xmlns:xlink="http://www.w3.org/1999/xlink" preserveAspectRatio="none" x="0px" y="0px" width="1000px" height="1000px" viewBox="0 0 1000 1000">
<defs/>

<g id="x">
<g>
<g>
<g>
<path fill="#FF797D" stroke="none" d="
M 999.95 87.45
Q 999.9 51.35 974.1 25.65 948.35 0 912.2 0.05 876.1 0.1 850.4 25.65
L 500 376.1 149.6 25.65
Q 123.9 0 87.6 0 51.35 0 25.65 25.65 0 51.35 0 87.6 0 123.9 25.65 149.6
L 376.1 500 25.65 850.4
Q 0 876.1 0 912.35 0 948.65 25.65 974.35 51.35 1000 87.6 1000 123.9 1000 149.6 974.35
L 500 623.95 850.4 974.35
Q 876.1 1000 912.35 1000 948.65 1000 974.35 974.35 1000 948.65 1000 912.35 1000 876.1 974.35 850.4
L 623.95 500 974.35 149.6
Q 1000 123.6 999.95 87.45 Z"/>
</g>
</g>
</g>
</g>
</svg>