<svg width="30" height="37" viewBox="0 0 30 37" fill="none" xmlns="http://www.w3.org/2000/svg">
<path d="M10 10.6419V4.56082M20 10.6419V4.56082M8.75 16.723H21.25M6.25 31.9257H23.75C24.413 31.9257 25.0489 31.6053 25.5178 31.0351C25.9866 30.4649 26.25 29.6915 26.25 28.8851V10.6419C26.25 9.8355 25.9866 9.06213 25.5178 8.49192C25.0489 7.9217 24.413 7.60136 23.75 7.60136H6.25C5.58696 7.60136 4.95107 7.9217 4.48223 8.49192C4.01339 9.06213 3.75 9.8355 3.75 10.6419V28.8851C3.75 29.6915 4.01339 30.4649 4.48223 31.0351C4.95107 31.6053 5.58696 31.9257 6.25 31.9257Z" stroke="#18181B" stroke-width="2" stroke-linecap="round" stroke-linejoin="round"/>
</svg>
