<svg width="46" height="46" viewBox="0 0 46 46" fill="none" xmlns="http://www.w3.org/2000/svg">
<g clip-path="url(#clip0_120_77)">
<path d="M24.9166 13.5432C28.5278 14.0327 31.8183 15.8754 34.1227 18.6984C36.4271 21.5215 37.5735 25.1143 37.33 28.7503C37.0865 32.3863 35.4714 35.7942 32.8111 38.2849C30.1509 40.7755 26.6441 42.1629 23 42.1667C19.3513 42.1702 15.8379 40.7861 13.1719 38.2951C10.506 35.8041 8.887 32.3926 8.64323 28.7521C8.39945 25.1116 9.54913 21.5147 11.8592 18.6905C14.1692 15.8663 17.4668 14.0261 21.0833 13.5432V1.91667H24.9166V13.5432ZM23 38.3333C25.7958 38.3333 28.4771 37.2227 30.454 35.2458C32.431 33.2688 33.5416 30.5875 33.5416 27.7917C33.5416 24.9958 32.431 22.3145 30.454 20.3376C28.4771 18.3606 25.7958 17.25 23 17.25C20.2041 17.25 17.5228 18.3606 15.5459 20.3376C13.5689 22.3145 12.4583 24.9958 12.4583 27.7917C12.4583 30.5875 13.5689 33.2688 15.5459 35.2458C17.5228 37.2227 20.2041 38.3333 23 38.3333Z" fill="#03053D"/>
</g>
<defs>
<clipPath id="clip0_120_77">
<rect width="46" height="46" fill="white"/>
</clipPath>
</defs>
</svg>
