<svg width="27" height="25" viewBox="0 0 27 25" fill="none" xmlns="http://www.w3.org/2000/svg">
<g clip-path="url(#clip0_120_107)">
<path d="M2.25 9.36876C2.24941 8.54814 2.42365 7.73547 2.76274 6.97729C3.10183 6.2191 3.59912 5.5303 4.22612 4.95032C4.85312 4.37035 5.59752 3.91059 6.4167 3.59737C7.23587 3.28416 8.11373 3.12364 9 3.12501H18C21.7271 3.12501 24.75 5.9323 24.75 9.36876V21.875H9C5.27288 21.875 2.25 19.0677 2.25 15.6313V9.36876ZM22.5 19.7917V9.36876C22.497 8.26511 22.0217 7.20755 21.1783 6.42774C20.3348 5.64792 19.1919 5.20944 18 5.20834H9C8.40921 5.20697 7.82393 5.3136 7.27774 5.52212C6.73154 5.73064 6.23518 6.03694 5.81711 6.42346C5.39904 6.80998 5.06749 7.26912 4.84147 7.77454C4.61545 8.27996 4.49941 8.82172 4.5 9.36876V15.6313C4.50298 16.7349 4.97825 17.7925 5.82172 18.5723C6.66518 19.3521 7.80806 19.7906 9 19.7917H22.5ZM15.75 11.4583H18V13.5417H15.75V11.4583ZM9 11.4583H11.25V13.5417H9V11.4583Z" fill="white"/>
</g>
<defs>
<clipPath id="clip0_120_107">
<rect width="27" height="25" fill="white"/>
</clipPath>
</defs>
</svg>
