<svg width="19" height="5" viewBox="0 0 19 5" fill="none" xmlns="http://www.w3.org/2000/svg">
<path d="M2.57102 4.22159C2.00852 4.22159 1.52557 4.02273 1.12216 3.625C0.724432 3.22159 0.525568 2.73864 0.525568 2.17614C0.525568 1.61932 0.724432 1.14205 1.12216 0.744318C1.52557 0.346591 2.00852 0.147727 2.57102 0.147727C3.11648 0.147727 3.59375 0.346591 4.00284 0.744318C4.41193 1.14205 4.61648 1.61932 4.61648 2.17614C4.61648 2.55114 4.51989 2.89489 4.3267 3.20739C4.1392 3.5142 3.89205 3.76136 3.58523 3.94886C3.27841 4.13068 2.94034 4.22159 2.57102 4.22159ZM9.71946 4.22159C9.15696 4.22159 8.67401 4.02273 8.2706 3.625C7.87287 3.22159 7.67401 2.73864 7.67401 2.17614C7.67401 1.61932 7.87287 1.14205 8.2706 0.744318C8.67401 0.346591 9.15696 0.147727 9.71946 0.147727C10.2649 0.147727 10.7422 0.346591 11.1513 0.744318C11.5604 1.14205 11.7649 1.61932 11.7649 2.17614C11.7649 2.55114 11.6683 2.89489 11.4751 3.20739C11.2876 3.5142 11.0405 3.76136 10.7337 3.94886C10.4268 4.13068 10.0888 4.22159 9.71946 4.22159ZM16.8679 4.22159C16.3054 4.22159 15.8224 4.02273 15.419 3.625C15.0213 3.22159 14.8224 2.73864 14.8224 2.17614C14.8224 1.61932 15.0213 1.14205 15.419 0.744318C15.8224 0.346591 16.3054 0.147727 16.8679 0.147727C17.4134 0.147727 17.8906 0.346591 18.2997 0.744318C18.7088 1.14205 18.9134 1.61932 18.9134 2.17614C18.9134 2.55114 18.8168 2.89489 18.6236 3.20739C18.4361 3.5142 18.1889 3.76136 17.8821 3.94886C17.5753 4.13068 17.2372 4.22159 16.8679 4.22159Z" fill="#FF4146"/>
</svg>
