<svg xmlns="http://www.w3.org/2000/svg" version="1.1" xmlns:xlink="http://www.w3.org/1999/xlink" preserveAspectRatio="none" x="0px" y="0px" width="1000px" height="1000px" viewBox="0 0 1000 1000">
<defs/>

<g id="discord">
<g>
<g>
<g>
<path fill="#FF797D" stroke="none" d="
M 919.45 80.55
Q 838.9 0 725 0
L 275 0
Q 161.1 0 80.55 80.55 0 161.1 0 275
L 0 725
Q 0 838.9 80.55 919.45 161.1 1000 275 1000
L 725 1000
Q 838.9 1000 919.45 919.45 1000 838.9 1000 725
L 1000 275
Q 1000 161.1 919.45 80.55
M 803.35 292.35
Q 803.4 292.45 803.45 292.55 834.35 346.25 851.35 402.1 851.35 402.25 851.4 402.4 874.7 472 886.05 535.75 886.1 535.85 886.1 535.95 897.15 596.9 899.95 658.95
L 899.95 659.05
Q 899.95 659.1 899.95 659.15
L 899.95 659.2
Q 900.7 678.6 889.45 693.4 889.45 693.45 889.4 693.45 870.15 720.65 839.4 741.65 839.15 741.8 838.95 741.95 777.95 782.25 701.2 791.25 700.95 791.3 700.7 791.3 669.8 795 657.1 778.95 656.95 778.75 656.9 778.65
L 645.25 763.7
Q 644.95 763.35 644.7 762.95 637.75 752.5 649.3 741.4
L 649.4 741.3
Q 649.4 741.25 649.45 741.25 654.15 736.35 669.95 731.8
L 669.8 731.45
Q 717.7 713.6 760 684.25 765.55 680.3 766.75 673.7 767.95 667 764.05 661.5 760.15 655.9 753.5 654.75 746.8 653.55 741.25 657.4 632 732.85 482.05 725.9 481.4 725.85 480.75 725.8 343.1 720.75 260.55 657.05 255.1 652.9 248.4 653.75 241.65 654.6 237.5 659.95 233.35 665.3 234.15 672 235 678.7 240.35 682.85 279.45 713.5 330.05 731.8
L 330 731.8
Q 330.5 731.95 330.9 732.1 335.9 733.9 341 735.55 347.7 738.3 350.5 741.25
L 350.65 741.4
Q 362.25 752.5 355.25 762.95 355 763.35 354.7 763.7
L 343.15 778.65
Q 343 778.75 342.85 778.95 330.15 795 299.3 791.3 299 791.3 298.75 791.25 222 782.25 161.05 741.95 160.8 741.8 160.55 741.65 129.8 720.65 110.55 693.45 110.5 693.45 110.5 693.4 99.25 678.6 100.05 659.25
L 100.05 658.95
Q 102.8 596.9 113.85 535.95 113.85 535.85 113.9 535.75 125.25 472 148.6 402.4 148.6 402.25 148.65 402.1 165.6 346.25 196.55 292.55 196.55 292.45 196.65 292.35 218.05 250.05 304.45 226.2 304.55 226.15 304.65 226.1 349.5 211.35 387.65 208.1 388.05 208 388.6 208 412.55 207.9 414.6 222.4 414.6 222.55 414.6 222.75 414.6 222.85 414.65 223 415.9 231.3 410.2 237.65 401.6 239 393.3 240.55 311.6 255.6 267 286.95 261.4 290.85 260.2 297.45 259 304.1 262.85 309.65 266.7 315.25 273.35 316.45 280 317.65 285.7 313.8 346.55 272.55 481.35 262.45 481.6 262.45 481.85 262.4 622.65 255.35 718.35 316.15 724.1 319.85 730.7 318.35 737.3 316.95 741 311.2 744.65 305.55 743.2 298.95 741.7 292.35 736.05 288.7 678.25 251.5 605.2 237.5 596.4 235.8 587.45 234.45 584.4 229.3 585.35 223 585.35 222.85 585.35 222.75 585.35 222.55 585.4 222.4 587.4 207.9 611.35 208 611.9 208 612.35 208.1 650.45 211.35 695.3 226.1 695.4 226.15 695.55 226.2 781.9 250.05 803.35 292.35
M 387.1 467.65
Q 362.05 467.65 344.35 487.85 326.65 508.05 326.65 536.65 326.65 565.2 344.35 585.4 362.05 605.6 387.1 605.6 412.1 605.6 429.85 585.4 447.55 565.2 447.55 536.65 447.55 508.05 429.85 487.85 412.1 467.65 387.1 467.65
M 655.4 585.4
Q 673.1 565.2 673.1 536.65 673.1 508.05 655.4 487.85 637.65 467.65 612.65 467.65 587.6 467.65 569.9 487.85 552.2 508.05 552.2 536.65 552.2 565.2 569.9 585.4 587.6 605.6 612.65 605.6 637.65 605.6 655.4 585.4 Z"/>
</g>
</g>
</g>
</g>
</svg>