<svg xmlns="http://www.w3.org/2000/svg" version="1.1" xmlns:xlink="http://www.w3.org/1999/xlink" preserveAspectRatio="none" x="0px" y="0px" width="1000px" height="1000px" viewBox="0 0 1000 1000">
<defs/>

<g id="facebook">
<g>
<g>
<g>
<path fill="#FF797D" stroke="none" d="
M 690.2 233.85
Q 710.819140625 254.3384765625 710.9 283.2 710.9794921875 312.0955078125 690.5 332.65 670.0166015625 353.270703125 641.2 353.4 578.2091796875 355.175390625 571.35 421.55
L 571.05 493.35 641.3 493.35
Q 668.15 493.35 687.1 513.85 706.1 534.35 706.1 563.35 706.1 592.35 687.1 612.85 668.15 633.35 641.3 633.35
L 570.45 633.35 568.8 1000 725 1000
Q 838.9 1000 919.45 919.45 1000 838.9 1000 725
L 1000 275
Q 1000 161.1 919.45 80.55 838.9 0 725 0
L 275 0
Q 161.1 0 80.55 80.55 0 161.1 0 275
L 0 725
Q 0 838.9 80.55 919.45 161.1 1000 275 1000
L 428.8 1000 430.45 633.35 396.3 633.35
Q 369.45 633.35 350.5 612.85 331.55 592.35 331.55 563.35 331.55 534.35 350.5 513.85 369.45 493.35 396.3 493.35
L 431.05 493.35 431.6 412.75
Q 431.6560546875 411.9904296875 431.7 411.25
L 431.95 408.75
Q 450.32890625 212.573828125 640.65 213.4 669.640625 213.3689453125 690.2 233.85 Z"/>
</g>
</g>
</g>
</g>
</svg>