<svg xmlns="http://www.w3.org/2000/svg" version="1.1" xmlns:xlink="http://www.w3.org/1999/xlink" preserveAspectRatio="none" x="0px" y="0px" width="1000px" height="1000px" viewBox="0 0 1000 1000">
<defs/>

<g id="instagram">
<g>
<g>
<g>
<path fill="#FF797D" stroke="none" d="
M 919.45 80.55
Q 838.9 0 725 0
L 275 0
Q 161.1 0 80.55 80.55 0 161.1 0 275
L 0 725
Q 0 838.9 80.55 919.45 161.1 1000 275 1000
L 725 1000
Q 838.9 1000 919.45 919.45 1000 838.9 1000 725
L 1000 275
Q 1000 161.1 919.45 80.55
M 763.85 188.9
Q 777.8 175 797.5 175 817.15 175 831.05 188.9 845 202.8 845 222.5 845 242.2 831.05 256.05 817.15 270 797.5 270 777.8 270 763.85 256.05 750 242.2 750 222.5 750 202.8 763.85 188.9
M 676.8 676.75
L 676.8 676.7
Q 603.55 750 500.05 750 396.5 750 323.25 676.75 250 603.5 250 500 250 396.45 323.25 323.25 396.5 250 500.05 250 603.55 250 676.8 323.25 750 396.45 750 500 750 603.5 676.8 676.75
M 615.6 384.45
L 615.6 384.4
Q 567.7 336.5 500.05 336.5 432.35 336.5 384.45 384.45 336.55 432.3 336.55 500 336.55 567.65 384.45 615.55 432.35 663.45 500.05 663.45 567.7 663.45 615.6 615.55 663.45 567.65 663.45 500 663.45 432.3 615.6 384.45 Z"/>
</g>
</g>
</g>
</g>
</svg>