<svg xmlns="http://www.w3.org/2000/svg" version="1.1" xmlns:xlink="http://www.w3.org/1999/xlink" preserveAspectRatio="none" x="0px" y="0px" width="1000px" height="1000px" viewBox="0 0 1000 1000">
<defs/>

<g id="blocks">
<g>
<g>
<g>
<path fill="#FF797D" stroke="none" d="
M 1000 500
Q 1000 292.9 853.5 146.4 707.1 0 500 0 293 0 146.5 146.4
L 146.45 146.45
Q 0 292.95 0 500 0 707.05 146.45 853.45
L 146.5 853.45
Q 293 1000 500 1000 707.05 1000 853.5 853.45 1000 707.05 1000 500
M 924.2 500
Q 924.2 667.9712890625 810.55 788.9
L 834.3 812.75 810.55 788.9
Q 805.3818359375 794.4205078125 799.95 799.85
L 799.9 799.9
Q 675.7 924.2 500 924.2 324.35 924.2 200.05 799.9
L 200.05 799.85
Q 75.8 675.65 75.8 500 75.8 324.3 200.05 200 206.322265625 193.7328125 212.7 187.75
L 201.85 176.85 212.7 187.75
Q 333.2134765625 75.8 500 75.8 675.7 75.8 799.9 200 924.2 324.3 924.2 500 Z"/>
</g>
</g>

<g>
<path stroke="#FF797D" stroke-width="82" stroke-linejoin="round" stroke-linecap="round" fill="none" d="
M 810.575 788.9
L 834.3 812.75
M 201.85 176.85
L 212.725 187.775 810.575 788.9"/>
</g>
</g>
</g>
</svg>