<svg xmlns="http://www.w3.org/2000/svg" version="1.1" xmlns:xlink="http://www.w3.org/1999/xlink" preserveAspectRatio="none" x="0px" y="0px" width="1000px" height="1000px" viewBox="0 0 1000 1000">
<defs/>

<g id="deletecounts">
<g transform="matrix( 1.05908203125, 0, 0, 1.05908203125, -53.95,-0.2) ">
<g>
<g>
<path fill="#FF797D" stroke="none" d="
M 378.95 526.75
Q 434.991015625 582.791015625 512.4 587.1
L 318.55 393.25
Q 322.908984375 470.708984375 378.95 526.75
M 190.9 265.6
L 133.2 207.9
Q 50.95 324.6369140625 50.95 475.45 50.95 671 189.25 809.3 327.5 947.55 523.05 947.55 673.863671875 947.55 790.6 865.3
L 732.9 807.6
Q 640.419140625 867.55 523.05 867.55 390.3330078125 867.55 289.4 790.9 334.8146484375 704.1064453125 446.5 713.15 447.966015625 713.3384765625 449.45 713.4
L 451.15 713.45
Q 451.7529296875 713.46015625 452.35 713.45 452.6943359375 713.4462890625 453 713.4
L 599.7 710.55
Q 620.1771484375 710.9580078125 638.4 713.1
L 556.65 631.35 452.75 633.4
Q 297.2947265625 620.8314453125 228.8 734.75 130.95 625.39453125 130.95 475.45 130.95 358.08671875 190.9 265.6
M 995.15 475.45
Q 995.15 279.9 856.9 141.65 718.6 3.35 523.05 3.35 350.7443359375 3.35 222.9 110.7
L 167.9 55.7
Q 156.15 43.95 139.6 43.95 123.05 43.95 111.35 55.7 104.6978515625 62.323828125 101.8 70.5 99.6 76.7697265625 99.6 83.95 99.6 100.5 111.35 112.25
L 899.1 900
Q 906.759765625 907.659765625 916.5 910.3 921.6349609375 911.7 927.35 911.7 943.9 911.7 955.65 900 967.35 888.25 967.35 871.7 967.35 855.15 955.65 843.45
L 887.8 775.6
Q 995.15 647.7556640625 995.15 475.45
M 733 380.1
Q 733 294.2 672.25 233.45 611.5 172.7 525.6 172.7 439.7 172.7 378.95 233.4
L 378.9 233.45
Q 370.417578125 241.939453125 363.1 250.9
L 279.75 167.55
Q 383.940234375 83.35 523.05 83.35 685.5 83.35 800.35 198.2 915.15 313 915.15 475.45 915.15 614.569921875 830.95 718.75
L 654.75 542.55
Q 663.7505859375 535.2494140625 672.25 526.75 733 466 733 380.1
M 420.25 308.05
Q 426.8890625 298.6224609375 435.5 290 472.85 252.7 525.6 252.7 578.4 252.7 615.7 290 653 327.3 653 380.1 653 432.85 615.7 470.15
L 615.65 470.2
Q 607.0466796875 478.8033203125 597.6 485.4
L 420.25 308.05 Z"/>
</g>
</g>
</g>
</g>
</svg>