<svg xmlns="http://www.w3.org/2000/svg" version="1.1" xmlns:xlink="http://www.w3.org/1999/xlink" preserveAspectRatio="none" x="0px" y="0px" width="992px" height="1000px" viewBox="0 0 992 1000">
<defs/>

<g id="languages">
<g transform="matrix( 1.1902923583984375, 0, 0, 1.1895599365234375, -139.9,-1235.2) ">
<g>
<g>
<path fill="#FF585D" stroke="none" d="
M 848.85 1203.95
L 811.2 1203.95 811.2 1285.95 848.85 1285.95
Q 857.15 1285.95 863.05 1291.85 868.95 1297.75 868.95 1306.05
L 868.95 1624
Q 868.95 1632.3 863.05 1638.2 857.15 1644.1 848.85 1644.1
L 641.05 1644.1
Q 627.45 1644.45 616.5 1653.5
L 498.6 1750.95 498.6 1685.1
Q 498.6 1668.1 486.6 1656.1 478.2712890625 1647.7712890625 467.55 1645.2
L 374.55 1722.1
Q 388.3232421875 1726.1 403.75 1726.1
L 416.6 1726.1 416.6 1838
Q 416.6 1843.05 417.7 1847.7
L 420.8 1856.25
Q 423.65 1862.05 428.6 1867 439.95 1878.3 455.7 1878.95
L 457.6 1879
Q 463.25 1879 468.35 1877.7
L 480.1 1872.35
Q 482.5 1870.75 484.75 1868.8
L 657.35 1726.1 848.85 1726.1
Q 891.15 1726.1 921.05 1696.2 950.95 1666.3 950.95 1624
L 950.95 1306.05
Q 950.95 1263.75 921.05 1233.85 891.15 1203.95 848.85 1203.95 Z"/>

<path fill="#FF797D" stroke="none" d="
M 147.45 1068.25
Q 117.55 1098.15 117.55 1140.45
L 117.55 1458.4
Q 117.55 1500.7 147.45 1530.6 159.529296875 1542.679296875 173.6 1549.85 194.4388671875 1560.5 219.65 1560.5
L 232.5 1560.5 232.5 1672.4
Q 232.5 1677.45 233.6 1682.1
L 236.7 1690.65
Q 239.55 1696.45 244.5 1701.4 255.85 1712.7 271.6 1713.35
L 273.5 1713.4
Q 275.2 1713.4 276.85 1713.25 280.684375 1713.0087890625 284.25 1712.1
L 296 1706.75
Q 298.4 1705.15 300.65 1703.2
L 473.25 1560.5 664.75 1560.5
Q 707.05 1560.5 736.95 1530.6 766.85 1500.7 766.85 1458.4
L 766.85 1140.45
Q 766.85 1113.953125 755.1 1092.3 748.1205078125 1079.4205078125 736.95 1068.25 707.05 1038.35 664.75 1038.35
L 219.65 1038.35
Q 177.35 1038.35 147.45 1068.25
M 205.45 1126.25
Q 211.35 1120.35 219.65 1120.35
L 664.75 1120.35
Q 673.05 1120.35 678.95 1126.25 684.85 1132.15 684.85 1140.45
L 684.85 1458.4
Q 684.85 1466.7 678.95 1472.6 673.05 1478.5 664.75 1478.5
L 456.95 1478.5
Q 443.35 1478.85 432.4 1487.9
L 314.5 1585.35 314.5 1519.5
Q 314.5 1502.5 302.5 1490.5 302.078125 1490.078125 301.65 1489.65 290.259765625 1478.8373046875 274.55 1478.5
L 219.65 1478.5
Q 211.35 1478.5 205.45 1472.6 199.55 1466.7 199.55 1458.4
L 199.55 1140.45
Q 199.55 1132.15 205.45 1126.25
M 408.35 1163.7
Q 405 1170.6244140625 405 1178.95
L 405 1186.85 307 1186.85
Q 292.5 1186.85 282.25 1197.1 272 1207.35 272 1221.85 272 1236.35 282.25 1246.6 292.5 1256.85 307 1256.85
L 337.25 1256.85 398.85 1324.5 326.8 1403.65
Q 317.1 1414.4 317.75 1428.85 318.4 1443.25 329.15 1453.05 339.9 1462.8 354.3 1462.15 368.75 1461.45 378.55 1450.75
L 446.2 1376.5 513.8 1450.75
Q 523.6 1461.45 538.05 1462.15 552.45 1462.8 563.2 1453.05 573.95 1443.25 574.6 1428.85 575.25 1414.4 565.55 1403.65
L 493.5 1324.55 555.1 1256.85 595.75 1256.85
Q 610.25 1256.85 620.5 1246.6 630.75 1236.35 630.75 1221.85 630.75 1211.89921875 625.9 1203.95 623.7158203125 1200.3158203125 620.5 1197.1 610.25 1186.85 595.75 1186.85
L 475 1186.85 475 1178.95
Q 475 1170.6244140625 471.6 1163.7 469.1146484375 1158.5646484375 464.75 1154.2 454.5 1143.95 440 1143.95 425.5 1143.95 415.25 1154.2 410.8853515625 1158.5646484375 408.35 1163.7
M 460.45 1256.85
L 446.15 1272.55 431.9 1256.85 460.45 1256.85 Z"/>
</g>
</g>
</g>
</g>
</svg>