
<svg xmlns="http://www.w3.org/2000/svg" version="1.1" xmlns:xlink="http://www.w3.org/1999/xlink" preserveAspectRatio="none" x="0px" y="0px" width="935px" height="1000px" viewBox="0 0 935 1000">
<defs/>

<g id="logouts">
<g transform="matrix( 1.4075927734375, 0, 0, 1.40753173828125, -344.3,-320.2) ">
<g>
<g>
<path fill="#FF797D" stroke="none" d="
M 898.15 537.05
Q 897.7095703125 536.3935546875 897.2 535.8 854.2822265625 481.315234375 811.5 472.45 810.434765625 472.22265625 809.4 472.2 792.1873046875 470.846484375 784.1 483.1 776.75 492.45 777.35 512.7
L 777.35 534.9 654 534.9
Q 647.8837890625 534.9 642.35 535.95 630.6478515625 538.1908203125 621.55 545.15 608.1 555.4 608.1 569.9 608.1 584.4 621.55 594.65 630.6478515625 601.6091796875 642.35 603.85 647.8837890625 604.9 654 604.9
L 777.35 604.9 777.35 659
Q 777.2990234375 659.8578125 777.4 660.7
L 777.5 661.7
Q 777.578515625 662.0046875 777.65 662.3 777.71484375 662.59140625 777.8 662.85 782.7046875 682.5041015625 796.7 686.2 808.4193359375 690.9853515625 827.15 681.4 828.5240234375 680.8486328125 829.75 679.85 830.3822265625 679.3876953125 830.9 678.8 875.69375 637.974609375 898.2 602.7 898.3162109375 602.513671875 898.4 602.3 919.4119140625 569.687890625 898.15 537.05
M 737.35 340.7
Q 737.35 293.85 704.2 260.7 671.05 227.5 624.15 227.5
L 357.8 227.5
Q 310.95 227.5 277.8 260.7 244.6 293.85 244.6 340.7
L 244.6 767.6
Q 244.6 786.4333984375 249.95 803.05 246.48984375 871.514453125 291.45 886.55 291.765234375 886.670703125 292.05 886.75
L 421 934.2
Q 421.71875 934.49375 422.45 934.7 424.33984375 935.3154296875 426.2 935.4 503.6939453125 945.886328125 531.2 912.35 543.2919921875 903.7466796875 551.45 880.8
L 624.15 880.8
Q 671.05 880.8 704.2 847.65 737.35 814.5 737.35 767.6
L 737.35 706.55
Q 736.915625 687.665625 723.45 674.2 709.55 660.3 689.85 660.3 670.15 660.3 656.25 674.2 642.784375 687.665625 642.35 706.55
L 642.35 767.6
Q 642.35 775.15 637.05 780.5 631.7 785.8 624.15 785.8
L 563.6 785.8 563.6 416.6
Q 563.6 416.3064453125 563.55 416 563.5787109375 415.97421875 563.55 415.9
L 563.55 415.7 563.5 415.2
Q 563.43125 413.9134765625 563.1 412.7 554.2232421875 367.296875 498.05 332.9 496.1126953125 331.7232421875 494.1 331.15
L 470.45 322.5 624.15 322.5
Q 631.7 322.5 637.05 327.85 642.35 333.2 642.35 340.7
L 642.35 438.35
Q 642.784375 457.284375 656.25 470.75 670.15 484.65 689.85 484.65 709.55 484.65 723.45 470.75 736.915625 457.284375 737.35 438.35
L 737.35 340.7 Z"/>
</g>
</g>
</g>
</g>
</svg>
