<svg xmlns="http://www.w3.org/2000/svg" version="1.1" xmlns:xlink="http://www.w3.org/1999/xlink" preserveAspectRatio="none" x="0px" y="0px" width="950px" height="1000px" viewBox="0 0 950 1000">
<defs/>

<g id="moons">
<g transform="matrix( 1.0334930419921875, 0, 0, 1.031707763671875, -20.2,-1.35) ">
<g>
<g>
<path fill="#FF797D" stroke="none" d="
M 693.4 15.25
Q 692.2900390625 14.605859375 691.1 14
L 687.75 12.55
Q 687.33984375 12.39140625 686.9 12.2
L 686.1 11.9
Q 634.8375 -7.449609375 602 8.6 564.2431640625 21.623046875 548.6 71.55 546.387109375 77.2162109375 546.05 83.3 545.597265625 89.0462890625 546.8 94.6 576.6611328125 308.2162109375 457.25 448.2 456.2025390625 449.4171875 455.25 450.65 332.2830078125 602.4771484375 127.4 571.9 123.740625 571.1103515625 119.85 571 116.515625 570.851171875 113.3 571.2 60.9068359375 574.930078125 38.2 611.3 16.005859375 640.1330078125 20.2 695.35 20.1642578125 701.8302734375 22.3 708.05 23.8771484375 713.0134765625 26.65 717.3 82.9177734375 818.6123046875 180.4 889.45 181.926171875 890.542578125 183.45 891.45 430.597265625 1050.4205078125 706.8 889.9 708.22421875 889.1724609375 709.6 888.3 968.9 725.4 934.8 359.3 934.4927734375 356.16171875 933.8 353.2 887.76640625 118.373828125 693.4 15.25
M 656.05 88.25
Q 815.22890625 174.8115234375 853.35 369 881.3986328125 678.5080078125 666.45 818.55 434.6947265625 953.633203125 227.4 822.2 148.5326171875 764.540625 101.65 683.3 101.258984375 667.183984375 105.8 657.7 109.91953125 654.2669921875 117 653.25 369.14609375 690.2208984375 519.8 501.2 661.30546875 338.458984375 629 90.6 630.8625 86.7375 633.15 84.45 641.9908203125 83.1470703125 656.05 88.25 Z"/>
</g>
</g>
</g>
</g>
</svg>