<svg xmlns="http://www.w3.org/2000/svg" version="1.1" xmlns:xlink="http://www.w3.org/1999/xlink" preserveAspectRatio="none" x="0px" y="0px" width="733px" height="1000px" viewBox="0 0 733 1000">
<defs/>

<g id="passwords">
<g transform="matrix( 1.088104248046875, 0, 0, 1.0877532958984375, -187.65,-47) ">
<g>
<g>
<path fill="#FF797D" stroke="none" d="
M 718.9 379.1
L 718.9 239.9
Q 725.709375 126.2373046875 622.7 65.45 620.5001953125 64.05390625 618.05 62.9 614.1013671875 60.9412109375 610 59.9 513.748828125 29.3634765625 433.25 54.65 432.0255859375 55.0099609375 430.75 55.45
L 429.6 55.85
Q 429.4751953125 55.93203125 429.3 56
L 428.45 56.3
Q 308.4361328125 102.620703125 305.05 236 305.0279296875 237.0296875 305.05 238
L 305.05 379.1 273.55 379.1
Q 231.7 379.1 202.1 407.9 172.45 436.65 172.45 477.25
L 172.45 864.4
Q 172.45 905 202.1 933.8 231.7 962.55 273.55 962.55
L 745 962.55
Q 786.85 962.55 816.5 933.8 846.1 905 846.1 864.4
L 846.1 477.25
Q 846.1 436.65 816.5 407.9 786.85 379.1 745 379.1
L 718.9 379.1
M 759.95 462.8
Q 766.1 468.75 766.1 477.25
L 766.1 864.4
Q 766.1 872.9 759.95 878.9 753.75 884.85 745 884.85
L 273.55 884.85
Q 264.8 884.85 258.65 878.9 252.45 872.9 252.45 864.4
L 252.45 477.25
Q 252.45 468.75 258.65 462.8 264.8 456.8 273.55 456.8
L 335.15 456.8
Q 339.867578125 457.9484375 345.05 457.95 350.232421875 457.9484375 354.95 456.8
L 669 456.8
Q 673.717578125 457.9484375 678.9 457.95 684.082421875 457.9484375 688.8 456.8
L 745 456.8
Q 753.75 456.8 759.95 462.8
M 385.05 379.1
L 385.05 237.3
Q 386.5296875 158.543359375 456.8 131.1 514.82109375 114.1044921875 584.05 135.6 641.8998046875 170.9736328125 639 235.5 638.996484375 235.9521484375 638.95 236.35 638.9626953125 236.588671875 638.95 236.8
L 638.9 238.6
Q 638.9 238.6927734375 638.9 238.75
L 638.9 379.1 385.05 379.1 Z"/>
</g>
</g>
</g>
</g>
</svg>