<svg xmlns="http://www.w3.org/2000/svg" version="1.1" xmlns:xlink="http://www.w3.org/1999/xlink" preserveAspectRatio="none" x="0px" y="0px" width="823px" height="1000px" viewBox="0 0 823 1000">
<defs/>

<g id="personaldetailss">
<g transform="matrix( 1.0367431640625, 0, 0, 1.03631591796875, -94.95,-25.75) ">
<g>
<g>
<path fill="#FF797D" stroke="none" d="
M 885.4 123.75
Q 885.4 82.8 855.8 53.85 826.15 24.85 784.3 24.85
L 192.7 24.85
Q 150.85 24.85 121.25 53.85 91.6 82.8 91.6 123.75
L 91.6 890.9
Q 91.6 931.85 121.25 960.85 150.85 989.8 192.7 989.8
L 784.3 989.8
Q 826.15 989.8 855.8 960.85 885.4 931.85 885.4 890.9
L 885.4 123.75
M 799.25 109.2
Q 805.4 115.2 805.4 123.75
L 805.4 890.9
Q 805.4 899.45 799.25 905.5 793.05 911.55 784.3 911.55
L 192.7 911.55
Q 183.95 911.55 177.8 905.5 171.6 899.45 171.6 890.9
L 171.6 123.75
Q 171.6 115.2 177.8 109.2 183.95 103.1 192.7 103.1
L 784.3 103.1
Q 793.05 103.1 799.25 109.2
M 438.55 217.8
Q 412.55 243.9 412.55 280.75 412.55 317.6 438.55 343.6 464.65 369.7 501.5 369.7 538.35 369.7 564.35 343.6 590.45 317.6 590.45 280.75 590.45 243.9 564.35 217.8 538.35 191.8 501.5 191.8 464.65 191.8 438.55 217.8
M 677.55 739.95
Q 665.8 728.2 649.25 728.2
L 350.75 728.2
Q 334.2 728.2 322.5 739.95 310.75 751.65 310.75 768.2 310.75 784.75 322.5 796.5 334.2 808.2 350.75 808.2
L 649.25 808.2
Q 665.8 808.2 677.55 796.5 689.25 784.75 689.25 768.2 689.25 751.65 677.55 739.95
M 674.3 521.95
Q 673.5 516.35 671.25 511.15 634.05 415.35 484.3 420.4 481.65 420.45 479.2 420.85 360.8 414.55 320.7 510.15 318.45 515.35 317.65 520.95 308.85 586.25 348.5 615.2 378.3 643.45 446.25 639.35
L 542.2 640.8
Q 545.3 640.85 548.25 640.5 614.2 643.9 643.5 616.2 683.1 587.25 674.3 521.95
M 549.1 560.4
Q 544.45 560.1 540.1 560.75
L 446.15 559.3
Q 444.6 559.3 442.85 559.4 413.2 561.35 399.5 553.55 395.95 547.8 396.4 537.7 419.25 497.35 476.55 500.85 481.4 501.1 485.95 500.35 486.45 500.35 487 500.35 568.85 497.6 595.6 539.3 595.9 548.95 592.5 554.55 578.75 562.35 549.1 560.4 Z"/>
</g>
</g>
</g>
</g>
</svg>