<svg xmlns="http://www.w3.org/2000/svg" version="1.1" xmlns:xlink="http://www.w3.org/1999/xlink" preserveAspectRatio="none" x="0px" y="0px" width="1000px" height="1000px" viewBox="0 0 1000 1000">
<defs/>

<g id="qyas">
<g>
<g>
<g>
<path fill="#FF585D" stroke="none" d="
M 1000 500
Q 1000 292.9 853.55 146.45 707.2 0 500 0 292.85 0 146.4 146.45 0 292.9 0 500 0 707.1 146.4 853.55 292.85 1000 500 1000 707.2 1000 853.55 853.55 1000 707.1 1000 500
M 704.1 402.7
L 703.9 404.05
Q 703.9 404.3 703.85 404.65 703.55 406.3 703.25 407.95 703.15 408.35 703.05 408.8
L 702.8 410.05
Q 680.6 512.4 590.95 547.95 562.3 569.7 560 621.15 558.8 645.6 540.6 662.2 522.35 678.7 497.95 677.6 473.45 676.5 456.95 658.3 440.3 640.1 441.4 615.75 447.25 488.6 533.8 443.75 535.75 442.55 537.85 441.55
L 540.5 440.35
Q 542.6 439.35 544.9 438.55 577.95 424.2 586.7 385.5 596.25 316.5 549.75 278.45 506.75 253.8 461.25 272.5 459.3 273.75 457.25 274.95 414.65 300.5 411.05 355.3 409.3 379.65 390.8 395.9 372.25 412.1 347.85 410.4 323.45 408.7 307.25 390.25 290.95 371.7 292.65 347.4 300.7 226.55 398.35 172.1 400.65 170.85 402.95 169.75 407.85 166.35 413.6 163.9 516.45 119.95 613.05 178.1
L 614.15 178.8
Q 614.4 178.95 614.75 179.15 617.1 180.6 619.25 182.2
L 620.35 182.95
Q 724.7 259.05 704.1 402.7
M 500.85 736.5
Q 525.4 736.5 542.8 753.8 560.15 771.25 560.15 795.75 560.15 820.25 542.8 837.6 525.4 855 500.85 855 476.35 855 458.85 837.6 441.5 820.25 441.5 795.75 441.5 771.25 458.85 753.8 476.35 736.5 500.85 736.5 Z"/>
</g>
</g>
</g>
</g>
</svg>