<svg xmlns="http://www.w3.org/2000/svg" version="1.1" xmlns:xlink="http://www.w3.org/1999/xlink" preserveAspectRatio="none" x="0px" y="0px" width="1000px" height="793px" viewBox="0 0 1000 793">
<defs/>

<g id="reports">
<g transform="matrix( 1.02288818359375, 0, 0, 1.0228118896484375, -5.85,-41) ">
<g>
<g>
<path fill="#FF585D" stroke="none" d="
M 940.6 82.9
Q 897.85 40.1 837.4 40.1
L 151.65 40.1
Q 91.2 40.1 48.45 82.9 5.7 125.75 5.7 186.3
L 5.7 669.2
Q 5.7 729.75 48.45 772.6 91.2 815.4 151.65 815.4
L 837.4 815.4
Q 897.85 815.4 940.6 772.6 983.35 729.75 983.35 669.2
L 983.35 186.3
Q 983.35 125.75 940.6 82.9
M 445.75 232.45
Q 445.7439453125 212.768359375 459.65 198.85 473.568359375 184.9439453125 493.25 184.95 512.931640625 184.9439453125 526.85 198.85 540.7560546875 212.768359375 540.75 232.45
L 540.75 476.2
Q 540.7560546875 495.881640625 526.85 509.8 512.931640625 523.7060546875 493.25 523.7 473.568359375 523.7060546875 459.65 509.8 445.7439453125 495.881640625 445.75 476.2
L 445.75 232.45
M 494.3 566.8
Q 515.7 566.8 530.85 581.95 546 597.1 546 618.5 546 639.9 530.85 655.05 515.7 670.2 494.3 670.2 472.9 670.2 457.75 655.05 442.6 639.9 442.6 618.5 442.6 597.1 457.75 581.95 472.9 566.8 494.3 566.8 Z"/>
</g>
</g>
</g>
</g>
</svg>