<svg xmlns="http://www.w3.org/2000/svg" version="1.1" xmlns:xlink="http://www.w3.org/1999/xlink" preserveAspectRatio="none" x="0px" y="0px" width="1000px" height="1000px" viewBox="0 0 1000 1000">
<defs/>

<g id="users">
<g transform="matrix( 1.05908203125, 0, 0, 1.05908203125, -24.5,0.6) ">
<g>
<g>
<path fill="#FF797D" stroke="none" d="
M 967.35 471.55
Q 967.344921875 275.9857421875 829.05 137.7 690.8140625 -0.5451171875 495.25 -0.55 299.6857421875 -0.5451171875 161.4 137.7 23.1548828125 275.9857421875 23.15 471.55 23.1548828125 667.1140625 161.4 805.35 299.6857421875 943.644921875 495.25 943.65 680.2806640625 943.5791015625 814.05 819.85 815.8658203125 818.371875 817.5 816.6 823.323046875 811.1294921875 829.05 805.35 967.344921875 667.1140625 967.35 471.55
M 887.35 471.55
Q 887.354296875 613.3912109375 799.8 718.95 737.9541015625 629.5142578125 572.55 626.65 571.846484375 626.6345703125 571.05 626.65
L 424.95 629.5
Q 269.50703125 616.9134765625 200.95 730.85 103.1453125 621.4837890625 103.15 471.55 103.144921875 309.1140625 217.95 194.25 332.8140625 79.444921875 495.25 79.45 657.6857421875 79.444921875 772.5 194.25 887.3548828125 309.1140625 887.35 471.55
M 420.3 709.4
Q 422.49453125 709.591796875 424.5 709.55
L 571.9 706.65
Q 698.0384765625 709.0541015625 739.7 778.5 635.15546875 863.714453125 495.25 863.65 362.537109375 863.65390625 261.6 787 307.35546875 699.6154296875 420.3 709.4
M 351.1 229.5
L 351.1 229.5
Q 290.4009765625 290.2892578125 290.4 376.2 290.409375 462.1185546875 351.1 522.8 411.887890625 583.5970703125 497.8 583.6 583.716015625 583.6005859375 644.4 522.85
L 644.45 522.8
Q 705.2005859375 462.116015625 705.2 376.2 705.1970703125 290.287890625 644.4 229.5 583.7185546875 168.809375 497.8 168.8 411.8892578125 168.8009765625 351.1 229.5
M 407.65 286.1
L 407.7 286.05
Q 445.0279296875 248.799609375 497.8 248.8 550.58125 248.7904296875 587.85 286.05 625.203515625 323.4126953125 625.2 376.2 625.1986328125 428.967578125 587.85 466.25
L 587.85 466.25
Q 550.567578125 503.5986328125 497.8 503.6 445.0126953125 503.603515625 407.65 466.25 370.3904296875 428.98125 370.4 376.2 370.399609375 323.4279296875 407.65 286.1 Z"/>
</g>
</g>
</g>
</g>
</svg>